<svg xmlns="http://www.w3.org/2000/svg" width="100" height="25"  viewBox="0 89.0539 100 0.000001" fill="none">
  <path d="M6.42369 95.0186H1.40479V82.9769H6.06261C6.92919 82.9769 7.95824 83.1032 8.69844 83.9156C9.11367 84.367 9.43864 85.1072 9.43864 86.1723C9.43864 86.6959 9.34837 87.1472 9.09562 87.6527C8.84287 88.1221 8.57206 88.3929 8.12072 88.5915C8.7526 88.6637 9.38447 88.9526 9.7636 89.3137C10.251 89.7831 10.576 90.5594 10.576 91.5162C10.576 92.6536 10.1427 93.4299 9.69139 93.8812C9.04146 94.5492 7.90408 95.0186 6.42369 95.0186ZM4.52806 85.378V87.725H5.10577C5.43074 87.725 5.97234 87.6888 6.29731 87.3458C6.4959 87.1472 6.58617 86.8223 6.58617 86.5515C6.58617 86.2446 6.47785 85.9376 6.29731 85.7391C6.09872 85.5405 5.71959 85.378 5.10577 85.378H4.52806ZM4.52806 90.0539V92.5814H5.23215C6.09872 92.5814 6.82086 92.4911 7.16388 92.0939C7.30831 91.9314 7.41663 91.6606 7.41663 91.3176C7.41663 90.9385 7.29026 90.6316 7.10972 90.451C6.7306 90.0719 5.95429 90.0539 5.17799 90.0539H4.52806Z" fill="#ffff"/>
  <path d="M12.5649 82.9769H15.6881V92.3647H19.4433V95.0186H12.5649V82.9769Z" fill="#ffff"/>
  <path d="M33.121 89.0068C33.121 90.5955 32.5072 92.2745 31.2254 93.5021C29.9977 94.6756 28.2646 95.2894 26.4773 95.2894C24.69 95.2894 22.9568 94.6756 21.7292 93.5021C20.4474 92.2745 19.8336 90.5955 19.8336 89.0068C19.8336 87.4 20.4474 85.703 21.7292 84.4934C22.9568 83.3199 24.69 82.7061 26.4773 82.7061C28.2646 82.7061 29.9977 83.3199 31.2254 84.4934C32.5072 85.703 33.121 87.4 33.121 89.0068ZM26.4773 85.7391C25.6107 85.7391 24.69 86.046 24.04 86.6959C23.3901 87.3278 23.0832 88.2124 23.0832 89.0609C23.0832 90.1261 23.5887 90.8663 24.04 91.2996C24.6178 91.8592 25.4302 92.2564 26.4773 92.2564C27.5424 92.2564 28.3368 91.8773 28.8965 91.3176C29.4561 90.758 29.8714 89.9275 29.8714 89.0068C29.8714 88.068 29.4561 87.2375 28.8965 86.6959C28.2285 86.064 27.3077 85.7391 26.4773 85.7391Z" fill="#ffff"/>
  <path d="M43.7619 90.9927V94.6936C42.5162 95.145 41.8302 95.2894 41.0539 95.2894C38.9596 95.2894 37.389 94.4589 36.396 93.4841C35.2226 92.3106 34.5726 90.6677 34.5726 89.097C34.5726 87.3819 35.3128 85.7571 36.396 84.6558C37.4612 83.5726 39.068 82.7783 40.9455 82.7783C41.5233 82.7783 42.462 82.8685 43.7619 83.3921V87.1292C42.7509 85.8835 41.5594 85.8113 41.0358 85.8113C40.1331 85.8113 39.4471 86.0821 38.8694 86.6056C38.1292 87.2917 37.8223 88.2305 37.8223 89.079C37.8223 89.9094 38.1653 90.8302 38.7972 91.4259C39.3207 91.9134 40.1512 92.2564 41.0358 92.2564C41.5052 92.2564 42.6606 92.2022 43.7619 90.9927Z" fill="#ffff"/>
  <path d="M48.8687 82.9769V87.9416L52.696 82.9769H56.5595L51.7753 88.6818L56.9928 95.0186H52.9488L48.8687 89.8011V95.0186H45.7454V82.9769H48.8687Z" fill="#ffff"/>
  <path d="M56.9457 93.9354L58.2817 91.4079C58.9496 92.0398 59.9606 92.6355 61.0438 92.6355C61.6757 92.6355 62.0549 92.4369 62.2534 92.2203C62.434 92.0398 62.5604 91.769 62.5604 91.462C62.5604 91.2274 62.4701 90.9565 62.2173 90.7399C61.9104 90.4691 61.441 90.3427 60.6647 90.108L59.8523 89.8553C59.3468 89.6928 58.6066 89.422 58.1192 88.8804C57.5053 88.2124 57.4331 87.3639 57.4331 86.7501C57.4331 85.2697 58.0108 84.367 58.5344 83.8434C59.1482 83.2296 60.1592 82.7061 61.6216 82.7061C62.8131 82.7061 64.2032 83.0852 65.3406 83.6809L64.0949 86.1182C63.1561 85.378 62.452 85.3058 62.0368 85.3058C61.7299 85.3058 61.3147 85.378 61.0077 85.6668C60.8272 85.8474 60.7008 86.046 60.7008 86.3168C60.7008 86.5334 60.7369 86.6959 60.8633 86.8584C60.9536 86.9667 61.1702 87.1833 61.9104 87.4L62.8673 87.6888C63.6255 87.9235 64.4199 88.1943 65.0517 88.8804C65.6656 89.5303 65.828 90.1983 65.828 91.0288C65.828 92.13 65.5573 93.1952 64.6907 94.0618C63.6616 95.0908 62.4159 95.2894 61.1341 95.2894C60.3759 95.2894 59.6537 95.2172 58.7691 94.8922C58.5705 94.82 57.8123 94.5312 56.9457 93.9354Z" fill="#ffff"/>
  <path d="M74.9142 85.6307H72.3506V95.0186H69.2273V85.6307H66.6637V82.9769H74.9142V85.6307Z" fill="#ffff"/>
  <path d="M83.8405 95.0186L83.1003 92.9966H78.7313L77.9189 95.0186H74.6151L79.2368 82.9769H82.6489L87.1804 95.0186H83.8405ZM79.5979 90.6135H82.2698L80.9158 86.714L79.5979 90.6135Z" fill="#ffff"/>
  <path d="M91.6931 82.9769V87.9416L95.5204 82.9769H99.3839L94.5997 88.6818L99.8172 95.0186H95.7732L91.6931 89.8011V95.0186H88.5698V82.9769H91.6931Z" fill="#ffff"/>
</svg>