<svg width="274" height="33" viewBox="0 0 274 33" fill="none" xmlns="http://www.w3.org/2000/svg">
<path fillRule="evenodd" clipRule="evenodd" d="M15.2925 0.160567C-0.0518251 0.793045 -1.78899 1.67839 2.55374 6.35873C7.33069 11.545 17.3191 12.8104 94.9092 14.9608C5.3042 16.4786 -2.94712 18.2496 0.671818 24.1949C5.30406 31.6581 34.9794 30.8991 179.447 31.1521C222.73 31.2786 246.759 33.429 259.064 32.9231C276.145 32.1641 271.947 26.3453 264.854 23.6889L268.763 23.0564C279.04 21.412 272.816 11.0394 259.643 8.00355C248.062 5.34714 181.474 2.56398 117.347 2.058C32.5187 1.55202 32.8082 -0.598407 15.2925 0.160567Z" fill="#4E31AA"/>
</svg>
