<svg width="339" height="340" viewBox="0 0 339 340" fill="none" xmlns="http://www.w3.org/2000/svg">
<path d="M97.2117 227.499C95.5845 224.448 94.137 222.021 92.4979 219.314C92.7403 217.187 93.1386 214.607 93.403 212.731C91.0012 211.743 85.6535 209.532 85.6535 209.427C85.6535 209.322 82.3279 214.248 80.8363 216.462C81.0787 216.831 81.3211 216.782 82.6076 217.914C83.65 218.833 84.6111 219.85 85.6247 220.796C85.5362 227.228 85.9949 233.657 86.9959 240.012C87.0352 240.237 87.1354 240.447 87.2858 240.619C90.7284 244.608 93.9329 248.796 96.8829 253.162C96.9865 253.339 97.1403 253.482 97.3248 253.572C97.5093 253.662 97.7164 253.695 97.9198 253.668C98.1233 253.64 98.3141 253.553 98.4683 253.418C98.6225 253.282 98.7332 253.104 98.7863 252.906C100.21 247.255 100.214 242.356 101.337 236.973C101.585 235.951 97.7032 228.418 97.2117 227.499Z" fill="#C7C8FE"/>
<path d="M81.3803 167.742C80.7532 165.878 77.1428 155.682 79.0904 155.32C80.2498 155.101 80.2769 157.423 83.7194 167.939C83.8003 168.181 83.7918 168.444 83.6955 168.681C83.5991 168.918 83.4212 169.112 83.194 169.229C82.1177 169.766 78.6989 171.149 78.3005 170.008C77.97 169.075 79.2955 168.973 81.3803 167.742Z" fill="#F9FAFB"/>
<path d="M69.578 154.523C71.0933 153.008 73.2545 154.938 73.9206 154.103C74.5291 153.325 72.7629 151.074 69.8763 151.872C67.1338 152.625 66.7813 155.657 67.8067 155.94C68.3695 156.091 68.5153 155.593 69.578 154.523Z" fill="#F9FAFB"/>
<path d="M83.1754 152.331C84.8704 151.162 86.0264 152.906 86.7705 152.114C87.6366 151.216 85.0653 148.124 82.0499 150.467C80.4142 151.726 80.2328 154.321 83.1754 152.331Z" fill="#F9FAFB"/>
<path d="M87.5348 174.736C87.8355 176.45 87.8521 178.203 87.584 179.923C87.4058 181.482 86.6259 182.911 85.4103 183.905C84.1947 184.899 82.6394 185.379 81.0752 185.243C78.0717 185.057 75.8088 183.314 74.8664 179.506C74.4666 177.823 74.339 176.087 74.4884 174.365C74.5061 174.173 74.5743 173.989 74.6861 173.832C74.7979 173.674 74.9494 173.55 75.1251 173.47C75.3007 173.391 75.4944 173.359 75.6862 173.379C75.8781 173.398 76.0613 173.468 76.2173 173.582C78.9666 175.604 83.7991 176.038 86.4263 173.863C86.5509 173.746 86.7131 173.678 86.8836 173.671C87.0541 173.663 87.2216 173.717 87.3557 173.823C87.4898 173.929 87.5816 174.079 87.6144 174.246C87.6473 174.414 87.6191 174.587 87.5348 174.736ZM86.2195 175.922C84.7911 176.81 83.158 177.314 81.4778 177.387C79.7975 177.459 78.127 177.097 76.6275 176.336C76.7784 179.736 77.8259 182.835 81.2227 183.07C82.1581 183.175 83.1 182.937 83.8725 182.399C84.645 181.861 85.1954 181.06 85.4212 180.146C85.9018 178.784 86.171 177.357 86.2195 175.914V175.922Z" fill="#F9FAFB"/>
<path d="M71.7612 158.855C72.6189 158.703 73.5613 159.974 73.8647 161.694C74.1681 163.415 73.7172 164.93 72.8579 165.084C71.9985 165.239 71.0578 163.966 70.7561 162.245C70.4544 160.525 70.9018 159.006 71.7612 158.855Z" fill="#F9FAFB"/>
<path d="M84.8279 157.025C85.6856 156.874 86.6314 158.162 86.9382 159.906C87.245 161.65 86.7975 163.179 85.9398 163.332C85.0822 163.484 84.1364 162.195 83.8296 160.45C83.5228 158.706 83.9685 157.176 84.8279 157.025Z" fill="#F9FAFB"/>
<path d="M85.9755 210.761C81.1481 218.24 80.9346 218.78 77.6836 222.525C77.5794 222.657 77.4283 222.744 77.2616 222.767C77.0949 222.791 76.9256 222.75 76.7887 222.652C76.6519 222.554 76.5581 222.407 76.5268 222.241C76.4955 222.076 76.5292 221.905 76.6208 221.764C78.4192 218.674 77.5598 219.765 84.6636 208.731C84.8122 208.499 85.0423 208.332 85.3084 208.261C85.5745 208.191 85.8573 208.223 86.1009 208.351C91.2368 211.053 93.3894 211.104 100.137 214.836C100.222 214.876 100.298 214.932 100.361 215.001C100.424 215.07 100.473 215.151 100.505 215.239C100.536 215.327 100.551 215.42 100.546 215.514C100.542 215.607 100.519 215.699 100.48 215.784C100.44 215.868 100.384 215.944 100.315 216.007C100.246 216.07 100.165 216.119 100.077 216.151C99.9888 216.183 99.8954 216.197 99.802 216.193C99.7085 216.188 99.6168 216.166 99.5321 216.126C94.9157 214.595 90.3896 212.804 85.9755 210.761Z" fill="#F9FAFB"/>
<path d="M83.733 205.892C89.4401 201.229 89.7909 200.546 90.6825 200.764C96.8574 202.359 98.2524 202.886 100.62 203.346C100.808 203.37 100.978 203.469 101.093 203.619C101.209 203.769 101.259 203.959 101.235 204.147C101.21 204.334 101.112 204.504 100.962 204.62C100.811 204.735 100.622 204.786 100.434 204.761C97.1402 204.411 93.8773 203.816 90.6723 202.98C88.9061 204.336 86.6942 206.326 84.7398 207.912C84.6185 208.009 84.4781 208.08 84.3276 208.119C84.1772 208.158 84.0202 208.165 83.8669 208.139C78.8209 207.292 74.3207 207.576 69.0441 206.653L64.1947 209.694C64.1252 209.744 64.0463 209.78 63.9627 209.8C63.8791 209.82 63.7924 209.824 63.7075 209.81C63.536 209.783 63.3823 209.689 63.2803 209.549C63.1782 209.408 63.1362 209.233 63.1633 209.061C63.1905 208.89 63.2847 208.736 63.4252 208.634C65.3524 207.021 65.2372 207.056 68.2458 204.717C68.795 204.339 68.6933 204.627 72.5765 204.958C76.336 205.278 80.1379 205.324 83.733 205.892Z" fill="#F9FAFB"/>
<path d="M138.437 211.455C127.508 205.764 114.762 201.642 102.503 202.268C102.335 202.277 102.171 202.324 102.024 202.406C101.877 202.488 101.751 202.602 101.655 202.74C101.559 202.878 101.495 203.037 101.47 203.203C101.444 203.369 101.457 203.539 101.507 203.7C104.549 213.321 103.073 230.696 101.846 240.651C101.168 246.094 100.471 252.67 98.0472 257.643C93.3453 250.84 89.2332 244.177 84.3177 237.42C80.7362 232.505 64.8252 211.977 59.5351 208.973C56.9587 207.514 54.3383 210.16 52.1907 211.27C34.7 220.382 17.9297 241.293 11.4599 267.713C8.18342 281.163 9.28009 284.609 8.47835 288.848C8.46155 288.932 8.46148 289.019 8.47815 289.103C8.49482 289.187 8.52791 289.267 8.57552 289.339C8.62314 289.41 8.68434 289.471 8.75564 289.519C8.82695 289.567 8.90695 289.6 8.99109 289.617C9.07523 289.634 9.16186 289.634 9.24602 289.617C9.33019 289.6 9.41024 289.567 9.48162 289.52C9.553 289.472 9.6143 289.411 9.66203 289.34C9.70975 289.268 9.74297 289.188 9.75977 289.104C10.2903 286.511 10.17 283.953 10.4717 281.409C14.2702 249.353 33.1745 223.479 53.1653 213.15C54.8366 212.282 57.2333 210.117 58.4859 210.824C63.3489 213.584 79.226 234.113 82.5634 238.697C87.7772 245.866 92.2402 253.187 97.2625 260.352C97.3892 260.531 97.5661 260.668 97.771 260.747C98.6913 263.678 98.2913 262.347 99.1066 264.645C100.554 268.885 101.786 273.195 102.797 277.56C103.098 278.661 103.475 279.727 103.814 280.833C103.856 281.013 103.967 281.169 104.123 281.269C104.279 281.369 104.467 281.405 104.649 281.368C104.83 281.332 104.991 281.226 105.096 281.074C105.201 280.921 105.242 280.734 105.212 280.551C105.09 279.399 105.009 278.255 104.82 277.119C104.093 272.736 101.649 263.954 99.2981 259.94C100.56 257.664 101.503 255.226 102.102 252.694C104.644 242.67 107.119 216.121 104.002 204.405C126.916 203.937 153.308 220.47 168.786 236.91C177.834 246.517 180.541 250.524 184.297 263.032C184.369 263.269 184.519 263.474 184.723 263.615C184.927 263.755 185.173 263.821 185.419 263.803C188.511 263.622 181.704 233.979 138.437 211.455Z" fill="#F9FAFB"/>
<path d="M232.837 166.235C233.891 166.066 233.854 165.791 233.727 165.378C233.7 165.283 233.578 165.271 233.468 165.223C232.72 164.983 231.941 164.856 231.156 164.849L230.793 166.256C231.472 166.336 232.159 166.329 232.837 166.235Z" fill="#C7C8FE"/>
<path d="M234.025 168.803C232.848 168.444 231.629 168.238 230.4 168.191C230.249 168.176 230.381 167.852 229.552 171.073C231.182 171.554 232.917 171.554 234.547 171.073C235.658 170.551 235.025 169.175 234.025 168.803Z" fill="#C7C8FE"/>
<path d="M241.424 164.388C240.594 162.777 239.353 161.414 237.826 160.437C236.299 159.46 234.542 158.904 232.731 158.825C230.92 158.746 229.121 159.147 227.515 159.988C225.909 160.828 224.554 162.079 223.588 163.612C222.737 165.105 222.285 166.793 222.274 168.512C222.263 170.23 222.694 171.923 223.526 173.428C224.357 174.932 225.561 176.198 227.023 177.103C228.484 178.008 230.153 178.523 231.87 178.598C233.588 178.673 235.295 178.305 236.83 177.53C238.364 176.755 239.673 175.599 240.633 174.172C241.592 172.746 242.168 171.097 242.307 169.383C242.445 167.67 242.141 165.95 241.424 164.388ZM235.334 172.793C234.324 173.186 233.226 173.296 232.159 173.11C232.135 173.878 231.727 175.363 231.005 175.246C230.283 175.129 230.349 173.539 230.654 172.773C229.905 172.556 229.189 172.287 228.561 172.041C228.256 171.948 228.069 171.656 228.206 171.193C228.475 168.638 228.908 166.104 229.505 163.605C229.562 163.397 229.688 163.216 229.862 163.089C230.036 162.962 230.247 162.898 230.462 162.906C230.898 162.922 231.479 162.937 232.079 162.988C232.383 159.757 234.195 160.276 233.702 163.25C234.127 163.328 234.525 163.514 234.858 163.791C235.19 164.067 235.446 164.425 235.6 164.829C235.758 165.223 235.803 165.654 235.732 166.072C235.66 166.491 235.473 166.882 235.193 167.202C237.359 168.427 237.959 171.609 235.334 172.793Z" fill="#C7C8FE"/>
<path d="M229.142 199.901C234.098 201.559 239.542 200.918 240.459 195.633C240.566 194.937 240.614 194.233 240.605 193.528C240.619 193.444 240.616 193.358 240.596 193.275C240.576 193.192 240.539 193.114 240.488 193.046C240.438 192.977 240.374 192.92 240.3 192.876C240.227 192.833 240.146 192.805 240.061 192.794C239.977 192.782 239.891 192.788 239.808 192.81C239.726 192.833 239.649 192.872 239.582 192.924C239.515 192.977 239.46 193.043 239.418 193.117C239.377 193.192 239.351 193.274 239.342 193.359C239.062 194.36 238.716 195.342 238.307 196.298C236.824 199.657 232.82 198.593 229.522 198.215C227.693 198.008 227.067 197.929 226.938 198.505C226.813 199.051 227.23 199.237 229.142 199.901Z" fill="#EEEFFF"/>
<path d="M238.954 184.343C241.005 186.514 243.251 188.072 242.982 191.206C242.812 193.123 242.217 193.445 242.902 193.825C243.724 194.277 244.611 192.381 244.812 191.518C245.507 188.531 243.266 185.445 240.798 183.552C240.61 183.405 240.414 183.269 240.21 183.145C238.607 182.185 238.188 182.141 237.914 182.518C237.568 182.98 237.99 183.321 238.954 184.343Z" fill="#EEEFFF"/>
<path d="M242.395 176.36C244.643 178.487 246.221 179.317 246.262 182.79C246.282 184.521 246.08 184.994 246.701 185.163C247.487 185.387 247.96 183.74 248.097 182.936C248.223 181.275 247.819 179.617 246.945 178.198C246.07 176.78 244.77 175.675 243.229 175.041C242.412 174.729 241.849 174.482 241.571 174.966C241.293 175.451 241.799 175.8 242.395 176.36Z" fill="#EEEFFF"/>
<path d="M245.87 169.086C247.524 170.561 249.463 171.47 249.216 176.446C249.196 176.868 249.189 177.282 249.153 177.697C249.065 178.597 248.892 179.16 249.492 179.346C250.952 179.804 252.713 173.095 249.012 169.261C248.252 168.446 247.328 167.8 246.3 167.366C245.353 166.929 244.885 166.61 244.543 167.068C244.2 167.525 244.607 167.937 245.87 169.086Z" fill="#EEEFFF"/>
<path d="M247.143 162.176C249.745 164.176 251.518 164.781 252.153 168.21C252.504 170.146 252.28 170.636 252.958 170.727C253.704 170.819 253.864 169.741 253.975 168.693C254.331 165.534 251.772 162.65 248.804 161.066C248.6 160.955 248.389 160.857 248.173 160.772C246.687 160.196 246.102 160.044 245.846 160.539C245.59 161.033 246.058 161.356 247.143 162.176Z" fill="#EEEFFF"/>
<path d="M251.652 148.982C250.377 146.392 247.863 145.243 245.122 144.334C240.376 142.766 231.401 140.639 227.205 141.27C226.018 141.371 224.876 141.77 223.884 142.429C222.892 143.088 222.081 143.986 221.528 145.041C219.362 149.062 217.779 161.822 216.84 166.251C216.81 166.399 216.839 166.554 216.921 166.681C217.004 166.809 217.132 166.899 217.28 166.933C217.428 166.967 217.583 166.943 217.713 166.864C217.843 166.786 217.937 166.66 217.975 166.513C222.521 148.612 220.994 142.422 230.115 143.149C230.158 143.622 230.312 144.078 230.564 144.481C230.815 144.883 231.158 145.221 231.564 145.467C233.726 146.481 235.997 147.244 238.332 147.74C240.656 148.234 244.502 148.657 245.611 146.553C246.568 146.878 247.476 147.335 248.307 147.909C252.392 150.909 249.904 156.16 249.011 160.611C248.975 160.775 249.004 160.946 249.093 161.088C249.183 161.23 249.324 161.331 249.487 161.369C249.65 161.408 249.822 161.38 249.965 161.293C250.108 161.206 250.211 161.066 250.252 160.903C251.219 157.303 253.53 152.975 251.652 148.982Z" fill="#EEEFFF"/>
<path d="M216.485 168.92C214.456 169.447 212.538 170.334 210.822 171.539C201.937 178.506 206.597 189.869 209.575 200.071C209.968 201.361 208.795 203.066 208.558 204.676C208.531 204.839 208.569 205.006 208.663 205.142C208.757 205.277 208.9 205.371 209.062 205.404C209.224 205.436 209.392 205.404 209.531 205.315C209.67 205.226 209.769 205.086 209.807 204.925C210.06 203.931 210.839 202.836 211.205 201.583C211.49 200.223 211.339 198.808 210.773 197.539C208.348 188.631 204.798 179.245 211.987 172.949C213.507 171.764 215.169 170.773 216.935 170C217.075 169.939 217.187 169.825 217.244 169.682C217.302 169.54 217.301 169.381 217.242 169.239C217.183 169.097 217.07 168.984 216.929 168.925C216.787 168.865 216.628 168.863 216.485 168.92Z" fill="#EEEFFF"/>
<path d="M233.254 206.209C233.085 207.014 232.037 211.027 233.239 211.244C234.002 211.389 234.447 209.788 234.632 209.041C234.837 208.219 235.725 204.295 235.797 203.727C235.866 203.112 235.966 201.852 235.378 201.693C234.249 201.396 233.496 205.087 233.254 206.209Z" fill="#EEEFFF"/>
<path d="M214.602 183.331C214.865 183.596 216.435 185.238 216.872 185.68C220.804 189.608 223.286 192.538 224.721 197.981C225.018 199 225.245 200.038 225.399 201.088C225.406 201.257 225.479 201.416 225.602 201.53C225.726 201.645 225.89 201.706 226.059 201.7C226.227 201.694 226.386 201.621 226.501 201.497C226.616 201.373 226.677 201.209 226.671 201.041C226.888 197.16 225.733 193.326 223.406 190.213C221.917 188.017 220.135 186.034 218.109 184.321C217.229 183.622 216.3 182.984 215.331 182.414C215.271 182.366 215.202 182.331 215.128 182.31C215.054 182.288 214.977 182.282 214.9 182.291C214.824 182.3 214.75 182.323 214.683 182.361C214.615 182.398 214.556 182.448 214.508 182.508C214.46 182.568 214.425 182.638 214.404 182.711C214.382 182.785 214.376 182.863 214.385 182.939C214.394 183.016 214.417 183.09 214.455 183.157C214.492 183.224 214.542 183.283 214.602 183.331Z" fill="#EEEFFF"/>
<path d="M183.709 257.062C184.277 258.418 185.43 257.832 185.591 257.172C186.099 255.121 186.811 252.426 187.881 248.867C191.062 238.312 195.061 228.018 198.344 217.492C203.041 218.118 207.699 219.01 212.295 220.164C220.738 221.802 229.072 223.957 237.251 226.615C232.432 253.657 224.557 272.719 222.809 278.397C222.766 278.556 222.786 278.726 222.865 278.87C222.944 279.015 223.076 279.124 223.233 279.173C223.391 279.222 223.561 279.209 223.709 279.135C223.856 279.062 223.97 278.934 224.025 278.778C226.243 271.863 233.996 254.155 239.125 226.172C239.163 225.965 239.125 225.751 239.018 225.569C238.911 225.387 238.742 225.25 238.542 225.182C230.079 222.321 221.435 220.026 212.667 218.313C209.465 217.663 206.349 216.838 203.09 216.231C203.786 213.242 204.685 210.304 205.781 207.437C209.06 208.524 212.392 208.931 215.662 209.736C222.791 211.466 227.457 212.683 235.178 214.434C234.241 217.274 233.873 219.562 232.92 222.245C232.875 222.399 232.89 222.564 232.961 222.707C233.032 222.851 233.154 222.962 233.304 223.019C233.453 223.077 233.619 223.075 233.768 223.016C233.917 222.957 234.037 222.844 234.107 222.699C235.269 219.818 236.381 216.353 237.288 214.075C237.335 213.949 237.354 213.814 237.344 213.68C237.334 213.546 237.296 213.416 237.232 213.298C237.168 213.18 237.079 213.077 236.972 212.995C236.865 212.914 236.741 212.857 236.61 212.828C204.158 205.112 213.707 207.482 208.585 206.241C205.373 205.459 205.4 205.085 204.786 205.373C204.672 205.428 204.571 205.505 204.487 205.6C204.403 205.695 204.34 205.805 204.3 205.926C203.178 209.207 202.369 212.587 201.885 216.021C200.503 215.787 199.11 215.624 197.712 215.531C197.497 215.519 197.285 215.58 197.108 215.703C196.932 215.825 196.802 216.004 196.739 216.209C192.479 229.983 182.979 255.328 183.709 257.062Z" fill="#EEEFFF"/>
<path d="M72.9934 242.346C69.4424 244.795 65.6303 247.121 62.0471 249.677C61.8932 249.787 61.7132 249.855 61.5249 249.875C61.3366 249.895 61.1465 249.865 60.9731 249.789C60.7998 249.713 60.6492 249.593 60.5362 249.441C60.4231 249.289 60.3515 249.11 60.3284 248.923C59.0758 238.522 57.4977 229.974 56.5028 216.767C56.4965 216.599 56.5551 216.435 56.6663 216.308C56.7776 216.182 56.933 216.104 57.1006 216.089C57.2681 216.074 57.4349 216.124 57.5666 216.229C57.6982 216.334 57.7846 216.485 57.8079 216.652C58.6792 224.811 60.6589 234.659 62.2624 246.86C66.3914 244.014 70.4781 241.558 74.3647 238.659C74.5512 238.521 74.7766 238.445 75.0088 238.443C75.2409 238.441 75.4679 238.511 75.6573 238.646C75.8468 238.78 75.989 238.97 76.0637 239.19C76.1384 239.41 76.1417 239.648 76.0732 239.87C74.3189 245.451 71.9883 252.724 70.4611 257.877C76.28 262.633 87.6874 266.142 99.5439 277.641C99.6707 277.773 99.7416 277.95 99.742 278.133C99.7424 278.316 99.6722 278.493 99.546 278.626C99.4198 278.759 99.2472 278.838 99.0641 278.847C98.881 278.856 98.7014 278.795 98.5625 278.675C93.13 273.975 87.1921 269.893 80.8582 266.505C76.8038 264.206 72.0595 262.184 68.4847 259.072C68.3258 258.937 68.2093 258.758 68.1492 258.558C68.089 258.358 68.0878 258.144 68.1457 257.943C69.8204 252.34 71.2798 247.801 72.9934 242.346Z" fill="#EEEFFF"/>
<path d="M123.682 229.044C121.411 223.728 118.808 217.901 115.187 208.939C115.154 208.86 115.136 208.775 115.136 208.69C115.135 208.604 115.151 208.519 115.184 208.439C115.216 208.36 115.263 208.287 115.324 208.226C115.384 208.165 115.456 208.117 115.535 208.083C115.614 208.05 115.698 208.032 115.784 208.032C115.87 208.031 115.955 208.047 116.034 208.08C116.114 208.112 116.186 208.16 116.247 208.22C116.309 208.28 116.357 208.352 116.391 208.431C119.565 215.623 122.072 219.765 126.369 229.839C126.441 230.009 126.468 230.196 126.448 230.38C126.427 230.564 126.36 230.74 126.252 230.89C126.144 231.041 126 231.161 125.832 231.24C125.664 231.319 125.479 231.353 125.294 231.34C122.047 231.117 119.077 230.789 115.87 230.72C119.205 233.659 122.331 236.826 125.228 240.197C125.369 240.351 125.463 240.543 125.499 240.749C125.534 240.955 125.51 241.167 125.43 241.359C120.44 253.282 111.77 265.273 107.168 273.788C107.078 273.952 106.927 274.074 106.748 274.127C106.569 274.181 106.376 274.162 106.211 274.075C106.046 273.988 105.921 273.84 105.864 273.662C105.807 273.484 105.822 273.291 105.905 273.124C112.473 260.181 118.397 252.148 123.137 241.144C119.814 237.273 116.138 233.72 112.155 230.532C111.976 230.395 111.844 230.206 111.777 229.992C111.709 229.777 111.709 229.547 111.776 229.332C111.843 229.118 111.975 228.929 112.153 228.792C112.331 228.654 112.547 228.575 112.772 228.564C116.415 228.49 120.06 228.651 123.682 229.044Z" fill="#EEEFFF"/>
<path d="M107.373 155.523C112.575 149.082 111.19 139.614 104.739 136.517C103.902 136.128 103.031 135.819 102.136 135.595C106.468 126.705 98.2625 118.575 89.0603 120.618C88.8522 119.406 88.5368 118.215 88.1179 117.058C87.5867 115.65 86.721 114.393 85.5955 113.394C84.4699 112.395 83.1184 111.685 81.6573 111.324C80.1962 110.964 78.6694 110.964 77.2085 111.326C75.7476 111.687 74.3964 112.398 73.2714 113.397C72.457 112.628 71.5619 111.95 70.6018 111.373C64.8557 108.046 58.9368 112.56 57.6317 118.75C52.3026 117.36 44.5005 123.096 43.2021 130.569C42.9426 131.811 42.9475 133.093 43.2164 134.333C43.4854 135.573 44.0124 136.742 44.7632 137.765C37.8968 141.494 35.8458 153.272 42.8987 157.53C39.6019 162.344 40.2782 169.81 46.0531 171.653C45.6191 173.107 45.571 174.65 45.9135 176.129C46.2561 177.607 46.9774 178.972 48.0067 180.087C49.036 181.203 50.3379 182.032 51.7844 182.492C53.2309 182.952 54.7722 183.028 56.257 182.713C57.1808 187.865 63.2065 190.125 67.8949 188.46C69.4017 196.718 70.1848 198.929 71.3103 203.468C71.3541 203.65 71.4676 203.808 71.6265 203.907C71.7855 204.007 71.9771 204.04 72.1601 203.999C72.3431 203.959 72.503 203.848 72.6053 203.691C72.7076 203.534 72.7441 203.343 72.707 203.159C69.4017 186.099 69.656 186.706 68.1017 176.114C68.0574 175.825 67.9003 175.565 67.6649 175.392C67.4294 175.218 67.1349 175.145 66.8457 175.188C64.7201 175.527 61.4471 175.127 59.9911 173.622C58.5131 170.831 60.6691 166.715 63.4828 165.586C66.8728 164.22 66.927 159.544 64.7066 156.933C65.1434 156.047 65.3646 155.07 65.3522 154.082C65.3398 153.094 65.0942 152.123 64.6354 151.248C66.1356 150.853 67.4714 149.991 68.4499 148.787C69.4284 147.583 69.9992 146.099 70.0797 144.55C71.6859 145.322 73.5117 145.507 75.2403 145.074C76.969 144.64 78.4912 143.615 79.5429 142.177C80.4266 143.358 81.598 144.294 82.9456 144.895C84.2932 145.496 85.7721 145.741 87.2416 145.609C86.8132 147.101 86.8091 148.683 87.2297 150.177C87.6504 151.671 88.4792 153.018 89.6231 154.067C88.2518 157.828 89.657 160.271 90.7198 160.374C94.4318 160.755 98.5405 164.469 96.3421 168.1C95.0281 169.592 93.3103 170.672 91.3961 171.21C91.1692 171.298 90.9783 171.46 90.8539 171.669C90.7295 171.878 90.6787 172.123 90.7096 172.365C90.8164 173.212 90.935 174.06 91.0367 174.907C91.274 180.456 91.1842 187.323 87.5043 191.413C86.5874 192.545 85.3112 193.329 83.8872 193.637C81.9117 193.944 79.8908 193.757 78.0056 193.091C76.2122 192.623 75.8156 192.552 75.5546 193.023C75.1563 193.738 76.7733 194.747 77.2496 195.001C79.81 196.166 82.7161 196.321 85.3856 195.433L86.7416 200.659C86.7603 200.751 86.7969 200.838 86.8493 200.916C86.9017 200.994 86.9689 201.06 87.0471 201.112C87.1252 201.164 87.2128 201.199 87.3047 201.217C87.3967 201.235 87.4913 201.235 87.5832 201.216C87.675 201.197 87.7622 201.161 87.8399 201.108C87.9176 201.056 87.9841 200.989 88.0359 200.911C88.0876 200.832 88.1234 200.745 88.1412 200.653C88.1591 200.561 88.1587 200.466 88.14 200.374L87.1586 194.464C92.1046 191.128 93.225 184.787 93.2979 178.804C100.515 180.445 105.627 175.463 104.305 171.515C112.906 167.025 112.378 158.537 107.373 155.523ZM56.0739 126.216C51.3144 128.759 50.1296 135.312 53.4975 140.309C53.5823 140.435 53.64 140.578 53.6668 140.727C53.6936 140.877 53.689 141.031 53.6533 141.179C53.6176 141.326 53.5516 141.465 53.4594 141.586C53.3672 141.707 53.2509 141.808 53.1179 141.882C49.5363 143.853 46.7616 147.645 49.0211 151.113C49.1262 151.249 49.1731 151.421 49.1517 151.592C49.1303 151.763 49.0423 151.918 48.9068 152.025C48.7713 152.131 48.5993 152.179 48.4283 152.159C48.2573 152.139 48.1012 152.052 47.9939 151.918C44.453 148.124 46.743 143.47 51.0805 140.561C47.9718 134.949 48.9702 127.306 55.4875 124.916C55.6585 124.847 55.85 124.846 56.0215 124.915C56.193 124.983 56.3313 125.115 56.4073 125.284C56.4832 125.452 56.4909 125.643 56.4288 125.817C56.3666 125.991 56.2394 126.134 56.0739 126.216ZM63.8184 119.57C63.1693 120.472 62.6596 121.466 62.3065 122.52C62.1793 122.843 61.5522 124.125 60.9352 124.03C60.3182 123.935 60.0877 122.579 60.347 121.593C60.6883 120.318 61.3486 119.151 62.2658 118.203C62.4353 118.06 63.6608 117.197 64.1693 117.723C64.5557 118.114 64.31 118.686 63.8184 119.57Z" fill="#EEEFFF"/>
<path d="M312.844 108.929C312.766 109.329 312.805 109.124 312.675 109.856C314.972 109.902 315.778 109 312.844 108.929Z" fill="#8B80F9"/>
<path d="M315.278 112.746C314.264 112.48 313.22 112.338 312.172 112.324C311.958 113.341 311.868 113.779 311.61 114.867C313.007 115.185 314.466 115.085 315.806 114.579C316.548 114.131 316.051 113.017 315.278 112.746Z" fill="#8B80F9"/>
<path d="M322.464 107.821C321.676 106.194 320.446 104.822 318.914 103.862C317.383 102.902 315.612 102.393 313.805 102.393C311.997 102.393 310.226 102.902 308.695 103.862C307.164 104.822 305.934 106.194 305.146 107.821C304.272 109.716 303.964 111.823 304.258 113.89C304.552 115.956 305.436 117.894 306.804 119.47C307.669 120.481 308.743 121.292 309.952 121.848C311.161 122.404 312.476 122.692 313.806 122.692C315.137 122.692 316.452 122.404 317.661 121.848C318.869 121.292 319.944 120.481 320.809 119.47C322.178 117.894 323.062 115.956 323.356 113.89C323.649 111.823 323.339 109.715 322.464 107.821ZM316.965 116.657C316.068 117.096 315.063 117.268 314.07 117.152C314.026 117.636 313.912 118.111 313.731 118.562C313.331 119.675 312.205 119.409 312.128 118.392C312.066 117.852 312.081 117.306 312.173 116.77C311.541 116.584 310.936 116.36 310.4 116.152C310.041 116.048 309.817 115.757 309.892 115.158C309.96 112.577 310.225 110.005 310.683 107.465C310.741 107.194 310.891 106.951 311.107 106.777C311.323 106.603 311.593 106.509 311.87 106.51C312.209 106.51 312.648 106.499 313.112 106.51C313.173 105.8 313.58 104.319 314.299 104.366C315.017 104.414 315.255 106.049 315.201 106.778C315.621 106.873 316.01 107.073 316.333 107.358C316.655 107.644 316.9 108.006 317.045 108.412C317.198 108.797 317.261 109.212 317.229 109.625C317.197 110.038 317.071 110.439 316.86 110.795C317.384 111.079 317.824 111.497 318.134 112.007C318.444 112.516 318.612 113.099 318.623 113.695C318.634 114.292 318.486 114.88 318.195 115.4C317.903 115.921 317.479 116.354 316.965 116.657Z" fill="#8B80F9"/>
<path d="M240.793 105.978V105.91C239.859 105.842 238.927 106.066 238.125 106.55C237.323 107.034 236.691 107.755 236.316 108.613C235.941 109.471 235.842 110.425 236.031 111.342C236.221 112.259 236.69 113.095 237.375 113.735C237.822 114.186 238.355 114.544 238.942 114.788C239.528 115.033 240.158 115.159 240.793 115.159C241.429 115.159 242.058 115.033 242.645 114.788C243.232 114.544 243.765 114.186 244.212 113.735C244.902 113.103 245.376 112.27 245.568 111.355C245.76 110.439 245.661 109.487 245.284 108.631C244.906 107.775 244.27 107.058 243.465 106.583C242.659 106.107 241.725 105.895 240.793 105.978Z" fill="#8B80F9"/>
<path d="M169.529 187.838C169.453 188.238 169.49 188.031 169.359 188.765C171.656 188.815 172.46 187.909 169.529 187.838Z" fill="#8B80F9"/>
<path d="M171.965 191.655C170.95 191.389 169.907 191.247 168.858 191.233C168.642 192.25 168.553 192.688 168.295 193.776C169.691 194.095 171.151 193.994 172.49 193.486C173.229 193.04 172.736 191.925 171.965 191.655Z" fill="#8B80F9"/>
<path d="M179.15 186.728C178.361 185.102 177.131 183.731 175.599 182.771C174.068 181.812 172.297 181.303 170.49 181.303C168.683 181.303 166.912 181.812 165.381 182.771C163.849 183.731 162.619 185.102 161.83 186.728C160.956 188.624 160.648 190.731 160.942 192.798C161.236 194.865 162.12 196.803 163.488 198.379C164.354 199.389 165.428 200.2 166.637 200.756C167.846 201.312 169.16 201.6 170.491 201.6C171.821 201.6 173.136 201.312 174.345 200.756C175.553 200.2 176.628 199.389 177.494 198.379C178.861 196.802 179.745 194.864 180.039 192.798C180.333 190.731 180.024 188.624 179.15 186.728ZM173.648 195.566C172.75 196.006 171.745 196.177 170.753 196.059C170.708 196.543 170.594 197.019 170.414 197.471C170.014 198.584 168.888 198.318 168.812 197.301C168.75 196.761 168.765 196.215 168.856 195.679C168.224 195.493 167.62 195.269 167.083 195.061C166.724 194.955 166.5 194.666 166.574 194.066C166.645 191.485 166.909 188.914 167.366 186.374C167.424 186.102 167.574 185.859 167.79 185.685C168.006 185.511 168.275 185.417 168.553 185.418C168.892 185.418 169.331 185.408 169.795 185.418C169.856 184.708 170.263 183.226 170.981 183.274C171.7 183.321 171.937 184.955 171.885 185.686C172.305 185.781 172.694 185.98 173.016 186.265C173.338 186.551 173.584 186.913 173.729 187.318C173.882 187.703 173.945 188.118 173.913 188.531C173.88 188.944 173.754 189.344 173.543 189.701C174.068 189.985 174.508 190.403 174.819 190.913C175.129 191.423 175.298 192.006 175.309 192.603C175.319 193.199 175.171 193.788 174.879 194.309C174.587 194.83 174.162 195.263 173.648 195.566Z" fill="#8B80F9"/>
<path d="M278.361 172.392C278.28 172.815 278.321 172.597 278.177 173.375C280.614 173.422 281.463 172.468 278.361 172.392Z" fill="#8B80F9"/>
<path d="M280.939 176.441C279.865 176.158 278.76 176.009 277.649 175.995C277.424 177.065 277.327 177.534 277.054 178.68C278.533 179.018 280.078 178.912 281.497 178.375C282.282 177.9 281.758 176.721 280.939 176.441Z" fill="#8B80F9"/>
<path d="M288.548 171.217C287.714 169.495 286.411 168.043 284.789 167.026C283.167 166.01 281.292 165.471 279.378 165.471C277.465 165.471 275.589 166.01 273.968 167.026C272.346 168.043 271.043 169.495 270.208 171.217C269.282 173.225 268.955 175.458 269.267 177.647C269.578 179.837 270.515 181.89 271.964 183.56C272.881 184.63 274.019 185.489 275.299 186.078C276.579 186.667 277.971 186.972 279.38 186.972C280.789 186.972 282.181 186.667 283.461 186.078C284.741 185.489 285.879 184.63 286.796 183.56C288.247 181.891 289.184 179.837 289.495 177.647C289.806 175.457 289.477 173.224 288.548 171.217ZM282.724 180.575C281.774 181.04 280.709 181.222 279.658 181.099C279.612 181.611 279.493 182.114 279.304 182.592C278.88 183.779 277.688 183.496 277.609 182.406C277.542 181.834 277.558 181.256 277.656 180.689C276.987 180.49 276.346 180.255 275.778 180.033C275.398 179.923 275.161 179.614 275.232 178.98C275.309 176.247 275.592 173.524 276.08 170.834C276.14 170.547 276.297 170.289 276.525 170.104C276.753 169.919 277.037 169.817 277.331 169.817C277.694 169.817 278.155 169.805 278.646 169.817C278.711 169.064 279.141 167.495 279.9 167.546C280.66 167.596 280.917 169.327 280.855 170.1C281.299 170.201 281.711 170.412 282.052 170.714C282.394 171.016 282.653 171.4 282.807 171.829C282.969 172.237 283.035 172.676 283.001 173.114C282.967 173.551 282.833 173.975 282.611 174.353C283.171 174.651 283.642 175.093 283.974 175.634C284.306 176.175 284.487 176.795 284.499 177.43C284.511 178.065 284.353 178.691 284.041 179.244C283.729 179.797 283.275 180.257 282.726 180.575H282.724Z" fill="#8B80F9"/>
<path d="M127.147 140.297C128.471 140.014 128.403 139.678 128.225 139.163C128.184 139.044 128.03 139.036 127.886 138.98C126.927 138.719 125.935 138.605 124.942 138.641L124.56 140.441C125.425 140.501 126.294 140.452 127.147 140.297Z" fill="#8B80F9"/>
<path d="M128.791 143.48C127.282 143.089 125.729 142.896 124.171 142.904C123.979 142.894 124.128 142.477 123.254 146.599C125.074 146.901 127.973 147.233 129.573 146.326C130.951 145.6 130.076 143.897 128.791 143.48Z" fill="#8B80F9"/>
<path d="M137.907 137.487C133.28 128.73 119.901 128.756 115.302 137.487C114.309 139.423 113.83 141.582 113.911 143.757C113.992 145.932 114.631 148.049 115.765 149.906C116.9 151.763 118.493 153.298 120.391 154.362C122.289 155.427 124.428 155.986 126.605 155.986C128.781 155.986 130.921 155.427 132.819 154.362C134.717 153.298 136.31 151.763 137.444 149.906C138.579 148.049 139.217 145.932 139.298 143.757C139.379 141.582 138.9 139.423 137.907 137.487ZM130.666 148.453C129.41 149.006 128.028 149.205 126.667 149.029C126.679 150.002 126.244 151.902 125.323 151.796C124.403 151.689 124.399 149.672 124.744 148.685C123.786 148.453 122.866 148.151 122.057 147.875C121.665 147.773 121.413 147.416 121.562 146.824C121.76 143.577 122.169 140.346 122.788 137.153C122.849 136.887 122.999 136.651 123.212 136.481C123.424 136.311 123.688 136.218 123.96 136.217C124.511 136.217 125.245 136.2 126.01 136.232C126.217 132.129 128.537 132.693 128.076 136.475C128.618 136.55 129.132 136.763 129.568 137.094C130.004 137.426 130.347 137.864 130.564 138.366C130.785 138.857 130.867 139.399 130.799 139.932C130.731 140.466 130.517 140.971 130.179 141.39C132.988 142.819 133.922 146.812 130.666 148.453Z" fill="#8B80F9"/>
<path d="M247.043 52.2195C248.809 51.8433 248.717 51.3958 248.48 50.7076C248.428 50.55 248.223 50.5381 248.031 50.4652C246.753 50.1132 245.429 49.9577 244.104 50.0042L243.595 52.4043C244.748 52.4879 245.906 52.4259 247.043 52.2195Z" fill="#8B80F9"/>
<path d="M249.236 56.4638C247.223 55.9441 245.152 55.6866 243.073 55.6977C242.817 55.6841 243.017 55.1282 241.851 60.6251C244.278 61.0268 248.145 61.4726 250.279 60.2606C252.118 59.2945 250.95 57.0164 249.236 56.4638Z" fill="#8B80F9"/>
<path d="M261.394 48.4685C255.221 36.7899 237.38 36.8238 231.245 48.4685C229.917 51.0524 229.275 53.9343 229.381 56.8378C229.487 59.7412 230.338 62.5686 231.852 65.0486C233.365 67.5285 235.491 69.5778 238.024 70.9998C240.558 72.4217 243.415 73.1685 246.32 73.1685C249.225 73.1685 252.082 72.4217 254.615 70.9998C257.149 69.5778 259.275 67.5285 260.788 65.0486C262.302 62.5686 263.152 59.7412 263.259 56.8378C263.365 53.9343 262.723 51.0524 261.394 48.4685ZM251.733 63.0963C250.058 63.8327 248.213 64.0976 246.399 63.8625C246.414 65.1609 245.833 67.6949 244.605 67.5525C243.378 67.4101 243.375 64.7202 243.834 63.4048C242.554 63.0946 241.329 62.6929 240.249 62.3234C239.727 62.1878 239.392 61.7115 239.59 60.9234C239.853 56.5928 240.399 52.2841 241.222 48.0244C241.304 47.6703 241.504 47.3544 241.788 47.128C242.072 46.9015 242.425 46.7778 242.788 46.7769C243.522 46.7769 244.502 46.7532 245.521 46.7955C245.795 41.3241 248.892 42.0767 248.278 47.1193C249.001 47.2195 249.686 47.5043 250.267 47.946C250.847 48.3878 251.304 48.9717 251.594 49.6414C251.89 50.2952 251.999 51.0182 251.91 51.7303C251.82 52.4424 251.534 53.1157 251.085 53.6755C254.833 55.5875 256.081 60.9098 251.738 63.0997L251.733 63.0963Z" fill="#8B80F9"/>
<path d="M140.227 61.4657C141.983 61.0912 141.892 60.6471 141.656 59.9623C141.604 59.8047 141.399 59.7928 141.21 59.7216C139.942 59.3729 138.627 59.2186 137.312 59.2639L136.803 61.6488C137.948 61.7308 139.098 61.6693 140.227 61.4657Z" fill="#8B80F9"/>
<path d="M142.407 65.6846C140.407 65.167 138.348 64.9106 136.281 64.9218C136.027 64.9066 136.225 64.3557 135.068 69.8187C137.48 70.2187 141.322 70.6662 143.443 69.456C145.27 68.4966 144.111 66.2321 142.407 65.6846Z" fill="#8B80F9"/>
<path d="M154.491 57.7402C148.355 46.1328 130.623 46.1667 124.528 57.7402C123.211 60.307 122.576 63.1693 122.683 66.0523C122.79 68.9353 123.636 71.7425 125.14 74.2045C126.644 76.6665 128.756 78.7008 131.272 80.1122C133.788 81.5237 136.625 82.265 139.51 82.265C142.395 82.265 145.231 81.5237 147.747 80.1122C150.264 78.7008 152.375 76.6665 153.879 74.2045C155.383 71.7425 156.229 68.9353 156.336 66.0523C156.443 63.1693 155.808 60.307 154.491 57.7402ZM144.892 72.2782C143.228 73.0102 141.395 73.2739 139.592 73.0409C139.607 74.3308 139.031 76.8496 137.81 76.7072C136.59 76.5648 136.586 73.8918 137.042 72.585C135.773 72.2765 134.552 71.8782 133.483 71.5104C132.963 71.3748 132.635 70.9019 132.827 70.1188C133.089 65.8149 133.631 61.5327 134.451 57.2995C134.532 56.9476 134.73 56.6335 135.012 56.4083C135.294 56.183 135.644 56.0598 136.005 56.0587C136.736 56.0587 137.7 56.035 138.717 56.0774C138.992 50.6398 142.068 51.3873 141.458 56.3994C142.176 56.4995 142.856 56.7826 143.434 57.2217C144.011 57.6607 144.465 58.2409 144.753 58.9063C145.047 59.5563 145.154 60.2749 145.065 60.9825C144.975 61.69 144.691 62.3589 144.244 62.915C147.973 64.8083 149.209 70.1018 144.892 72.2782Z" fill="#8B80F9"/>
<path d="M216.552 94.1182V94.0504C215.618 93.9829 214.686 94.2065 213.884 94.6905C213.083 95.1745 212.451 95.895 212.076 96.7529C211.701 97.6108 211.602 98.5638 211.791 99.4807C211.98 100.398 212.449 101.233 213.133 101.873C213.58 102.324 214.113 102.683 214.7 102.927C215.286 103.172 215.916 103.298 216.552 103.298C217.187 103.298 217.817 103.172 218.403 102.927C218.99 102.683 219.523 102.324 219.97 101.873C220.659 101.241 221.133 100.409 221.325 99.4935C221.516 98.5783 221.417 97.6261 221.04 96.7705C220.662 95.915 220.027 95.199 219.222 94.7233C218.417 94.2476 217.483 94.036 216.552 94.1182Z" fill="#8B80F9"/>
<path d="M164.657 50.1516V50.0838C163.723 50.0162 162.791 50.2399 161.99 50.7241C161.188 51.2083 160.556 51.9292 160.182 52.7874C159.807 53.6456 159.707 54.5989 159.897 55.5159C160.087 56.433 160.556 57.2687 161.24 57.908C161.688 58.3592 162.22 58.7174 162.807 58.9619C163.394 59.2063 164.023 59.3322 164.659 59.3322C165.295 59.3322 165.924 59.2063 166.511 58.9619C167.098 58.7174 167.63 58.3592 168.078 57.908C168.767 57.2754 169.24 56.4431 169.432 55.5278C169.623 54.6125 169.523 53.6602 169.146 52.8046C168.769 51.949 168.133 51.233 167.328 50.7572C166.523 50.2814 165.589 50.0696 164.657 50.1516Z" fill="#8B80F9"/>
<path d="M207.468 33.505V33.4372C206.534 33.3697 205.602 33.5933 204.801 34.0773C204 34.5612 203.368 35.2818 202.993 36.1397C202.618 36.9976 202.518 37.9506 202.707 38.8675C202.897 39.7845 203.365 40.6202 204.049 41.2596C204.497 41.7111 205.029 42.0695 205.616 42.3141C206.203 42.5587 206.832 42.6846 207.468 42.6846C208.104 42.6846 208.733 42.5587 209.32 42.3141C209.907 42.0695 210.439 41.7111 210.887 41.2596C211.576 40.6275 212.049 39.7954 212.241 38.8803C212.433 37.9651 212.333 37.0129 211.956 36.1573C211.579 35.3017 210.943 34.5858 210.138 34.1101C209.333 33.6344 208.399 33.4228 207.468 33.505Z" fill="#8B80F9"/>
<path d="M173.014 92.5775V92.5097C172.08 92.4411 171.147 92.6641 170.345 93.1479C169.543 93.6317 168.911 94.3525 168.536 95.2108C168.16 96.0691 168.061 97.0227 168.251 97.94C168.44 98.8573 168.91 99.6931 169.595 100.332C170.042 100.784 170.575 101.142 171.162 101.387C171.749 101.631 172.378 101.757 173.014 101.757C173.649 101.757 174.279 101.631 174.866 101.387C175.452 101.142 175.985 100.784 176.433 100.332C177.121 99.7 177.595 98.8679 177.787 97.9527C177.979 97.0376 177.879 96.0854 177.502 95.2298C177.125 94.3742 176.489 93.6583 175.684 93.1826C174.879 92.7069 173.945 92.4953 173.014 92.5775Z" fill="#8B80F9"/>
<path d="M189.598 159.55V159.491C188.663 159.422 187.731 159.645 186.929 160.129C186.127 160.613 185.494 161.334 185.119 162.192C184.744 163.05 184.645 164.004 184.834 164.921C185.024 165.839 185.494 166.674 186.179 167.313C186.626 167.765 187.159 168.123 187.746 168.368C188.332 168.612 188.962 168.738 189.598 168.738C190.233 168.738 190.863 168.612 191.45 168.368C192.036 168.123 192.569 167.765 193.016 167.313C193.709 166.682 194.186 165.849 194.379 164.932C194.573 164.016 194.474 163.061 194.097 162.203C193.719 161.346 193.082 160.628 192.274 160.152C191.467 159.676 190.531 159.466 189.598 159.55Z" fill="#8B80F9"/>
<path d="M301.437 70.334V70.2662C300.503 70.1986 299.571 70.4223 298.77 70.9065C297.968 71.3907 297.336 72.1115 296.961 72.9697C296.587 73.8279 296.487 74.7812 296.677 75.6983C296.866 76.6154 297.336 77.4511 298.02 78.0903C298.468 78.5416 299 78.8998 299.587 79.1443C300.174 79.3887 300.803 79.5146 301.439 79.5146C302.074 79.5146 302.704 79.3887 303.291 79.1443C303.877 78.8998 304.41 78.5416 304.858 78.0903C305.546 77.4578 306.02 76.6255 306.211 75.7102C306.403 74.7949 306.303 73.8426 305.926 72.987C305.548 72.1314 304.913 71.4154 304.107 70.9396C303.302 70.4638 302.369 70.252 301.437 70.334Z" fill="#8B80F9"/>
<path d="M327.535 150.038V149.97C326.601 149.902 325.668 150.125 324.866 150.608C324.064 151.092 323.432 151.813 323.057 152.671C322.682 153.53 322.582 154.483 322.772 155.4C322.962 156.318 323.431 157.154 324.116 157.793C324.564 158.244 325.097 158.602 325.683 158.847C326.27 159.091 326.899 159.217 327.535 159.217C328.171 159.217 328.8 159.091 329.387 158.847C329.974 158.602 330.506 158.244 330.954 157.793C331.643 157.16 332.116 156.328 332.308 155.413C332.5 154.498 332.4 153.546 332.023 152.69C331.646 151.835 331.01 151.119 330.205 150.643C329.4 150.167 328.466 149.956 327.535 150.038Z" fill="#8B80F9"/>
<path d="M269.3 207.12V207.053C268.366 206.985 267.434 207.209 266.633 207.693C265.831 208.177 265.2 208.897 264.825 209.755C264.45 210.613 264.35 211.566 264.539 212.483C264.728 213.4 265.197 214.236 265.881 214.875C266.329 215.326 266.861 215.685 267.448 215.929C268.035 216.173 268.664 216.299 269.3 216.299C269.936 216.299 270.565 216.173 271.152 215.929C271.739 215.685 272.271 215.326 272.719 214.875C273.408 214.243 273.881 213.411 274.073 212.496C274.265 211.581 274.165 210.628 273.788 209.773C273.411 208.917 272.775 208.201 271.97 207.726C271.165 207.25 270.231 207.038 269.3 207.12Z" fill="#8B80F9"/>
<path d="M312.107 177.783V177.716C311.173 177.647 310.241 177.871 309.439 178.355C308.637 178.839 308.005 179.559 307.63 180.418C307.255 181.276 307.156 182.229 307.346 183.146C307.536 184.063 308.005 184.899 308.69 185.538C309.138 185.99 309.67 186.348 310.257 186.592C310.844 186.837 311.473 186.963 312.109 186.963C312.745 186.963 313.374 186.837 313.961 186.592C314.548 186.348 315.08 185.99 315.528 185.538C316.216 184.905 316.688 184.073 316.88 183.158C317.071 182.243 316.971 181.291 316.593 180.436C316.216 179.581 315.581 178.865 314.776 178.39C313.972 177.914 313.038 177.702 312.107 177.783Z" fill="#8B80F9"/>
<path d="M151.547 158.286V158.218C150.612 158.15 149.68 158.373 148.878 158.858C148.076 159.342 147.444 160.062 147.069 160.921C146.694 161.779 146.595 162.732 146.784 163.65C146.974 164.567 147.443 165.403 148.128 166.042C148.575 166.493 149.108 166.852 149.695 167.096C150.282 167.341 150.911 167.466 151.547 167.466C152.182 167.466 152.812 167.341 153.398 167.096C153.985 166.852 154.518 166.493 154.965 166.042C155.655 165.41 156.129 164.578 156.321 163.662C156.514 162.747 156.414 161.794 156.037 160.938C155.659 160.082 155.023 159.366 154.218 158.89C153.413 158.415 152.478 158.203 151.547 158.286Z" fill="#8B80F9"/>
<path d="M226.92 79.2531V79.1853C225.986 79.1177 225.054 79.3413 224.253 79.8253C223.451 80.3093 222.82 81.0298 222.445 81.8877C222.07 82.7456 221.97 83.6986 222.159 84.6156C222.348 85.5325 222.817 86.3682 223.501 87.0077C223.949 87.4592 224.481 87.8176 225.068 88.0621C225.655 88.3067 226.284 88.4326 226.92 88.4326C227.556 88.4326 228.185 88.3067 228.772 88.0621C229.359 87.8176 229.891 87.4592 230.339 87.0077C231.028 86.3755 231.501 85.5434 231.693 84.6283C231.885 83.7132 231.785 82.7609 231.408 81.9054C231.031 81.0498 230.395 80.3339 229.59 79.8582C228.785 79.3824 227.851 79.1708 226.92 79.2531Z" fill="#8B80F9"/>
<path d="M272.048 99.6677V99.5999C271.114 99.5323 270.182 99.7559 269.38 100.24C268.579 100.724 267.947 101.444 267.572 102.302C267.197 103.16 267.098 104.113 267.287 105.03C267.476 105.947 267.945 106.783 268.629 107.422C269.076 107.874 269.609 108.232 270.196 108.477C270.783 108.721 271.412 108.847 272.048 108.847C272.684 108.847 273.314 108.721 273.901 108.477C274.488 108.232 275.02 107.874 275.468 107.422C276.156 106.79 276.629 105.957 276.82 105.043C277.011 104.128 276.911 103.176 276.534 102.32C276.157 101.465 275.521 100.75 274.717 100.274C273.912 99.7981 272.979 99.5861 272.048 99.6677Z" fill="#8B80F9"/>
<path d="M163.117 118.435C163.096 118.543 163.156 118.236 162.923 119.362C165.501 119.436 166.773 118.487 163.117 118.435Z" fill="#8B80F9"/>
<path d="M165.903 122.26C164.759 121.964 163.58 121.818 162.398 121.828C162.162 122.891 162.059 123.389 161.82 124.352C163.375 124.678 164.99 124.575 166.491 124.054C167.342 123.584 166.72 122.526 165.903 122.26Z" fill="#8B80F9"/>
<path d="M173.427 117.157C172.489 115.557 171.148 114.23 169.539 113.308C167.929 112.386 166.106 111.901 164.251 111.901C162.396 111.901 160.574 112.386 158.964 113.308C157.355 114.23 156.014 115.557 155.076 117.157C154.267 118.729 153.876 120.484 153.941 122.251C154.005 124.018 154.523 125.739 155.445 127.249C156.366 128.758 157.66 130.006 159.202 130.871C160.744 131.737 162.483 132.191 164.251 132.191C166.02 132.191 167.759 131.737 169.301 130.871C170.843 130.006 172.137 128.758 173.058 127.249C173.98 125.739 174.497 124.018 174.562 122.251C174.627 120.484 174.236 118.729 173.427 117.157ZM167.583 126.181C166.618 126.616 165.554 126.78 164.503 126.657C164.503 127.155 164.369 127.643 164.113 128.071C163.895 128.457 163.657 128.828 163.215 128.774C162.773 128.72 162.639 128.305 162.512 127.876C162.345 127.354 162.345 126.794 162.512 126.272C161.834 126.086 161.186 125.862 160.61 125.652C160.426 125.602 160.268 125.483 160.169 125.32C160.07 125.157 160.038 124.962 160.079 124.776C160.079 124.582 160.418 120.538 160.466 120.053C160.581 119.013 160.769 117.982 160.983 116.95C161.044 116.685 161.193 116.448 161.405 116.278C161.618 116.108 161.882 116.015 162.154 116.014C162.545 116.014 163.049 116.001 163.583 116.014C163.628 115.507 163.765 115.013 163.986 114.555C164.778 112.912 165.798 114.448 165.666 116.267C166.102 116.353 166.51 116.546 166.854 116.828C167.197 117.11 167.466 117.473 167.635 117.884C167.802 118.268 167.873 118.687 167.844 119.105C167.814 119.522 167.685 119.927 167.466 120.284C169.669 121.63 170.283 124.889 167.583 126.181Z" fill="#8B80F9"/>
<path d="M201.169 75.6275C201.147 75.7343 201.207 75.4275 200.974 76.5547C203.553 76.6292 204.824 75.68 201.169 75.6275Z" fill="#8B80F9"/>
<path d="M203.954 79.4531C202.81 79.1557 201.631 79.0098 200.449 79.0192C200.213 80.0836 200.11 80.5819 199.871 81.5447C201.426 81.8701 203.041 81.767 204.542 81.2464C205.395 80.7752 204.771 79.7175 203.954 79.4531Z" fill="#8B80F9"/>
<path d="M211.478 74.3478C210.54 72.7482 209.199 71.4218 207.589 70.5001C205.98 69.5785 204.157 69.0936 202.302 69.0936C200.448 69.0936 198.625 69.5785 197.016 70.5001C195.406 71.4218 194.065 72.7482 193.127 74.3478C192.318 75.9206 191.927 77.6748 191.992 79.4421C192.057 81.2094 192.574 82.9304 193.496 84.44C194.417 85.9495 195.711 87.1969 197.253 88.0625C198.795 88.928 200.534 89.3826 202.302 89.3826C204.071 89.3826 205.81 88.928 207.352 88.0625C208.894 87.1969 210.188 85.9495 211.109 84.44C212.031 82.9304 212.548 81.2094 212.613 79.4421C212.678 77.6748 212.287 75.9206 211.478 74.3478ZM205.636 83.3719C204.671 83.8072 203.606 83.9724 202.554 83.8499C202.554 84.3477 202.419 84.8361 202.164 85.2635C201.947 85.65 201.708 86.0212 201.266 85.967C200.824 85.9127 200.69 85.4958 200.563 85.0686C200.396 84.5471 200.396 83.9867 200.563 83.4652C199.885 83.2787 199.237 83.0533 198.659 82.8448C198.475 82.7945 198.318 82.6755 198.219 82.5125C198.12 82.3494 198.088 82.1547 198.129 81.9685C198.129 81.7752 198.468 77.7225 198.515 77.2445C198.63 76.2055 198.82 75.1749 199.034 74.141C199.095 73.8759 199.244 73.6394 199.457 73.4696C199.669 73.2998 199.933 73.2067 200.205 73.2053C200.595 73.2053 201.1 73.1935 201.634 73.2053C201.678 72.6979 201.814 72.2028 202.035 71.7442C202.827 70.1035 203.847 71.6391 203.715 73.4562C204.152 73.5428 204.56 73.7359 204.903 74.0183C205.247 74.3007 205.515 74.6637 205.685 75.0749C205.852 75.4588 205.923 75.8773 205.894 76.2949C205.864 76.7124 205.734 77.1167 205.515 77.4733C207.712 78.8225 208.334 82.082 205.636 83.3719Z" fill="#8B80F9"/>
<path d="M259.059 85.9484C259.037 86.0568 259.096 85.7501 258.864 86.8755C261.444 86.945 262.713 86.0009 259.059 85.9484Z" fill="#8B80F9"/>
<path d="M261.845 89.774C260.701 89.4775 259.522 89.3322 258.34 89.3418C258.104 90.4045 258.001 90.9028 257.762 91.8673C259.317 92.1929 260.931 92.0892 262.432 91.5673C263.284 91.0978 262.661 90.0401 261.845 89.774Z" fill="#8B80F9"/>
<path d="M269.369 84.6703C268.431 83.0703 267.09 81.7435 265.481 80.8215C263.871 79.8996 262.049 79.4146 260.194 79.4146C258.339 79.4146 256.516 79.8996 254.906 80.8215C253.297 81.7435 251.956 83.0703 251.018 84.6703C250.209 86.2431 249.818 87.9974 249.883 89.7647C249.948 91.532 250.465 93.253 251.387 94.7626C252.308 96.2721 253.602 97.5195 255.144 98.385C256.686 99.2506 258.425 99.7051 260.194 99.7051C261.962 99.7051 263.701 99.2506 265.243 98.385C266.785 97.5195 268.079 96.2721 269 94.7626C269.922 93.253 270.44 91.532 270.504 89.7647C270.569 87.9974 270.178 86.2431 269.369 84.6703ZM263.525 93.6945C262.56 94.1299 261.495 94.2951 260.444 94.1725C260.443 94.6697 260.309 95.1576 260.054 95.5844C259.837 95.9709 259.599 96.3421 259.155 96.2896C258.711 96.237 258.581 95.8183 258.452 95.3912C258.286 94.8691 258.286 94.3082 258.452 93.786C257.774 93.5996 257.126 93.3758 256.548 93.1674C256.365 93.117 256.207 92.9981 256.108 92.835C256.01 92.672 255.977 92.4773 256.018 92.291C256.018 92.0978 256.357 88.0451 256.404 87.5671C256.521 86.5264 256.709 85.4975 256.923 84.4635C256.984 84.1984 257.133 83.9617 257.346 83.7918C257.558 83.622 257.822 83.529 258.094 83.5279C258.486 83.5279 258.989 83.5143 259.523 83.5279C259.567 83.021 259.703 82.5264 259.925 82.0685C260.718 80.4277 261.737 81.9617 261.605 83.7805C262.041 83.8677 262.448 84.0609 262.792 84.3429C263.136 84.6248 263.405 84.987 263.576 85.3975C263.742 85.7818 263.814 86.2005 263.784 86.6182C263.755 87.036 263.625 87.4405 263.406 87.7976C265.607 89.1485 266.224 92.4029 263.525 93.6945Z" fill="#8B80F9"/>
<path d="M298.688 138.642C298.661 138.778 298.735 138.392 298.442 139.81C301.691 139.904 303.293 138.707 298.688 138.642Z" fill="#8B80F9"/>
<path d="M302.198 143.461C300.756 143.087 299.271 142.903 297.781 142.916C297.484 144.256 297.35 144.884 297.054 146.097C299.013 146.507 301.048 146.377 302.939 145.721C304.012 145.128 303.235 143.795 302.198 143.461Z" fill="#8B80F9"/>
<path d="M311.68 137.029C306.985 128.166 293.205 128.235 288.555 137.029C287.536 139.011 287.044 141.221 287.126 143.448C287.207 145.675 287.86 147.843 289.021 149.745C290.181 151.648 291.812 153.219 293.755 154.31C295.698 155.4 297.889 155.973 300.118 155.973C302.346 155.973 304.537 155.4 306.48 154.31C308.423 153.219 310.054 151.648 311.215 149.745C312.376 147.843 313.028 145.675 313.11 143.448C313.191 141.221 312.699 139.011 311.68 137.029ZM304.315 148.401C303.1 148.949 301.758 149.157 300.434 149.002C300.432 149.629 300.263 150.245 299.942 150.784C299.668 151.269 299.369 151.736 298.81 151.67C298.251 151.604 298.084 151.077 297.923 150.538C297.714 149.88 297.714 149.174 297.923 148.516C297.076 148.28 296.252 147.999 295.525 147.736C295.293 147.673 295.095 147.523 294.97 147.317C294.846 147.111 294.806 146.866 294.857 146.631C294.857 146.389 295.276 141.282 295.344 140.68C295.489 139.37 295.728 138.071 295.996 136.77C296.073 136.434 296.26 136.135 296.528 135.919C296.796 135.704 297.129 135.586 297.473 135.583C297.966 135.583 298.6 135.566 299.273 135.583C299.329 134.944 299.502 134.32 299.781 133.742C300.779 131.674 302.064 133.61 301.898 135.9C302.447 136.009 302.961 136.251 303.394 136.606C303.828 136.961 304.167 137.417 304.381 137.934C304.591 138.418 304.682 138.945 304.645 139.472C304.609 139.998 304.446 140.508 304.171 140.958C306.934 142.666 307.717 146.779 304.315 148.401Z" fill="#8B80F9"/>
<path d="M242.617 74.4393C240.544 82.8773 239.134 91.4643 238.398 100.122C234.303 99.4439 230.676 99.0456 226.591 98.649C226.939 96.0019 227.052 93.3292 226.93 90.6621C226.93 90.4661 226.852 90.2782 226.714 90.1396C226.575 90.001 226.387 89.9231 226.191 89.9231C225.995 89.9231 225.807 90.001 225.668 90.1396C225.53 90.2782 225.452 90.4661 225.452 90.6621C225.313 92.7334 224.796 95.4336 224.513 97.0523C223.735 101.544 223.401 100.661 230.252 101.493C229.933 102.532 229.679 103.589 229.491 104.659C226.627 119.314 226.866 119.552 226.767 122.796C226.745 123.005 226.805 123.214 226.934 123.38C227.064 123.545 227.253 123.654 227.461 123.682C227.669 123.71 227.88 123.656 228.049 123.531C228.218 123.406 228.332 123.22 228.366 123.013C228.75 121.452 228.981 120.903 229.354 119.004C234.835 120.15 236.119 119.835 239.895 120.53C240.082 120.564 240.273 120.554 240.455 120.501C240.637 120.447 240.804 120.351 240.942 120.221C241.08 120.091 241.185 119.93 241.249 119.752C241.313 119.573 241.334 119.382 241.31 119.194C241.219 118.418 241.167 117.637 241.156 116.855C241.189 116.648 241.14 116.436 241.019 116.264C240.899 116.092 240.716 115.974 240.509 115.935C240.303 115.896 240.09 115.939 239.915 116.055C239.739 116.17 239.616 116.35 239.571 116.555C239.373 117.087 239.232 117.552 239.122 117.943C237.198 117.604 232.035 117.016 229.767 116.841C231.996 105.083 232.125 103.766 232.162 101.744C234.554 102.054 236.976 102.4 239.332 102.819C239.505 102.849 239.682 102.843 239.852 102.8C240.022 102.758 240.181 102.679 240.318 102.57C240.456 102.462 240.569 102.325 240.649 102.169C240.73 102.014 240.777 101.843 240.787 101.668C241.319 92.5944 242.207 88.518 244.204 74.7173C244.222 74.6131 244.22 74.5064 244.197 74.4031C244.174 74.2999 244.13 74.2022 244.07 74.1157C244.009 74.0291 243.932 73.9553 243.842 73.8986C243.753 73.8419 243.654 73.8033 243.549 73.785C243.445 73.7668 243.339 73.7692 243.235 73.7922C243.132 73.8152 243.034 73.8583 242.948 73.9191C242.861 73.9798 242.788 74.0571 242.731 74.1463C242.674 74.2356 242.635 74.3351 242.617 74.4393Z" fill="#EEEFFF"/>
<path d="M270.612 109.67C270.507 109.653 270.399 109.658 270.296 109.683C270.192 109.708 270.095 109.753 270.009 109.816C269.923 109.879 269.85 109.959 269.795 110.05C269.74 110.141 269.704 110.242 269.688 110.348C268.556 113.803 267.697 117.342 267.117 120.931C266.257 120.762 257.415 119.17 255.082 118.509C256.689 108 256.696 110.133 257.369 102.976C257.404 102.788 257.364 102.593 257.259 102.433C257.153 102.273 256.989 102.161 256.802 102.119C256.614 102.078 256.419 102.111 256.255 102.211C256.092 102.312 255.974 102.472 255.926 102.658C254.703 106.038 253.862 109.545 253.421 113.112C251.413 124.901 251.584 126.272 251.428 129.045C251.412 129.15 251.417 129.257 251.442 129.359C251.468 129.462 251.513 129.559 251.576 129.644C251.639 129.729 251.718 129.801 251.808 129.856C251.899 129.91 252 129.947 252.104 129.962C252.209 129.978 252.315 129.973 252.418 129.948C252.521 129.922 252.618 129.877 252.703 129.814C252.788 129.751 252.86 129.672 252.914 129.582C252.969 129.491 253.005 129.391 253.021 129.286C253.841 126.32 254.441 123.296 254.816 120.242C258.794 122.406 262.569 122.382 267.925 123.647C268.1 123.688 268.282 123.691 268.459 123.655C268.635 123.619 268.801 123.545 268.946 123.438C269.091 123.332 269.212 123.195 269.299 123.038C269.386 122.88 269.438 122.706 269.451 122.526C269.776 117.747 270.871 116.719 271.281 110.597C271.315 110.385 271.264 110.169 271.138 109.995C271.013 109.821 270.823 109.704 270.612 109.67Z" fill="#EEEFFF"/>
<path d="M186.816 79.3005C184.001 77.9952 181.043 77.023 178.002 76.4038C179.465 71.6578 179.599 65.6253 180.524 59.5148C180.57 59.2016 180.495 58.8827 180.314 58.6232C180.133 58.3636 179.859 58.183 179.55 58.1181C178.082 57.779 176.584 57.5877 175.078 57.5469C171.987 57.4096 171.287 56.9435 171.071 57.8486C170.698 59.3504 176.192 59.9674 177.9 60.3047C177.509 63.1167 176.411 72.7748 176.136 75.9563C171.156 74.5692 166.071 73.5913 160.932 73.0324C160.725 72.9944 160.511 73.038 160.336 73.154C160.161 73.2699 160.037 73.4493 159.991 73.6545C159.945 73.8597 159.98 74.0747 160.089 74.2545C160.198 74.4343 160.373 74.5649 160.576 74.6189C165.481 76.2173 163.368 75.602 173.966 78.0259C181.063 79.648 179.221 79.5039 186.381 80.7277C186.474 80.7563 186.573 80.7662 186.67 80.7567C186.768 80.7473 186.862 80.7188 186.949 80.6727C187.035 80.6267 187.112 80.5641 187.174 80.4884C187.237 80.4128 187.283 80.3256 187.312 80.2319C187.341 80.1382 187.35 80.0398 187.341 79.9423C187.332 79.8447 187.303 79.75 187.257 79.6635C187.211 79.5771 187.148 79.5005 187.073 79.4382C186.997 79.3759 186.91 79.3291 186.816 79.3005Z" fill="#EEEFFF"/>
<path d="M205.354 65.0642C206.075 62.0418 206.588 58.9734 206.888 55.8807C207.589 52.5627 207.982 49.1873 208.065 45.7972C208.09 45.5888 208.034 45.3785 207.908 45.2106C207.782 45.0427 207.596 44.9301 207.389 44.8965C207.181 44.863 206.969 44.911 206.796 45.0306C206.624 45.1502 206.504 45.332 206.463 45.5378C206.144 46.5921 205.759 47.6854 205.5 48.9397C204.666 53.1862 204.062 57.4746 203.69 61.7861C203.673 62.8504 203.729 63.9146 203.859 64.971C203.847 65.1693 203.914 65.3643 204.045 65.5132C204.177 65.6621 204.362 65.7528 204.56 65.7651C204.758 65.7775 204.953 65.7106 205.102 65.5791C205.251 65.4477 205.342 65.2625 205.354 65.0642Z" fill="#EEEFFF"/>
<path d="M298.659 105.446C298.448 98.436 298.891 91.4217 299.983 84.494C300 84.2789 300.102 84.0795 300.266 83.9396C300.431 83.7998 300.644 83.7309 300.859 83.7482C301.074 83.7655 301.274 83.8676 301.413 84.0319C301.553 84.1963 301.622 84.4094 301.605 84.6245C301.557 86.723 301.576 88.8044 301.51 90.896C301.363 95.4997 301.001 99.8931 301.196 106.899C301.202 107.085 301.166 107.27 301.091 107.44C301.016 107.611 300.904 107.762 300.763 107.884C300.622 108.006 300.456 108.094 300.276 108.143C300.097 108.193 299.908 108.201 299.725 108.168C291.74 106.731 291.794 107.48 281.817 105.456C281.628 105.423 281.459 105.319 281.345 105.164C281.23 105.01 281.18 104.817 281.205 104.626C281.229 104.436 281.327 104.262 281.476 104.141C281.625 104.02 281.816 103.962 282.007 103.978C287.585 104.085 293.149 104.575 298.659 105.446Z" fill="#EEEFFF"/>
<path d="M284.953 141.015C284.741 140.96 273.661 137.698 273.451 137.625C265.117 135.037 265.551 134.871 264.84 135.242C264.693 135.32 264.563 135.425 264.456 135.553C264.35 135.681 264.27 135.829 264.222 135.988C263.374 138.92 262.767 140.88 262.169 143.599C260.817 143.432 259.475 143.192 258.148 142.88C257.964 142.813 257.761 142.821 257.583 142.903C257.405 142.986 257.268 143.136 257.2 143.32C257.133 143.504 257.141 143.707 257.224 143.885C257.306 144.063 257.456 144.201 257.64 144.268C259.315 145.077 261.087 145.67 262.911 146.031C263.204 146.075 263.503 146.006 263.747 145.839C263.991 145.671 264.163 145.418 264.228 145.129C264.71 143.111 265.637 139.927 266.229 137.924C269.234 138.914 272.268 139.902 275.339 140.756C273.998 144.287 274.402 143.241 271.861 152.88C270.669 156.815 269.707 160.816 268.98 164.862C268.919 165.069 268.942 165.291 269.045 165.48C269.148 165.67 269.322 165.81 269.529 165.871C269.735 165.932 269.958 165.908 270.147 165.805C270.336 165.702 270.476 165.528 270.537 165.322C271.02 164.113 271.544 162.94 271.964 161.708C273.073 158.457 275.248 150.001 275.978 146.902C276.473 145.032 276.807 143.124 276.977 141.197C279.489 141.88 282.056 142.348 284.648 142.595C284.85 142.618 285.053 142.565 285.217 142.444C285.381 142.324 285.494 142.146 285.532 141.947C285.571 141.747 285.533 141.54 285.425 141.368C285.318 141.195 285.149 141.069 284.953 141.015Z" fill="#EEEFFF"/>
<path d="M293.035 179.136C293.757 179.597 294.548 179.941 295.377 180.153C296.317 180.472 300.507 181.884 301.49 182.075C302.859 182.346 303.693 182.501 303.959 181.806C304.285 180.982 302.603 180.099 302.02 179.812C299.937 178.977 297.811 178.253 295.65 177.644C295.011 177.412 294.34 177.278 293.66 177.248C292.74 177.177 292.065 177.026 291.845 177.68C291.625 178.334 292.15 178.565 293.035 179.136Z" fill="#EEEFFF"/>
<path d="M273.715 191.111C273.344 191.799 273.063 192.531 272.88 193.291C272.519 194.498 271.171 199.223 270.953 200.757C270.742 202.244 270.605 203.527 271.461 203.719C272.317 203.91 272.631 202.849 273.12 201.613C273.585 200.427 274.797 195.74 275.115 194.503C275.417 193.57 275.592 192.601 275.638 191.621C275.687 190.559 275.77 189.877 275.115 189.706C274.421 189.53 274.183 190.209 273.715 191.111Z" fill="#EEEFFF"/>
<path d="M314.592 151.108C316.116 151.758 317.687 152.293 319.292 152.706C319.953 152.857 321.252 153.045 321.443 152.389C321.66 151.682 320.323 151.124 319.628 150.863C319.038 150.648 315.582 149.485 315.165 149.392C312.797 148.867 312.626 150.063 314.592 151.108Z" fill="#EEEFFF"/>
<path d="M206.559 141.277C202.611 140.322 198.589 139.704 194.537 139.429C195.286 135.295 195.93 131.739 196.444 127.618C196.478 127.314 196.399 127.007 196.222 126.757C196.046 126.507 195.783 126.331 195.484 126.262C180.823 123.008 180.312 123.143 175.892 122.296C175.705 122.252 175.508 122.283 175.344 122.382C175.179 122.481 175.06 122.64 175.01 122.825C174.961 123.01 174.985 123.208 175.079 123.375C175.172 123.543 175.327 123.668 175.51 123.723C181.503 125.71 187.624 127.284 193.832 128.434C193.088 134.046 190.533 146.812 190.809 152.143C185.724 151.018 157.528 145.943 146.497 144.663C146.289 144.636 146.079 144.691 145.91 144.815C145.741 144.939 145.627 145.124 145.591 145.331C145.555 145.538 145.6 145.75 145.717 145.924C145.834 146.098 146.014 146.22 146.219 146.265C151.177 147.407 151.218 147.507 156.633 148.528C156.545 148.845 156.494 149.174 156.426 149.494C156.213 150.496 155.399 153.63 156.815 153.909C158.23 154.189 158.715 150.899 158.879 149.982C158.94 149.643 159.023 149.318 159.06 148.98C163.615 149.818 169.803 150.891 173.483 151.504C172.454 156.815 172.636 157.501 171.832 164.022C170.425 175.482 170.617 172.917 170.386 178.378C170.367 178.588 170.429 178.797 170.56 178.962C170.691 179.126 170.881 179.234 171.09 179.261C171.298 179.289 171.509 179.235 171.679 179.11C171.848 178.985 171.963 178.799 171.998 178.592C172.568 176.112 173.198 174.502 174.532 162.528C176.303 163.035 178.113 163.39 179.943 163.59C180.136 163.59 181.907 163.574 182.051 162.773C182.196 161.971 180.658 161.342 180.153 161.208C179.147 160.949 178.129 160.743 177.102 160.589C176.594 160.498 175.49 160.184 174.805 160.081C175.175 157.329 175.285 154.548 175.134 151.775C180.644 152.843 186.218 153.545 191.82 153.877C191.959 153.897 192.102 153.877 192.23 153.82C192.359 153.762 192.468 153.669 192.546 153.551C192.624 153.434 192.667 153.296 192.67 153.155C192.672 153.015 192.635 152.876 192.562 152.755C193.312 150.685 193.748 148.514 193.854 146.314C194.144 144.1 194.298 142.234 194.313 141.868C197.364 141.992 198.3 142.194 206.331 142.885C206.539 142.908 206.748 142.849 206.913 142.72C207.078 142.592 207.187 142.404 207.217 142.197C207.246 141.989 207.194 141.779 207.071 141.609C206.948 141.44 206.764 141.325 206.558 141.288L206.559 141.277Z" fill="#EEEFFF"/>
<path d="M214.728 105.695C214.253 107.531 213.653 109.461 213.321 111.189C208.744 110.148 204.676 109.168 200.034 108.422C200.863 103.452 201.273 98.4213 201.259 93.3826C201.271 93.1909 201.207 93.0022 201.082 92.8565C200.957 92.7109 200.78 92.6197 200.589 92.6023C200.397 92.5849 200.207 92.6426 200.057 92.7633C199.908 92.8839 199.811 93.058 199.788 93.2487C199.488 94.9437 199.022 97.2285 198.591 100.341C194.91 99.212 191.117 98.4862 187.279 98.176C186.674 98.1591 184.124 98.1472 184.058 99.0812C183.972 100.363 188.006 100.635 191.594 101.266C193.808 101.788 196.06 102.128 198.329 102.283C198.025 104.622 197.747 106.963 197.413 109.299C197.37 109.622 197.455 109.949 197.65 110.21C197.846 110.471 198.137 110.645 198.459 110.694C201.793 111.19 205.553 111.972 208.87 112.685C208.054 115.121 205.956 127.472 205.922 127.669C205.553 129.92 205.454 130.24 205.788 130.72C205.877 130.845 205.99 130.951 206.12 131.033C206.25 131.114 206.395 131.169 206.546 131.195C207.632 131.3 208.725 131.329 209.816 131.283C210.029 131.299 210.239 131.23 210.402 131.091C210.564 130.951 210.664 130.753 210.68 130.54C210.696 130.327 210.627 130.117 210.488 129.954C210.349 129.792 210.151 129.692 209.938 129.676L208.09 129.2C209.307 123.89 210.171 118.506 210.675 113.082C211.79 113.325 212.904 113.566 214.016 113.804C214.178 113.84 214.346 113.843 214.509 113.81C214.672 113.778 214.826 113.711 214.961 113.615C215.097 113.52 215.211 113.396 215.296 113.254C215.381 113.111 215.435 112.952 215.455 112.787L216.302 106.007C216.326 105.806 216.273 105.603 216.154 105.439C216.034 105.276 215.858 105.163 215.659 105.123C215.46 105.084 215.254 105.121 215.082 105.227C214.909 105.333 214.783 105.5 214.728 105.695Z" fill="#EEEFFF"/>
</svg>
