<svg width="338" height="338" viewBox="0 0 338 338" fill="none" xmlns="http://www.w3.org/2000/svg">
<path d="M75.7914 97.2832C106.808 94.3628 118.826 121.648 120.955 152.607C121.237 156.445 121.321 160.295 121.205 164.141C72.4774 181.111 39.3449 164.55 38.5354 164.163C38.1112 162.247 37.7512 159.685 37.5214 157.741C36.1069 145.921 36.6595 132.662 41.0856 121.609C42.588 117.852 49.2094 99.786 75.7914 97.2832Z" fill="#EEEFFF"/>
<path d="M270.417 90.4843C271.675 85.2384 272.649 79.9286 273.336 74.578C270.412 74.6118 267.15 71.2808 268.162 68.9114C267.556 69.265 266.866 69.4506 266.164 69.4491C265.462 69.4476 264.772 69.2591 264.167 68.903C263.397 68.4264 264.106 67.213 264.875 67.6913C267.289 69.17 270.92 65.6869 270.603 61.7323C270.49 60.7327 270.119 59.7796 269.526 58.9666C268.933 58.1537 268.14 57.5087 267.223 57.095C264.958 56.1266 262.932 58.2627 262.024 60.071C261.619 60.8755 260.407 60.1657 260.814 59.3612C261.216 58.5697 261.743 57.8479 262.374 57.2234C262.08 54.7915 261.069 49.8989 257.722 50.8927C253.311 52.2075 253.544 44.9337 253.544 44.9337C253.544 44.9337 246.743 47.1645 242.696 45.2193C240.323 46.7672 238.288 48.7786 236.713 51.1327C235.138 53.4868 234.054 56.1351 233.528 58.9184C233.002 61.7018 233.043 64.5628 233.651 67.3296C234.258 70.0964 235.418 72.7119 237.061 75.0191C238.791 77.4566 241.041 79.4786 243.648 80.9387C246.256 82.3988 249.156 83.2602 252.138 83.4606C252.044 86.0306 252.229 88.6033 252.69 91.1332C255.396 89.6688 258.403 88.8484 261.478 88.7358C264.552 88.6233 267.611 89.2216 270.417 90.4843Z" fill="#E0E1FF"/>
<path d="M283.266 52.6925C282.47 44.518 277.055 38.9308 269.988 35.3311C266.942 33.7791 263.709 32.6277 260.368 31.9055C251.928 30.0871 240.135 30.8307 232.29 34.6399C230.967 35.2889 229.248 36.3604 229.436 38.074C229.575 39.4581 231.608 39.7775 232.681 39.8029C233.754 39.8282 234.973 39.8299 236.201 39.8215C237.204 39.7917 238.186 40.1057 238.985 40.7113C239.784 41.3169 240.353 42.1777 240.595 43.1508C240.781 44.0313 241.88 44.8408 242.692 45.2193C246.74 47.173 253.541 44.9337 253.541 44.9337C253.541 44.9337 253.297 52.2007 257.718 50.8927C261.066 49.8989 262.077 54.8016 262.371 57.2234C262.674 56.9064 263.004 56.6163 263.358 56.3564C267.314 53.4986 272.34 58.1225 271.995 62.7176C271.921 63.9891 271.532 65.2221 270.863 66.3062C270.194 67.3902 269.267 68.2912 268.164 68.9283C266.831 72.0599 272.869 76.8071 275.845 73.4356C280.766 67.796 284.003 60.262 283.266 52.6925Z" fill="#A4A4FD"/>
<path d="M263.366 56.3564C262.302 57.1551 261.426 58.178 260.801 59.3528C260.395 60.1572 261.605 60.8738 262.013 60.0626C262.92 58.2543 264.945 56.1097 267.211 57.0865C268.128 57.5005 268.921 58.1456 269.514 58.9585C270.106 59.7714 270.478 60.7243 270.591 61.7239C270.912 65.7579 267.223 69.143 264.864 67.6828C264.093 67.2079 263.393 68.418 264.154 68.8945C264.759 69.2506 265.449 69.4391 266.151 69.4406C266.853 69.4421 267.544 69.2565 268.151 68.903C269.255 68.2672 270.183 67.3666 270.852 66.2823C271.521 65.198 271.909 63.9642 271.982 62.6922C272.342 58.0971 267.316 53.5037 263.366 56.3564Z" fill="#1F2937"/>
<path d="M191.453 151.132L204.654 150.811C204.654 150.811 202.906 162.419 207.042 168.302L193.365 170.69L191.453 151.132Z" fill="#EEEFFF"/>
<path d="M197.257 169.417V154.625C197.257 154.625 185.089 148.189 173.642 152.957C162.196 157.724 171.731 172.757 182.466 172.272C193.201 171.787 197.257 169.417 197.257 169.417Z" fill="#EEEFFF"/>
<path d="M273.888 201.225C273.239 202.19 273.121 202.087 272.264 202.07C271.674 202.051 266.048 201.901 263.824 201.832C263.89 202.001 264.019 204.476 264.007 204.306C264.013 204.398 264.001 204.49 263.971 204.578C263.941 204.665 263.894 204.746 263.833 204.815C263.772 204.884 263.698 204.94 263.615 204.981C263.532 205.021 263.441 205.044 263.349 205.049H263.302C263.124 205.049 262.952 204.981 262.822 204.859C262.692 204.737 262.613 204.57 262.601 204.392C262.432 201.771 262.432 201.989 262.489 201.798C260.799 201.756 251.727 201.504 248.881 201.418C248.729 201.417 248.581 201.368 248.459 201.276C248.337 201.185 248.248 201.057 248.205 200.911C247.873 199.687 247.611 198.446 247.418 197.193C242.832 195.498 238.456 193.283 234.374 190.591L255.8 308.824C255.8 308.824 278.698 312.035 287.996 308.469L294.726 197.331C287.984 199.548 280.976 200.858 273.888 201.225ZM263.18 213.239L262.895 208.81C262.883 208.624 262.946 208.441 263.069 208.302C263.193 208.162 263.366 208.077 263.552 208.066C263.738 208.055 263.921 208.117 264.06 208.241C264.2 208.364 264.284 208.538 264.296 208.723L264.581 213.153C264.593 213.339 264.53 213.521 264.407 213.661C264.283 213.8 264.11 213.885 263.924 213.897C263.738 213.908 263.555 213.845 263.416 213.722C263.277 213.599 263.192 213.425 263.18 213.239ZM263.752 222.093L263.466 217.664C263.46 217.572 263.473 217.479 263.503 217.392C263.533 217.305 263.58 217.225 263.641 217.156C263.702 217.087 263.776 217.03 263.859 216.99C263.941 216.949 264.031 216.926 264.123 216.92C264.215 216.914 264.308 216.927 264.395 216.957C264.482 216.987 264.562 217.034 264.631 217.095C264.7 217.156 264.757 217.23 264.797 217.313C264.838 217.395 264.861 217.485 264.867 217.577L265.153 222.005C265.164 222.191 265.102 222.374 264.978 222.513C264.855 222.653 264.682 222.738 264.496 222.75C264.31 222.761 264.127 222.699 263.988 222.575C263.848 222.452 263.763 222.279 263.752 222.093ZM264.323 230.945L264.037 226.516C264.026 226.33 264.089 226.147 264.212 226.008C264.336 225.869 264.51 225.784 264.695 225.773C264.881 225.762 265.064 225.825 265.203 225.948C265.342 226.072 265.427 226.245 265.438 226.431L265.724 230.859C265.735 231.046 265.672 231.229 265.548 231.369C265.424 231.51 265.25 231.595 265.063 231.606C264.876 231.617 264.693 231.554 264.553 231.43C264.413 231.306 264.327 231.132 264.316 230.945H264.323ZM264.884 239.796L264.6 235.366C264.595 235.184 264.66 235.007 264.783 234.873C264.906 234.738 265.076 234.657 265.258 234.646C265.44 234.635 265.619 234.694 265.757 234.813C265.895 234.931 265.982 235.099 265.999 235.28L266.285 239.708C266.297 239.894 266.234 240.076 266.111 240.216C265.988 240.356 265.814 240.441 265.628 240.452C265.442 240.464 265.26 240.401 265.12 240.278C264.98 240.155 264.895 239.982 264.884 239.796ZM265.455 248.643L265.169 244.215C265.164 244.123 265.176 244.031 265.206 243.944C265.236 243.857 265.283 243.776 265.344 243.707C265.405 243.638 265.479 243.582 265.562 243.541C265.645 243.501 265.735 243.477 265.827 243.472C265.919 243.466 266.011 243.478 266.098 243.508C266.185 243.538 266.266 243.585 266.335 243.646C266.404 243.707 266.46 243.781 266.501 243.864C266.541 243.947 266.565 244.037 266.57 244.129L266.856 248.558C266.862 248.65 266.849 248.743 266.819 248.83C266.789 248.917 266.742 248.997 266.681 249.066C266.557 249.205 266.384 249.29 266.198 249.301C266.012 249.312 265.829 249.249 265.69 249.126C265.551 249.002 265.466 248.829 265.455 248.643ZM266.026 257.497L265.741 253.069C265.729 252.883 265.792 252.701 265.915 252.561C266.039 252.422 266.212 252.337 266.398 252.325C266.584 252.314 266.767 252.377 266.906 252.5C267.045 252.623 267.13 252.797 267.142 252.983L267.427 257.411C267.433 257.503 267.42 257.595 267.39 257.682C267.36 257.769 267.314 257.85 267.253 257.919C267.192 257.988 267.117 258.044 267.035 258.084C266.952 258.125 266.862 258.149 266.77 258.154C266.678 258.16 266.586 258.147 266.499 258.117C266.411 258.087 266.331 258.041 266.262 257.98C266.193 257.918 266.137 257.844 266.096 257.762C266.056 257.679 266.032 257.589 266.026 257.497ZM266.589 266.351L266.303 261.923C266.297 261.831 266.309 261.738 266.339 261.651C266.369 261.563 266.416 261.483 266.477 261.413C266.538 261.344 266.612 261.288 266.695 261.247C266.778 261.207 266.869 261.183 266.961 261.178C267.146 261.17 267.326 261.234 267.465 261.357C267.604 261.479 267.689 261.651 267.704 261.835L267.99 266.265C268.001 266.45 267.937 266.633 267.813 266.772C267.689 266.91 267.515 266.994 267.329 267.005C267.143 267.015 266.961 266.952 266.822 266.828C266.683 266.704 266.6 266.53 266.589 266.344V266.351ZM267.16 275.2L266.875 270.77C266.863 270.584 266.927 270.402 267.05 270.262C267.173 270.123 267.347 270.039 267.533 270.027C267.719 270.016 267.901 270.079 268.041 270.203C268.18 270.326 268.264 270.5 268.276 270.686L268.56 275.113C268.565 275.295 268.499 275.472 268.376 275.607C268.254 275.741 268.083 275.823 267.902 275.834C267.72 275.845 267.541 275.785 267.403 275.667C267.264 275.548 267.177 275.381 267.16 275.2ZM267.73 284.053L267.444 279.624C267.439 279.532 267.451 279.44 267.481 279.353C267.511 279.266 267.558 279.185 267.619 279.116C267.68 279.047 267.754 278.991 267.837 278.95C267.92 278.91 268.01 278.886 268.102 278.88C268.194 278.875 268.286 278.887 268.373 278.917C268.46 278.947 268.541 278.994 268.61 279.055C268.679 279.116 268.735 279.19 268.775 279.273C268.816 279.356 268.84 279.446 268.845 279.538L269.131 283.967C269.136 284.059 269.124 284.152 269.094 284.239C269.064 284.326 269.017 284.406 268.956 284.475C268.895 284.544 268.821 284.601 268.738 284.641C268.655 284.682 268.565 284.705 268.473 284.711C268.381 284.717 268.289 284.704 268.202 284.674C268.115 284.644 268.034 284.597 267.965 284.536C267.896 284.475 267.84 284.401 267.8 284.318C267.759 284.235 267.735 284.145 267.73 284.053ZM268.301 292.906L268.015 288.478C268.01 288.295 268.076 288.118 268.199 287.983C268.322 287.849 268.493 287.767 268.675 287.756C268.857 287.745 269.037 287.805 269.175 287.923C269.314 288.042 269.401 288.21 269.418 288.392L269.702 292.821C269.708 292.913 269.695 293.005 269.665 293.093C269.635 293.18 269.588 293.26 269.527 293.329C269.403 293.468 269.23 293.553 269.044 293.564C268.858 293.575 268.675 293.512 268.536 293.389C268.397 293.265 268.312 293.092 268.301 292.906ZM268.864 301.756L268.578 297.327C268.572 297.235 268.584 297.142 268.614 297.055C268.644 296.967 268.691 296.887 268.752 296.818C268.813 296.749 268.887 296.692 268.97 296.652C269.053 296.612 269.143 296.588 269.236 296.583C269.42 296.576 269.601 296.64 269.74 296.762C269.878 296.885 269.964 297.056 269.979 297.241L270.265 301.668C270.276 301.854 270.214 302.037 270.091 302.177C269.968 302.316 269.794 302.401 269.608 302.413C269.422 302.424 269.24 302.362 269.1 302.239C268.96 302.116 268.875 301.942 268.864 301.756ZM269.302 308.516L269.153 306.189C269.147 306.006 269.212 305.829 269.335 305.693C269.458 305.558 269.629 305.476 269.811 305.465C269.994 305.453 270.174 305.513 270.313 305.632C270.451 305.751 270.539 305.919 270.555 306.101L270.703 308.43C270.708 308.522 270.695 308.614 270.664 308.701C270.634 308.788 270.586 308.868 270.525 308.937C270.463 309.005 270.389 309.061 270.306 309.101C270.223 309.141 270.133 309.164 270.041 309.169C269.855 309.18 269.673 309.116 269.534 308.992C269.396 308.868 269.312 308.694 269.302 308.508V308.516Z" fill="#FEE992"/>
<path d="M84.4865 18.9652C83.8764 19.6412 82.8945 18.6458 83.4911 17.9715C83.9322 17.478 84.3817 16.9845 84.8228 16.4911C83.6884 15.1802 82.2556 14.1613 80.6451 13.52L80.1736 16.2443C80.1204 16.422 80.0009 16.5724 79.8398 16.6643C79.6787 16.7562 79.4883 16.7825 79.3083 16.7378C79.132 16.6825 78.9832 16.5626 78.8916 16.4021C78.8001 16.2416 78.7727 16.0524 78.8149 15.8725C78.9839 14.9379 79.1393 13.9949 79.3049 13.062C76.5198 12.2582 73.5409 12.4568 70.8871 13.6231C71.0124 13.7569 71.0822 13.9333 71.0822 14.1166C71.0822 14.2999 71.0124 14.4763 70.8871 14.6101C70.7548 14.7409 70.5763 14.8143 70.3902 14.8143C70.2041 14.8143 70.0256 14.7409 69.8933 14.6101C69.8071 14.5138 69.7108 14.4191 69.6246 14.3245C68.0327 15.3354 66.7888 16.81 66.0604 18.5495C66.2294 18.661 66.4153 18.7742 66.5793 18.8875C66.6588 18.934 66.7284 18.9957 66.7842 19.0691C66.8399 19.1425 66.8806 19.2261 66.904 19.3153C66.9273 19.4044 66.9329 19.4973 66.9204 19.5886C66.9079 19.6799 66.8776 19.7678 66.8311 19.8474C66.7846 19.927 66.7229 19.9966 66.6495 20.0523C66.576 20.108 66.4924 20.1487 66.4033 20.1721C66.3141 20.1955 66.2212 20.2011 66.1299 20.1886C66.0386 20.1761 65.9507 20.1457 65.8711 20.0992C65.785 20.0384 65.6886 19.986 65.6024 19.9302C65.1694 21.54 65.0939 23.225 65.381 24.8671C65.6682 26.5091 66.3111 28.0685 67.2647 29.4358C68.2184 30.8031 69.4596 31.9452 70.9013 32.782C72.343 33.6189 73.9504 34.1301 75.6106 34.28V30.0634C70.0843 29.3266 70.1452 20.7684 75.8185 20.2614C76.499 20.2083 77.1831 20.2958 77.8284 20.5184C78.4736 20.741 79.0662 21.0941 79.5691 21.5555C80.0721 22.0169 80.4748 22.5769 80.752 23.2007C81.0293 23.8244 81.1753 24.4985 81.1809 25.181C81.1504 26.3467 80.7204 27.4666 79.963 28.3532C79.2056 29.2398 78.1667 29.8394 77.0201 30.0516V34.2766C79.4443 34.0737 81.7378 33.0915 83.5576 31.477C85.3774 29.8626 86.6258 27.7024 87.1161 25.3196C86.6835 25.4886 86.2627 25.6796 85.8317 25.852C85.6594 25.8817 85.4821 25.8464 85.3344 25.7527C85.1866 25.659 85.079 25.5138 85.0324 25.3452C84.9859 25.1766 85.0037 24.9967 85.0824 24.8405C85.1611 24.6842 85.295 24.5629 85.4582 24.5C86.065 24.2498 86.6649 23.993 87.2716 23.753C87.3647 21.6036 86.8101 19.4758 85.6796 17.6453C85.2909 18.083 84.8887 18.5224 84.4865 18.9652Z" fill="#FEE992"/>
<path d="M75.2473 75.014C77.0379 74.3198 78.5717 73.0919 79.641 71.4966C80.7102 69.9014 81.2631 68.016 81.2248 66.0959C81.1452 64.4999 80.6871 62.9458 79.8885 61.5617C79.0898 60.1777 77.9734 59.0035 76.6314 58.136C75.582 58.7554 74.5825 59.4554 73.6418 60.2299C73.6529 60.2318 73.6637 60.2352 73.6739 60.24C79.5297 61.8337 78.8808 70.4527 73.5437 71.7016C72.7436 71.869 71.918 71.875 71.1155 71.7192C70.313 71.5635 69.5496 71.2491 68.8701 70.7946C68.1906 70.34 67.6087 69.7544 67.1585 69.0721C66.7082 68.3897 66.3987 67.6244 66.248 66.8209C66.1953 66.8328 66.1433 66.848 66.0925 66.8665V62.6787C65.2955 62.3602 64.5229 61.9841 63.7806 61.5532C62.8526 63.2345 62.4589 65.1587 62.6519 67.0695C62.8448 68.9802 63.6154 70.7868 64.8608 72.2486C66.1063 73.7105 67.7676 74.7582 69.6234 75.2522C71.4792 75.7463 73.4398 75.6632 75.2473 75.014Z" fill="#EEEFFF"/>
<path d="M73.8986 70.1046C77.8955 68.3047 76.9711 61.4265 72.3269 61.4265C68.7272 65.0262 69.8494 65.959 69.2968 66.1179L67.6068 66.5032C67.7229 67.1866 67.989 67.8357 68.3859 68.404C68.7827 68.9722 69.3006 69.4456 69.9021 69.7899C70.5037 70.1342 71.1741 70.341 71.8651 70.3954C72.5561 70.4499 73.2506 70.3505 73.8986 70.1046Z" fill="#EEEFFF"/>
<path d="M70.4206 83.3052C75.4446 84.7646 80.8234 84.3935 85.5994 82.2581C90.3754 80.1226 94.2384 76.3614 96.5007 71.6442C92.1067 73.635 88.1082 71.318 85.9906 67.2147C85.5765 66.4103 86.7866 65.7089 87.2023 66.5049C89.4568 70.8905 93.4333 72.3455 97.3998 69.5063C98.4859 66.516 98.9158 63.3271 98.6604 60.1559C98.405 56.9847 97.4702 53.9057 95.9195 51.1277C94.3688 48.3498 92.2385 45.9381 89.6732 44.0564C87.1079 42.1746 84.1678 40.8669 81.0524 40.222C79.3878 39.8536 82.6004 40.4755 85.1523 42.0084C87.929 43.6696 90.8983 46.4209 89.7373 49.9666C89.3703 51.0743 88.745 52.0789 87.9131 52.8973C87.0812 53.7157 86.0666 54.3244 84.9529 54.6732C82.5526 55.3387 80.2255 56.2446 78.007 57.3772C79.3758 58.3988 80.5012 59.711 81.3025 61.2194C82.1037 62.7277 82.5608 64.3949 82.641 66.101C82.684 68.5987 81.8552 71.0333 80.2973 72.986C78.7394 74.9388 76.5497 76.2875 74.1048 76.8004C72.0758 77.1776 69.9813 76.9696 68.066 76.2008C66.1507 75.4319 64.4938 74.134 63.2887 72.4586C62.0836 70.7831 61.3801 68.7994 61.2604 66.739C61.1407 64.6787 61.6098 62.6268 62.6128 60.8231C60.9895 59.8601 59.6273 58.5136 58.6455 56.9016C57.6638 55.2896 57.0925 53.4613 56.9817 51.5771C55.4417 54.4941 54.5699 57.7171 54.4295 61.0126C54.2892 64.3082 54.8838 67.5937 56.1703 70.631C57.4568 73.6683 59.4029 76.3813 61.8676 78.5735C64.3324 80.7656 67.2539 82.3819 70.4206 83.3052ZM89.6866 58.8695C90.0647 58.8695 90.4342 58.9816 90.7485 59.1916C91.0629 59.4016 91.3078 59.7002 91.4525 60.0494C91.5972 60.3987 91.635 60.783 91.5613 61.1538C91.4875 61.5245 91.3055 61.8651 91.0382 62.1324C90.7709 62.3997 90.4303 62.5818 90.0595 62.6555C89.6887 62.7293 89.3044 62.6914 88.9552 62.5468C88.6059 62.4021 88.3074 62.1571 88.0974 61.8428C87.8873 61.5285 87.7752 61.1589 87.7752 60.7809C87.7752 60.2742 87.9764 59.7883 88.3345 59.4299C88.6926 59.0715 89.18 58.8699 89.6866 58.8695ZM75.0664 193.814C74.1596 193.666 73.229 193.807 72.4067 194.217C71.5844 194.627 70.9121 195.286 70.4851 196.099C70.0582 196.913 69.8982 197.84 70.028 198.75C70.1578 199.66 70.5707 200.506 71.2082 201.167C71.6856 201.699 72.2847 202.107 72.9541 202.357C73.6236 202.607 74.3436 202.692 75.0528 202.603C75.7619 202.515 76.439 202.256 77.0265 201.849C77.6139 201.442 78.0941 200.899 78.4261 200.266C78.7582 199.633 78.9322 198.929 78.9333 198.215C78.9344 197.5 78.7626 196.796 78.4325 196.162C78.1024 195.528 77.6239 194.984 77.0378 194.575C76.4516 194.166 75.7753 193.905 75.0664 193.814Z" fill="#EEEFFF"/>
<path d="M264.007 204.299C263.802 201.152 263.88 202.163 263.824 201.825C263.383 201.825 262.947 201.805 262.506 201.794C262.476 201.881 262.464 201.972 262.471 202.063L262.618 204.389C262.621 204.482 262.643 204.573 262.683 204.657C262.722 204.741 262.778 204.817 262.847 204.879C262.916 204.942 262.997 204.989 263.084 205.02C263.172 205.051 263.265 205.063 263.358 205.057C263.451 205.051 263.542 205.027 263.625 204.985C263.708 204.944 263.782 204.886 263.842 204.815C263.903 204.744 263.949 204.662 263.977 204.574C264.005 204.485 264.015 204.392 264.007 204.299ZM269.131 283.967L268.845 279.538C268.834 279.352 268.749 279.178 268.61 279.055C268.47 278.932 268.287 278.869 268.102 278.88C267.916 278.892 267.742 278.977 267.619 279.116C267.496 279.256 267.433 279.438 267.444 279.624L267.73 284.054C267.741 284.239 267.826 284.413 267.965 284.536C268.105 284.66 268.288 284.722 268.473 284.711C268.659 284.7 268.833 284.615 268.956 284.475C269.079 284.336 269.142 284.153 269.131 283.967ZM269.702 292.821L269.418 288.392C269.401 288.21 269.314 288.042 269.175 287.923C269.037 287.805 268.857 287.745 268.675 287.756C268.493 287.767 268.322 287.849 268.199 287.983C268.076 288.118 268.01 288.296 268.015 288.478L268.301 292.906C268.312 293.092 268.397 293.265 268.536 293.389C268.675 293.512 268.858 293.575 269.044 293.564C269.23 293.553 269.403 293.468 269.527 293.329C269.65 293.19 269.713 293.007 269.702 292.821ZM268.56 275.113L268.276 270.686C268.261 270.501 268.175 270.329 268.037 270.207C267.898 270.084 267.717 270.02 267.532 270.028C267.44 270.033 267.35 270.056 267.267 270.096C267.184 270.137 267.109 270.193 267.048 270.262C266.987 270.331 266.94 270.411 266.91 270.499C266.881 270.586 266.868 270.678 266.875 270.77L267.16 275.2C267.177 275.381 267.264 275.548 267.403 275.667C267.541 275.785 267.72 275.845 267.902 275.834C268.083 275.823 268.254 275.741 268.376 275.607C268.499 275.472 268.565 275.295 268.56 275.113ZM270.265 301.665L269.979 297.237C269.965 297.053 269.879 296.881 269.74 296.758C269.601 296.636 269.421 296.572 269.236 296.58C269.143 296.585 269.053 296.608 268.97 296.649C268.887 296.689 268.813 296.745 268.752 296.814C268.691 296.884 268.644 296.964 268.614 297.052C268.584 297.139 268.572 297.231 268.578 297.323L268.864 301.753C268.87 301.845 268.893 301.935 268.934 302.018C268.974 302.1 269.031 302.174 269.1 302.235C269.169 302.296 269.25 302.343 269.337 302.373C269.424 302.403 269.516 302.415 269.608 302.409C269.7 302.404 269.79 302.38 269.873 302.339C269.956 302.299 270.03 302.242 270.091 302.173C270.152 302.104 270.198 302.024 270.228 301.936C270.258 301.849 270.271 301.757 270.265 301.665ZM267.99 266.265L267.704 261.835C267.69 261.651 267.604 261.479 267.465 261.356C267.327 261.234 267.146 261.17 266.961 261.178C266.869 261.183 266.778 261.206 266.695 261.247C266.612 261.287 266.537 261.344 266.476 261.413C266.415 261.482 266.368 261.563 266.339 261.651C266.309 261.738 266.297 261.831 266.303 261.923L266.589 266.351C266.6 266.537 266.685 266.71 266.825 266.834C266.964 266.957 267.147 267.02 267.333 267.008C267.518 266.997 267.692 266.912 267.815 266.773C267.939 266.633 268.002 266.45 267.99 266.265ZM266.851 248.558L266.565 244.129C266.554 243.943 266.469 243.77 266.33 243.646C266.19 243.523 266.008 243.46 265.822 243.472C265.636 243.483 265.462 243.568 265.339 243.707C265.216 243.847 265.153 244.029 265.164 244.215L265.45 248.643C265.461 248.829 265.546 249.002 265.685 249.126C265.824 249.249 266.007 249.312 266.193 249.301C266.379 249.29 266.552 249.205 266.676 249.066C266.799 248.927 266.862 248.744 266.851 248.558ZM266.77 258.154C266.862 258.149 266.952 258.126 267.036 258.086C267.119 258.046 267.193 257.989 267.254 257.92C267.316 257.851 267.362 257.77 267.392 257.683C267.422 257.595 267.434 257.503 267.427 257.411L267.142 252.983C267.13 252.797 267.046 252.623 266.906 252.5C266.767 252.377 266.584 252.314 266.398 252.325C266.212 252.337 266.039 252.422 265.915 252.561C265.792 252.701 265.729 252.883 265.741 253.069L266.026 257.497C266.037 257.675 266.116 257.843 266.246 257.965C266.377 258.087 266.549 258.155 266.728 258.154C266.741 258.159 266.756 258.159 266.77 258.154ZM270.555 306.093C270.539 305.911 270.451 305.742 270.313 305.624C270.174 305.505 269.994 305.445 269.811 305.456C269.629 305.468 269.458 305.55 269.335 305.685C269.212 305.82 269.147 305.998 269.153 306.181L269.302 308.508C269.307 308.6 269.331 308.69 269.371 308.773C269.412 308.855 269.468 308.929 269.537 308.991C269.606 309.052 269.687 309.098 269.774 309.128C269.861 309.158 269.953 309.171 270.045 309.165C270.137 309.16 270.227 309.136 270.31 309.095C270.393 309.055 270.467 308.999 270.528 308.93C270.589 308.861 270.636 308.78 270.666 308.693C270.696 308.606 270.708 308.514 270.703 308.422L270.555 306.093ZM83.7294 198.465C83.6488 196.11 82.7146 193.864 81.1009 192.147C79.4871 190.43 77.3039 189.358 74.9583 189.131C73.5672 189.07 72.1797 189.318 70.8959 189.857C69.6121 190.396 68.464 191.214 67.5341 192.25C66.6043 193.287 65.916 194.517 65.5187 195.851C65.1215 197.186 65.0252 198.592 65.2369 199.968C65.4486 201.345 65.9629 202.657 66.7428 203.81C67.5227 204.964 68.5488 205.93 69.7471 206.639C70.9455 207.349 72.2862 207.783 73.6727 207.912C75.0592 208.04 76.457 207.86 77.7654 207.383C79.5565 206.691 81.0905 205.464 82.158 203.868C83.2254 202.271 83.7741 200.385 83.7294 198.465ZM76.05 204.071C70.7164 205.322 66.3443 198.832 69.8866 194.468C70.4916 193.767 71.2518 193.217 72.1068 192.862C72.9619 192.506 73.888 192.355 74.8117 192.421C75.7353 192.486 76.6309 192.766 77.4273 193.239C78.2237 193.711 78.8988 194.363 79.399 195.142C79.8991 195.921 80.2105 196.807 80.3084 197.727C80.4063 198.648 80.2879 199.579 79.9627 200.446C79.6376 201.313 79.1145 202.092 78.4353 202.721C77.756 203.351 76.9393 203.813 76.05 204.071ZM73.9324 209.32C73.9409 210.42 73.9155 214.64 73.9155 215.644C75.0897 216.117 76.3025 216.487 77.5406 216.751V208.948C76.367 209.273 75.1475 209.398 73.9324 209.32Z" fill="#EEEFFF"/>
<path d="M84.5 172.999C82.5024 173.112 80.4964 173.168 78.4971 173.181C73.8567 173.962 69.5848 176.198 66.2985 179.566C63.0122 182.934 60.8819 187.26 60.2152 191.918C59.5485 196.576 60.3801 201.326 62.5897 205.48C64.7994 209.635 68.2727 212.979 72.5078 215.031C72.5078 213.777 72.5078 209.849 72.5247 209.131C71.1148 208.877 69.7696 208.345 68.5677 207.565C67.3657 206.786 66.3312 205.774 65.5244 204.591C64.7177 203.407 64.1549 202.074 63.8689 200.67C63.5829 199.267 63.5795 197.82 63.8588 196.415C64.1381 195.01 64.6946 193.674 65.4958 192.487C66.2969 191.299 67.3267 190.283 68.5249 189.498C69.7231 188.713 71.0657 188.174 72.4744 187.914C73.8831 187.653 75.3296 187.676 76.7294 187.98C79.0668 188.597 81.1444 189.948 82.6564 191.835C84.1684 193.721 85.035 196.043 85.1287 198.458C85.1552 200.542 84.5809 202.589 83.4747 204.354C82.3685 206.12 80.7771 207.529 78.8909 208.414C78.9669 208.619 78.9433 217.168 78.9433 216.994C81.8585 217.416 84.8285 217.252 87.6798 216.513C90.531 215.773 93.2065 214.473 95.5499 212.689C97.8933 210.904 99.8577 208.671 101.328 206.119C102.799 203.567 103.747 200.747 104.116 197.825C104.485 194.903 104.268 191.936 103.478 189.098C102.688 186.261 101.341 183.609 99.5146 181.298C97.6885 178.987 95.4203 177.062 92.8423 175.637C90.2644 174.213 87.4284 173.315 84.5 172.999ZM62.601 60.8231C63.3152 59.5644 64.2755 58.4622 65.4247 57.5825C66.5739 56.7027 67.8884 56.0633 69.29 55.7024C69.1784 55.1599 69.2641 54.5954 69.5317 54.1105C68.7902 53.6881 68.2225 53.0166 67.9295 52.2151C67.6364 51.4137 67.6371 50.5344 67.9312 49.7333C67.3142 49.8031 66.693 49.8291 66.0722 49.8111C65.9071 50.4194 65.5223 50.9449 64.9923 51.2861C64.4624 51.6273 63.8248 51.76 63.2027 51.6585C62.5806 51.5571 62.0181 51.2287 61.624 50.7369C61.2298 50.245 61.032 49.6245 61.0686 48.9953C61.1052 48.366 61.3736 47.7727 61.8221 47.3298C62.2706 46.8869 62.8674 46.626 63.497 46.5973C64.1267 46.5687 64.7446 46.7744 65.2315 47.1748C65.7183 47.5751 66.0395 48.1417 66.1331 48.765C67.3813 48.833 68.63 48.6413 69.8004 48.2022C70.5105 47.9451 71.1236 47.4746 71.5557 46.8553C71.9878 46.2359 72.2176 45.498 72.2137 44.7428C71.8888 44.7023 71.5777 44.5875 71.3044 44.4073C71.0311 44.227 70.8031 43.9862 70.638 43.7035C70.4729 43.4208 70.3752 43.1039 70.3525 42.7773C70.3299 42.4507 70.3828 42.1233 70.5072 41.8205C70.6316 41.5177 70.8241 41.2476 71.0699 41.0313C71.3156 40.815 71.6079 40.6583 71.924 40.5733C72.2402 40.4883 72.5717 40.4774 72.8927 40.5413C73.2138 40.6053 73.5158 40.7424 73.7753 40.942C73.9762 40.5652 74.217 40.2111 74.4935 39.8857C70.8327 40.2374 67.3156 41.4883 64.2549 43.5271C61.1942 45.5659 58.6847 48.3295 56.9496 51.5721C57.0646 53.4583 57.6398 55.2877 58.6249 56.9003C59.6101 58.513 60.9752 59.8598 62.601 60.8231ZM74.6338 42.3987C74.669 42.7031 74.6385 43.0115 74.5443 43.303C74.4501 43.5946 74.2945 43.8625 74.0879 44.0887C73.9091 44.862 73.796 45.6489 73.7499 46.4412C74.164 46.0651 74.7059 45.8612 75.2652 45.8709C75.8245 45.8806 76.359 46.1034 76.7598 46.4936C77.9642 46.0757 79.2794 46.1093 80.4609 46.5883C80.2808 45.8776 79.8616 45.2505 79.2739 44.8123C78.6861 44.3741 77.9655 44.1515 77.233 44.1817C77.113 44.172 77.0002 44.121 76.9136 44.0374C76.827 43.9538 76.772 43.8427 76.7581 43.7232C76.7441 43.6037 76.7721 43.483 76.8371 43.3817C76.9021 43.2804 77.0002 43.2048 77.1147 43.1677C78.2777 43.1313 79.4096 43.5471 80.2724 44.3277C81.1353 45.1083 81.662 46.193 81.7419 47.3538C84.1873 49.4139 83.8679 54.08 79.6074 56.277C79.0109 56.588 78.4735 55.6805 79.0802 55.3695C82.6596 53.5206 82.979 49.855 81.0862 48.165C80.5657 47.7399 79.9488 47.449 79.2896 47.3179C78.6305 47.1868 77.9492 47.2194 77.3057 47.413C77.4434 47.8675 77.4303 48.3544 77.268 48.8007C77.1058 49.2471 76.8034 49.6289 76.4059 49.8889C76.0085 50.1489 75.5375 50.2731 75.0636 50.2429C74.5896 50.2128 74.1382 50.0298 73.7769 49.7215C73.9823 51.7738 74.3582 53.8055 74.9008 55.7954C76.02 56.1372 77.0711 56.6714 78.007 57.3738C80.2284 56.2476 82.5548 55.342 84.9529 54.6698C86.0659 54.3221 87.0803 53.7147 87.9125 52.8979C88.7446 52.081 89.3707 51.078 89.739 49.9716C91.287 45.2396 85.4092 41.3898 80.586 40.146C79.3104 39.9109 78.0163 39.7905 76.7192 39.786C75.7873 40.4383 75.0632 41.3454 74.6338 42.3987ZM67.6 66.5032L69.29 66.1179C69.8342 65.9354 68.783 64.9704 72.3202 61.4265C71.6486 61.3431 70.9668 61.4204 70.3309 61.6519C69.695 61.8834 69.1231 62.2626 68.6623 62.7582C68.2015 63.2538 67.8649 63.8518 67.6802 64.5028C67.4956 65.1539 67.4681 65.8395 67.6 66.5032Z" fill="#EEEFFF"/>
<path d="M76.6314 58.136C75.6179 57.4807 74.4797 57.0423 73.2885 56.8482C72.8659 57.2968 72.2827 57.5597 71.6667 57.5793C71.0506 57.5989 70.4519 57.3737 70.0015 56.953C68.7008 57.2434 67.4753 57.8027 66.4037 58.595C65.332 59.3872 64.438 60.3949 63.7789 61.5532C64.5212 61.9841 65.2939 62.3602 66.0908 62.6787V66.8665C66.1416 66.848 66.1936 66.8328 66.2463 66.8209C66.051 65.8393 66.1155 64.8237 66.4335 63.8746C66.7514 62.9256 67.3117 62.076 68.0588 61.4101C68.806 60.7442 69.7142 60.285 70.6934 60.078C71.6727 59.871 72.689 59.9234 73.6418 60.2299C74.5831 59.4563 75.5826 58.7563 76.6314 58.136ZM69.0804 52.1128C69.3888 52.5845 69.7784 52.9977 70.2313 53.333C70.6168 53.0526 71.0795 52.8979 71.5561 52.89C72.0328 52.8822 72.5002 53.0215 72.8948 53.2891C72.5044 51.4317 72.3073 49.539 72.3067 47.6411C72.2981 47.6601 72.2867 47.6778 72.2729 47.6935C71.527 48.5835 70.5132 49.2084 69.383 49.4747C69.0544 49.8343 68.8301 50.2766 68.734 50.7541C68.6757 51.2344 68.7993 51.7191 69.0804 52.1128ZM74.5729 28.2906C75.0863 28.5685 75.6605 28.7152 76.2443 28.7175C76.8281 28.7199 77.4035 28.5778 77.9191 28.304C78.4347 28.0302 78.8746 27.6332 79.1996 27.1482C79.5247 26.6632 79.7247 26.1054 79.782 25.5244C79.8393 24.9434 79.752 24.3573 79.5279 23.8182C79.3039 23.2791 78.95 22.8038 78.4978 22.4345C78.0456 22.0653 77.5091 21.8136 76.936 21.7019C76.363 21.5902 75.7713 21.6219 75.2135 21.7942C72.4148 22.6004 72.1867 26.9132 74.5729 28.2906ZM123.247 318.71C122.98 318.528 103.812 308.873 93.9065 306.123C92.2053 305.543 90.4042 305.313 88.6118 305.447C86.6531 306.101 86.0768 309.071 85.9213 311.131C87.6113 311.893 98.6757 317.025 99.519 317.688C99.8929 317.983 100.181 318.373 100.353 318.818C100.526 319.262 100.576 319.744 100.499 320.214C100.423 320.685 100.222 321.126 99.917 321.492C99.6124 321.859 99.2153 322.137 98.767 322.298C105.282 322.653 116.174 322.947 122.469 321.13C122.713 321.097 122.946 321.008 123.15 320.872C123.355 320.736 123.527 320.556 123.652 320.345C123.798 320.07 123.837 319.751 123.762 319.45C123.687 319.148 123.504 318.885 123.247 318.71Z" fill="#EEEFFF"/>
<path d="M99.034 320.328C99.1686 320.051 99.199 319.735 99.1195 319.438C99.04 319.141 98.8561 318.883 98.6014 318.71C98.0623 318.339 70.5744 304.538 64.2521 305.371C63.6405 305.479 63.095 305.821 62.7311 306.324C61.2101 308.15 61.1543 311.884 61.2693 314.247C61.2177 316.113 61.8036 317.941 62.9305 319.429C64.1269 320.842 65.8342 321.725 67.6794 321.884C75.7593 322.477 90.0381 323.36 97.8155 321.132C98.0649 321.095 98.303 321.003 98.5135 320.864C98.7239 320.725 98.9015 320.542 99.034 320.328Z" fill="#EEEFFF"/>
<path d="M194.627 170.369C194.627 170.369 193.037 160.197 187.475 160.197C187.475 160.197 185.407 160.672 187.475 167.825C187.475 167.825 184.771 159.08 181.428 159.882C178.085 160.685 181.584 170.54 181.584 170.54C181.584 170.54 176.176 158.776 173.789 160.842C171.403 162.909 173.634 174.839 178.555 176.906C183.477 178.973 196.219 176.267 194.627 170.369ZM188.399 153.026C189.741 152.766 192.205 152.369 191.012 150.552C188.79 147.172 178.613 149.408 176.902 152.541C175.321 155.431 185.167 153.663 188.399 153.026Z" fill="#EEEFFF"/>
<path d="M264.581 213.153L264.296 208.723C264.29 208.631 264.266 208.542 264.226 208.459C264.185 208.376 264.129 208.302 264.06 208.241C263.991 208.18 263.911 208.133 263.823 208.103C263.736 208.073 263.644 208.06 263.552 208.066C263.46 208.072 263.37 208.095 263.287 208.136C263.205 208.176 263.13 208.233 263.069 208.302C263.008 208.371 262.962 208.451 262.932 208.538C262.902 208.625 262.889 208.718 262.895 208.81L263.18 213.239C263.192 213.425 263.277 213.599 263.416 213.722C263.555 213.845 263.738 213.908 263.924 213.897C264.11 213.885 264.283 213.8 264.407 213.661C264.53 213.521 264.593 213.339 264.581 213.153ZM265.161 222.005L264.875 217.577C264.87 217.485 264.846 217.395 264.806 217.313C264.765 217.23 264.709 217.156 264.64 217.095C264.571 217.034 264.49 216.987 264.403 216.957C264.316 216.927 264.224 216.914 264.132 216.92C264.04 216.926 263.95 216.949 263.867 216.99C263.784 217.03 263.71 217.087 263.649 217.156C263.588 217.225 263.541 217.305 263.511 217.392C263.481 217.479 263.469 217.572 263.474 217.664L263.76 222.093C263.772 222.279 263.857 222.452 263.996 222.576C264.136 222.699 264.319 222.761 264.504 222.75C264.69 222.738 264.864 222.653 264.987 222.513C265.11 222.374 265.173 222.191 265.161 222.005ZM266.285 239.708L265.999 235.28C265.982 235.099 265.895 234.931 265.757 234.813C265.619 234.694 265.44 234.635 265.258 234.646C265.076 234.657 264.906 234.738 264.783 234.873C264.66 235.007 264.595 235.184 264.6 235.366L264.884 239.796C264.895 239.982 264.98 240.155 265.12 240.278C265.26 240.401 265.443 240.464 265.628 240.452C265.814 240.441 265.988 240.356 266.111 240.216C266.234 240.077 266.297 239.894 266.285 239.708ZM265.724 230.854L265.438 226.426C265.423 226.242 265.338 226.07 265.199 225.947C265.06 225.825 264.88 225.761 264.695 225.769C264.602 225.774 264.512 225.797 264.429 225.837C264.346 225.877 264.272 225.933 264.211 226.002C264.15 226.071 264.103 226.152 264.073 226.239C264.043 226.326 264.031 226.419 264.037 226.511L264.323 230.94C264.328 231.032 264.352 231.122 264.393 231.205C264.433 231.288 264.489 231.362 264.558 231.423C264.627 231.484 264.708 231.531 264.795 231.561C264.882 231.591 264.974 231.603 265.066 231.598C265.158 231.592 265.248 231.568 265.331 231.528C265.414 231.487 265.488 231.431 265.549 231.362C265.61 231.293 265.657 231.213 265.687 231.125C265.717 231.038 265.729 230.946 265.724 230.854Z" fill="#EEEFFF"/>
<path d="M235.18 70.451C237.139 71.4329 241.525 71.9315 246.672 70.0539C248.503 69.3728 250.264 68.5183 251.932 67.502C250.431 73.2209 246.608 76.628 240.791 76.7834C240.611 76.7923 240.442 76.8699 240.318 77.0003C240.194 77.1307 240.124 77.3039 240.124 77.484C240.124 77.664 240.194 77.8372 240.318 77.9676C240.442 78.098 240.611 78.1756 240.791 78.1845C242.546 78.1892 244.283 77.8261 245.889 77.1184C247.494 76.4108 248.934 75.3744 250.115 74.0761C252.034 71.788 253.262 69.0006 253.654 66.0401C253.653 65.9168 253.62 65.7959 253.558 65.6894C253.496 65.5829 253.407 65.4945 253.3 65.4331C253.193 65.3717 253.072 65.3394 252.949 65.3395C252.826 65.3395 252.704 65.3719 252.598 65.4334C247.644 68.7171 241.626 71.1676 235.98 69.2917C235.969 69.2894 235.957 69.2894 235.946 69.2917C235.197 68.7695 234.313 70.0167 235.18 70.451Z" fill="#1F2937"/>
<path d="M249.011 61.3774C249.933 61.3774 250.681 60.6298 250.681 59.7077C250.681 58.7855 249.933 58.038 249.011 58.038C248.089 58.038 247.342 58.7855 247.342 59.7077C247.342 60.6298 248.089 61.3774 249.011 61.3774Z" fill="#1F2937"/>
<path d="M248.242 52.0351C250.472 51.2932 253.955 52.5083 255.249 57.4938C255.298 57.6731 255.417 57.8254 255.579 57.9174C255.74 58.0093 255.932 58.0332 256.111 57.9839C256.29 57.9346 256.443 57.8161 256.535 57.6545C256.627 57.4928 256.65 57.3013 256.601 57.122C255.335 52.221 252.153 50.2792 248.841 50.531C248.515 50.5518 248.191 50.5982 247.872 50.6696C247.705 50.7302 247.566 50.8515 247.484 51.0096C247.402 51.1676 247.382 51.3508 247.429 51.5227C247.475 51.6947 247.585 51.8428 247.736 51.9377C247.886 52.0326 248.067 52.0674 248.242 52.0351ZM76.05 204.071C81.458 202.798 81.965 194.183 76.1751 192.609C75.0586 192.289 73.874 192.294 72.7603 192.624C71.6465 192.953 70.6497 193.593 69.8866 194.468C66.3393 198.832 70.7028 205.325 76.05 204.071ZM71.2149 201.167C70.5775 200.506 70.1646 199.66 70.0348 198.75C69.905 197.84 70.0649 196.913 70.4919 196.099C70.9188 195.286 71.5912 194.627 72.4135 194.217C73.2358 193.807 74.1663 193.666 75.0732 193.814C79.8542 194.379 80.0705 200.838 76.4049 202.482C75.5107 202.839 74.5265 202.905 73.5931 202.668C72.6597 202.432 71.8249 201.907 71.2082 201.167H71.2149ZM78.585 125.99C78.4971 117.09 67.4834 114.743 62.841 120.609C61.7183 122.081 61.0882 123.869 61.0403 125.72C60.9924 127.571 61.529 129.389 62.5739 130.918C63.5934 132.499 65.0761 133.728 66.8199 134.436C68.5636 135.144 70.4833 135.296 72.3168 134.872C74.1965 134.293 75.8311 133.107 76.9652 131.499C78.0993 129.892 78.669 127.955 78.585 125.99ZM73.079 133.121C71.6199 133.74 70.0023 133.879 68.4588 133.521C66.9152 133.162 65.5253 132.322 64.4887 131.124C63.417 129.979 62.7255 128.53 62.5089 126.977C62.2923 125.424 62.5611 123.842 63.2787 122.447C63.9002 121.443 64.7433 120.594 65.7434 119.966C66.7435 119.338 67.8742 118.947 69.0486 118.824C70.2231 118.7 71.4103 118.847 72.5193 119.253C73.6283 119.659 74.6297 120.313 75.4467 121.166C76.1645 122.076 76.6766 123.13 76.9476 124.257C77.2186 125.383 77.242 126.555 77.0163 127.691C76.7906 128.828 76.3211 129.902 75.6402 130.839C74.9593 131.777 74.0831 132.555 73.0722 133.121H73.079ZM67.3803 62.0957C66.6228 63.0759 66.1896 64.2678 66.1408 65.5057C66.092 66.7436 66.4302 67.9659 67.1082 69.0027C67.776 70.0571 68.7508 70.8816 69.9015 71.365C71.0521 71.8485 72.3233 71.9677 73.5437 71.7067C74.8189 71.3356 75.9336 70.5492 76.7109 69.4725C77.4883 68.3957 77.8838 67.0901 77.8346 65.763C77.8465 64.5132 77.4449 63.2945 76.6924 62.2966C75.9399 61.2987 74.8787 60.5775 73.6739 60.2451C73.6627 60.2435 73.6519 60.24 73.6418 60.235C72.5289 59.9222 71.3502 59.931 70.2421 60.2603C69.134 60.5896 68.1418 61.2259 67.3803 62.0957ZM72.5652 61.4383C77.331 61.9554 77.5659 68.4602 73.8986 70.1046C73.2503 70.3527 72.5549 70.4537 71.8627 70.4003C71.1706 70.3469 70.4989 70.1405 69.8962 69.7959C69.2936 69.4513 68.775 68.9772 68.3779 68.4077C67.9808 67.8383 67.7151 67.1878 67.6 66.5032C67.4663 65.8181 67.5012 65.1107 67.7017 64.4421C67.9022 63.7735 68.2622 63.1637 68.7509 62.6652C69.2396 62.1668 69.8421 61.7946 70.5066 61.5809C71.1711 61.3671 71.8776 61.3182 72.5652 61.4383Z" fill="#1F2937"/>
<path d="M89.6849 62.6922C90.7406 62.6922 91.5963 61.8365 91.5963 60.7808C91.5963 59.7252 90.7406 58.8694 89.6849 58.8694C88.6293 58.8694 87.7735 59.7252 87.7735 60.7808C87.7735 61.8365 88.6293 62.6922 89.6849 62.6922Z" fill="#374151"/>
<path d="M66.8057 83.4522C69.994 84.9029 73.4653 85.6253 76.9677 85.5671C80.47 85.5088 83.9154 84.6714 87.0537 83.1156C90.192 81.5597 92.9445 79.3246 95.1112 76.5723C97.278 73.8201 98.8046 70.6199 99.5804 67.2041C100.356 63.7883 100.361 60.2426 99.596 56.8244C98.8306 53.4063 97.3135 50.2015 95.1551 47.4427C92.9966 44.684 90.2509 42.4406 87.1173 40.8753C83.9836 39.31 80.5408 38.4622 77.0387 38.3935V30.0296C78.185 29.8168 79.2236 29.2171 79.9809 28.3306C80.7382 27.4441 81.1683 26.3246 81.1994 25.1591C81.1927 24.477 81.0458 23.8036 80.768 23.1807C80.4901 22.5578 80.0872 21.9986 79.5842 21.5379C79.0812 21.0772 78.4888 20.7248 77.844 20.5026C77.1991 20.2804 76.5154 20.1932 75.8354 20.2462C70.1485 20.7532 70.113 29.3114 75.6275 30.0482V38.4036C71.3389 38.599 67.1812 39.9414 63.5879 42.2906C60.082 44.62 57.2618 47.8435 55.419 51.6279C53.5761 55.4123 52.7774 59.6202 53.1055 63.8166C53.4335 68.0131 54.8764 72.0458 57.285 75.4978C59.6935 78.9498 62.9804 81.6959 66.8057 83.4522ZM74.5797 28.2906C72.1917 26.8998 72.4351 22.5987 75.2202 21.7943C75.778 21.6219 76.3698 21.5902 76.9428 21.7019C77.5158 21.8137 78.0523 22.0653 78.5045 22.4346C78.9567 22.8038 79.3106 23.2791 79.5347 23.8182C79.7588 24.3573 79.846 24.9435 79.7888 25.5245C79.7315 26.1055 79.5314 26.6633 79.2064 27.1482C78.8814 27.6332 78.4414 28.0303 77.9258 28.3041C77.4102 28.5779 76.8349 28.7199 76.2511 28.7176C75.6673 28.7152 75.0931 28.5686 74.5797 28.2906ZM56.9648 51.5721C58.7008 48.33 61.2104 45.5668 64.271 43.5278C67.3315 41.4889 70.8482 40.2372 74.5087 39.884C71.3603 43.8184 72.1123 50.531 73.3528 55.4422C71.3438 55.1759 69.3006 55.4825 67.4583 56.3267C65.616 57.1709 64.0497 58.5183 62.9397 60.2138C61.8297 61.9092 61.2212 63.8838 61.1843 65.9099C61.1474 67.9361 61.6836 69.9314 62.7311 71.6662C63.8835 73.5667 65.5848 75.0734 67.6107 75.9875C69.6366 76.9016 71.892 77.1804 74.0795 76.7869C76.5267 76.2753 78.7187 74.9257 80.2773 72.971C81.836 71.0162 82.6636 68.5787 82.6173 66.079C82.522 63.7808 81.7305 61.5659 80.348 59.7276C78.9654 57.8893 77.057 56.5145 74.8755 55.7852C73.6895 52.0021 73.411 47.9928 74.0626 44.082C74.3621 42.3693 75.2985 40.8334 76.6838 39.7826C80.2333 39.8018 83.7261 40.6741 86.8679 42.326C90.0096 43.978 92.708 46.3612 94.7357 49.2746C96.7634 52.188 98.0608 55.5462 98.5185 59.0662C98.9763 62.5861 98.581 66.1645 97.366 69.4996C93.3286 72.3726 89.3892 70.8178 87.1668 66.4981C86.7528 65.6937 85.541 66.4035 85.9568 67.208C88.12 71.4008 92.1354 73.5962 96.4669 71.6358C94.8507 74.9855 92.4171 77.8745 89.3904 80.0361C86.3638 82.1978 82.8417 83.5626 79.1488 84.0048C75.4558 84.4469 71.711 83.9522 68.2597 82.5661C64.8083 81.18 61.7615 78.9472 59.4001 76.0737C56.6448 72.6742 54.9457 68.542 54.5129 64.1876C54.0801 59.8332 54.9325 55.4474 56.9648 51.5721ZM81.2248 66.0959C81.2648 68.0164 80.7126 69.9026 79.6431 71.4981C78.5737 73.0937 77.0388 74.3213 75.2473 75.0141C73.4143 75.66 71.4275 75.729 69.5542 75.2117C67.6809 74.6945 66.011 73.6157 64.7693 72.1208C63.7414 70.8791 63.0504 69.3938 62.7628 67.8077C62.4751 66.2217 62.6004 64.5883 63.1267 63.0648C63.6529 61.5412 64.5624 60.1787 65.7676 59.1083C66.9728 58.0379 68.4332 57.2957 70.0083 56.953C71.3611 56.7093 72.7507 56.7612 74.0817 57.105C75.4126 57.4489 76.6535 58.0767 77.719 58.9452C78.7845 59.8137 79.6495 60.9025 80.2546 62.1368C80.8598 63.3711 81.1907 64.7217 81.2248 66.0959ZM124.198 317.673C116.011 313.409 107.59 309.611 98.9749 306.297C98.9749 306.297 98.9918 210.582 98.9749 209.545C98.5242 210.064 98.0572 210.561 97.5738 211.034C97.5738 211.034 97.5553 304.749 97.5738 305.795C96.3051 305.361 95.0242 304.963 93.7325 304.602C93.7325 303.892 93.9572 216.077 93.9657 213.849C93.5077 214.135 93.0413 214.412 92.5647 214.664C92.5647 215.857 92.3315 303.206 92.3399 304.244C91.1054 303.921 89.8189 303.849 88.556 304.031C85.8943 304.538 84.8701 307.815 84.62 310.502C83.1108 309.826 80.3443 308.631 78.8943 308.062C78.9669 307.916 79.0193 208.715 78.9112 208.431C80.7983 207.547 82.3905 206.137 83.4968 204.371C84.6032 202.605 85.1768 200.557 85.149 198.474C85.059 196.057 84.1938 193.733 82.6812 191.846C81.1686 189.959 79.0889 188.609 76.7497 187.996C75.3531 187.699 73.9116 187.683 72.5087 187.948C71.1059 188.213 69.7696 188.754 68.5775 189.54C67.3854 190.325 66.3612 191.34 65.5643 192.524C64.7674 193.709 64.2137 195.04 63.9353 196.44C63.6569 197.84 63.6593 199.282 63.9425 200.681C64.2257 202.081 64.7839 203.41 65.5849 204.592C66.3858 205.774 67.4135 206.785 68.6083 207.566C69.8031 208.348 71.1412 208.884 72.5449 209.144C72.5449 209.854 72.2847 304.443 72.3033 305.593C71.6546 305.376 71.0028 305.168 70.3479 304.971C66.2919 303.776 62.8883 302.851 61.0225 306.466C60.2044 308.307 59.8144 310.309 59.8818 312.322C59.7116 314.427 60.0129 316.543 60.764 318.516C61.3909 319.862 62.3679 321.014 63.5929 321.852C64.8178 322.691 66.2456 323.184 67.7268 323.282C76.3334 324.147 85.0036 324.176 93.6159 323.37C101.508 323.941 114.984 324.635 122.586 322.555C123.076 322.453 123.548 322.278 123.987 322.036C124.346 321.805 124.644 321.491 124.857 321.121C125.071 320.751 125.193 320.335 125.213 319.909C125.234 319.482 125.153 319.057 124.976 318.668C124.8 318.279 124.533 317.938 124.198 317.673ZM67.2755 204.504C66.1044 203.103 65.3674 201.392 65.155 199.579C64.9425 197.766 65.2639 195.931 66.0796 194.298C66.8954 192.665 68.17 191.305 69.7472 190.386C71.3243 189.468 73.1354 189.029 74.9583 189.125C77.3011 189.358 79.48 190.433 81.0924 192.148C82.7047 193.864 83.6414 196.106 83.7294 198.458C83.7692 200.381 83.2156 202.27 82.1439 203.867C81.0722 205.464 79.5345 206.691 77.74 207.383C75.9107 208.032 73.9264 208.103 72.0551 207.588C70.1838 207.073 68.5156 205.997 67.2755 204.504ZM77.5389 307.518C76.268 307.01 74.9887 306.522 73.6908 306.073C73.6908 305.216 73.9493 210.435 73.9324 209.337C75.1487 209.424 76.3708 209.293 77.5406 208.948C77.5406 208.948 77.5135 306.245 77.5389 307.518ZM67.7132 321.867C65.8677 321.708 64.1603 320.825 62.9643 319.41C61.8336 317.924 61.2472 316.095 61.3031 314.229C61.1729 311.557 61.2524 306.931 63.5863 305.609C65.8086 304.278 75.3453 308.116 77.7907 309.096C86.7629 312.726 98.4526 318.579 98.6284 318.699C98.8825 318.871 99.0661 319.13 99.1455 319.427C99.2249 319.724 99.1949 320.039 99.061 320.316C98.9339 320.526 98.762 320.706 98.5575 320.842C98.353 320.978 98.121 321.067 97.878 321.103C90.3221 323.305 75.467 322.488 67.7132 321.867ZM123.679 320.328C123.552 320.538 123.381 320.718 123.176 320.854C122.972 320.99 122.739 321.079 122.496 321.115C116.194 322.93 105.333 322.636 98.794 322.283C99.2417 322.121 99.6381 321.842 99.9422 321.476C100.246 321.11 100.447 320.669 100.524 320.199C100.601 319.729 100.551 319.247 100.379 318.803C100.208 318.359 99.9205 317.969 99.5478 317.673C98.6791 316.997 88.1927 312.124 85.95 311.116C86.0886 309.224 86.577 306.553 88.2332 305.613C90.4539 304.281 99.999 308.123 102.429 309.101C111.369 312.706 123.047 318.54 123.269 318.693C123.515 318.876 123.691 319.139 123.766 319.437C123.841 319.735 123.81 320.05 123.679 320.328Z" fill="#6B45E6"/>
<path d="M68.5396 106.457C69.1557 106.457 69.655 105.957 69.655 105.341C69.655 104.725 69.1557 104.226 68.5396 104.226C67.9236 104.226 67.4242 104.725 67.4242 105.341C67.4242 105.957 67.9236 106.457 68.5396 106.457Z" fill="#5C37CB"/>
<path d="M77.2854 106.612C77.9014 106.612 78.4008 106.113 78.4008 105.497C78.4008 104.881 77.9014 104.381 77.2854 104.381C76.6694 104.381 76.17 104.881 76.17 105.497C76.17 106.113 76.6694 106.612 77.2854 106.612Z" fill="#5C37CB"/>
<path d="M66.0013 168.625C66.6173 168.625 67.1167 168.125 67.1167 167.509C67.1167 166.893 66.6173 166.394 66.0013 166.394C65.3852 166.394 64.8859 166.893 64.8859 167.509C64.8859 168.125 65.3852 168.625 66.0013 168.625Z" fill="#5C37CB"/>
<path d="M74.9025 168.785C75.5185 168.785 76.0179 168.286 76.0179 167.67C76.0179 167.054 75.5185 166.555 74.9025 166.555C74.2865 166.555 73.7871 167.054 73.7871 167.67C73.7871 168.286 74.2865 168.785 74.9025 168.785Z" fill="#191919"/>
<path d="M284.495 313.762C271.157 309.659 253.311 314.22 243.242 322.136C243.087 322.259 242.975 322.427 242.922 322.616C242.868 322.806 242.875 323.008 242.942 323.193C243.009 323.379 243.133 323.538 243.295 323.65C243.458 323.761 243.651 323.819 243.848 323.814C258.551 323.589 269.574 323.459 282.921 323.736C284.153 323.763 285.353 323.341 286.299 322.551C287.244 321.76 287.871 320.654 288.063 319.436C288.255 318.219 287.999 316.973 287.343 315.93C286.687 314.887 285.675 314.116 284.495 313.762ZM65.888 20.0992C66.0489 20.1923 66.24 20.2181 66.4198 20.1709C66.5996 20.1237 66.7535 20.0075 66.848 19.8474C66.939 19.6862 66.9638 19.4959 66.9171 19.3168C66.8704 19.1377 66.756 18.9837 66.5978 18.8875C64.9347 17.7445 63.147 16.7943 61.2693 16.055C61.0891 16.0077 60.8976 16.0328 60.7359 16.1251C60.5741 16.2173 60.4549 16.3694 60.404 16.5485C60.1049 17.6892 61.7949 17.238 65.888 20.0992ZM69.9102 14.6151C69.9741 14.6845 70.0513 14.7402 70.1372 14.779C70.2231 14.8178 70.3159 14.8389 70.4102 14.8411C70.5044 14.8432 70.5981 14.8263 70.6857 14.7914C70.7733 14.7565 70.8529 14.7043 70.9198 14.6379C70.9868 14.5716 71.0396 14.4924 71.0753 14.4051C71.1109 14.3178 71.1286 14.2243 71.1273 14.13C71.126 14.0358 71.1057 13.9428 71.0676 13.8565C71.0295 13.7703 70.9744 13.6926 70.9056 13.6282C69.7108 12.3573 68.5177 11.0763 67.3245 9.81385C67.192 9.68288 67.0132 9.60943 66.8268 9.60943C66.6405 9.60943 66.4617 9.68288 66.3291 9.81385C66.2022 9.94814 66.1315 10.1259 66.1315 10.3107C66.1315 10.4955 66.2022 10.6733 66.3291 10.8076C66.7043 11.2081 69.3965 14.049 69.9102 14.6151ZM80.1736 16.2494C80.3291 15.3418 81.147 10.7298 81.3887 9.33727C81.4325 9.15752 81.4058 8.96782 81.314 8.80719C81.2222 8.64656 81.0723 8.52721 80.8952 8.47368C80.7155 8.42493 80.5238 8.44929 80.362 8.54144C80.2002 8.63358 80.0814 8.78603 80.0316 8.96547C79.7883 10.3327 78.9805 14.943 78.8148 15.8776C78.7723 16.0555 78.8007 16.243 78.8939 16.4004C78.9871 16.5578 79.1378 16.6728 79.3143 16.721C79.4907 16.7693 79.679 16.7471 79.8394 16.6591C79.9997 16.5711 80.1196 16.4241 80.1736 16.2494ZM84.4865 18.9652C84.8836 18.5241 88.725 14.2518 90.2561 12.5652C90.8612 11.8993 89.8658 10.9039 89.2607 11.5698C87.782 13.2141 83.9322 17.4848 83.4911 17.9715C82.8945 18.6458 83.8798 19.6395 84.4865 18.9652ZM85.4582 24.4881C85.295 24.551 85.161 24.6724 85.0823 24.8286C85.0036 24.9848 84.9859 25.1647 85.0324 25.3333C85.079 25.5019 85.1866 25.6472 85.3344 25.7409C85.4821 25.8345 85.6594 25.8699 85.8317 25.8401C86.2627 25.6711 91.6741 23.4488 93.9437 22.5142C94.1064 22.4511 94.24 22.3298 94.3184 22.1739C94.3969 22.018 94.4147 21.8386 94.3684 21.6703C94.3221 21.502 94.2151 21.3569 94.0679 21.263C93.9208 21.1692 93.744 21.1332 93.5719 21.1622C91.4746 22.0275 86.0633 24.2346 85.4582 24.4881ZM81.1031 326.375H71.5631C71.3832 326.383 71.2137 326.461 71.0895 326.591C70.9654 326.722 70.8961 326.895 70.8961 327.075C70.8961 327.255 70.9654 327.428 71.0895 327.559C71.2137 327.689 71.3832 327.767 71.5631 327.776H81.1031C81.2829 327.767 81.4525 327.689 81.5766 327.559C81.7008 327.428 81.77 327.255 81.77 327.075C81.77 326.895 81.7008 326.722 81.5766 326.591C81.4525 326.461 81.2829 326.383 81.1031 326.375ZM95.8872 327.326H89.2083C89.0285 327.335 88.859 327.413 88.7348 327.543C88.6107 327.673 88.5414 327.846 88.5414 328.026C88.5414 328.207 88.6107 328.38 88.7348 328.51C88.859 328.641 89.0285 328.718 89.2083 328.727H95.8872C96.0671 328.718 96.2366 328.641 96.3608 328.51C96.4849 328.38 96.5542 328.207 96.5542 328.026C96.5542 327.846 96.4849 327.673 96.3608 327.543C96.2366 327.413 96.0671 327.335 95.8872 327.326ZM122.131 327.023C115.79 326.348 109.416 325.942 103.034 325.82C102.854 325.829 102.685 325.907 102.561 326.037C102.437 326.168 102.367 326.341 102.367 326.521C102.367 326.701 102.437 326.874 102.561 327.004C102.685 327.135 102.854 327.212 103.034 327.221C109.409 327.351 115.784 327.75 122.131 328.424C123.032 328.519 123.022 327.118 122.131 327.023ZM58.9168 320.189C57.1635 320.068 55.4027 320.112 53.6575 320.319C53.4777 320.328 53.3081 320.406 53.184 320.536C53.0598 320.667 52.9906 320.84 52.9906 321.02C52.9906 321.2 53.0598 321.373 53.184 321.503C53.3081 321.634 53.4777 321.711 53.6575 321.72C55.4026 321.512 57.1635 321.469 58.9168 321.59C59.1022 321.59 59.2799 321.516 59.411 321.385C59.5421 321.254 59.616 321.076 59.6164 320.89C59.613 320.706 59.5382 320.53 59.4078 320.399C59.2774 320.268 59.1014 320.193 58.9168 320.189ZM242.334 325.259C238.198 325.175 234.063 325.085 229.93 324.99C229.75 324.999 229.58 325.077 229.456 325.207C229.332 325.338 229.263 325.511 229.263 325.691C229.263 325.871 229.332 326.044 229.456 326.175C229.58 326.305 229.75 326.383 229.93 326.391C234.063 326.477 238.198 326.567 242.334 326.66C242.514 326.651 242.684 326.574 242.808 326.443C242.932 326.313 243.001 326.14 243.001 325.96C243.001 325.78 242.932 325.606 242.808 325.476C242.684 325.346 242.514 325.268 242.334 325.259ZM237.264 319.532C231.765 318.621 226.205 318.126 220.631 318.053C220.451 318.062 220.282 318.139 220.158 318.27C220.034 318.4 219.964 318.573 219.964 318.753C219.964 318.934 220.034 319.107 220.158 319.237C220.282 319.367 220.451 319.445 220.631 319.454C226.08 319.513 231.517 319.991 236.892 320.882C237.783 321.029 238.155 319.679 237.264 319.532ZM284.797 328.147C278.595 327.771 272.393 327.385 266.19 326.988C265.291 326.937 265.291 328.34 266.19 328.389C272.393 328.78 278.595 329.166 284.797 329.548C285.696 329.601 285.696 328.198 284.797 328.147ZM299.338 320.907C296.553 320.801 293.776 320.699 290.991 320.596C290.092 320.563 290.092 321.964 290.991 321.997L299.338 322.308C300.237 322.342 300.237 320.941 299.338 320.907ZM177.438 153.077C177.45 153.035 177.45 153.051 177.438 153.077V153.077Z" fill="#EEEFFF"/>
<path d="M277.255 94.7921C270.221 88.7081 260.789 86.6683 252.679 91.1163C237.756 99.3213 231.675 126.731 228.978 143.587C220.699 145.254 212.531 147.435 204.524 150.119C200.709 150.214 192.197 150.413 191.756 150.43C189.983 146.93 181.217 147.713 177.288 151.096C173.26 151.965 169.233 153.761 168.064 157.714L138.428 157.523C137.287 156.289 135.761 155.48 134.099 155.229C132.438 154.977 130.74 155.298 129.285 156.139C126.89 155.494 124.585 154.549 122.425 153.329C120.279 118.146 105.684 90.6567 71.2183 96.4888C54.7949 99.2571 43.0916 108.887 38.1061 126.064C34.5808 138.215 34.8833 153.711 37.2493 164.748C37.2545 164.853 37.2889 164.955 37.3485 165.042C37.4082 165.13 37.4908 165.198 37.5873 165.241C38.852 165.873 40.1495 166.438 41.4743 166.931C65.7156 176.35 95.9514 174.587 122.069 165.314C122.662 165.099 122.603 164.767 122.631 162.948C122.883 163.088 125.477 164.537 125.755 164.584C126.15 166.035 126.974 167.332 128.119 168.307C129.264 169.281 130.677 169.888 132.172 170.047C133.667 170.205 135.176 169.909 136.5 169.197C137.824 168.485 138.902 167.389 139.594 166.054H169.811C170.665 167.351 171.707 168.513 172.904 169.502C173.997 173.582 176.061 177.369 180.191 178.069C186.006 179.071 196.054 176.404 195.459 171.045L200.123 170.23C201.295 171.394 202.188 172.808 202.734 174.367C202.753 174.462 202.792 174.552 202.847 174.631C202.902 174.71 202.973 174.777 203.055 174.827C203.137 174.878 203.229 174.911 203.325 174.924C203.42 174.938 203.517 174.931 203.61 174.906C203.703 174.88 203.79 174.835 203.865 174.775C203.94 174.714 204.002 174.639 204.046 174.553C204.091 174.468 204.118 174.374 204.124 174.278C204.131 174.181 204.118 174.085 204.086 173.994C203.573 172.509 202.786 171.133 201.766 169.938L204.37 169.485C204.962 170.362 205.501 171.258 206.008 172.104C206.102 172.265 206.256 172.381 206.436 172.428C206.616 172.475 206.807 172.449 206.968 172.355C207.128 172.26 207.244 172.106 207.291 171.926C207.338 171.746 207.312 171.555 207.218 171.395C206.782 170.662 206.332 169.94 205.866 169.226L207.169 168.998C211.108 172.162 220.782 172.98 225.87 173.142C225.764 175.092 225.498 180.309 225.498 183.211C225.498 183.38 225.552 183.439 225.681 183.608C231.898 189.62 239.31 194.256 247.436 197.216C247.623 198.47 247.885 199.712 248.222 200.934C248.266 201.08 248.355 201.208 248.477 201.299C248.598 201.39 248.746 201.44 248.898 201.441C249.28 201.451 249.66 201.46 250.049 201.477C249.282 214.378 249.233 214.422 249.28 216.234C249.383 220.766 250.171 225.765 252.981 229.468C255.966 233.397 259.523 234.41 259.374 229.494C260.486 231.633 262.778 234.902 265.075 234.175C267.289 233.47 266.711 229.199 266.234 226.925C266.679 227.557 267.202 228.13 267.791 228.63C268.321 229.196 269.048 229.537 269.823 229.582C270.597 229.627 271.359 229.373 271.951 228.872C274.111 226.59 271.382 219.697 270.109 216.952C270.145 216.818 271.123 202.249 271.123 202.065C273.123 202.11 273.173 202.379 273.9 201.26C283.583 200.703 293.098 198.485 302.03 194.703C302.175 194.658 302.302 194.569 302.393 194.447C302.484 194.326 302.535 194.179 302.537 194.027C302.547 167.07 297.879 112.664 277.255 94.7921ZM75.7914 97.2831C106.827 94.4862 118.842 121.646 120.955 152.607C106.32 145.509 85.3822 133.082 84.838 133.082C85.7543 130.727 86.1313 128.196 85.9413 125.676C85.7514 123.156 84.9993 120.71 83.7402 118.518C82.4813 116.327 80.7473 114.445 78.6658 113.011C76.5843 111.578 74.2081 110.629 71.7118 110.234C72.3202 106.116 73.4674 102.097 75.1239 98.2786C75.3015 97.9187 75.5259 97.584 75.7914 97.2831ZM38.532 164.167C38.1078 162.25 37.7478 159.688 37.518 157.745C36.1035 145.925 36.6561 132.665 41.0822 121.612C46.5494 107.983 57.4887 99.5038 73.9443 97.4707C72.2154 100.423 70.9192 106.754 70.304 110.117C65.9686 109.996 61.7596 111.585 58.5864 114.542C55.4133 117.499 53.5306 121.585 53.3453 125.918C53.1599 130.251 54.6868 134.483 57.5959 137.7C60.5051 140.917 64.563 142.86 68.8928 143.109C68.903 146.658 69.361 171.109 69.3779 171.464C58.748 170.856 48.3075 168.386 38.532 164.167ZM69.797 141.745C67.7761 141.745 65.7758 141.341 63.914 140.555C62.0522 139.769 60.3667 138.618 58.9571 137.17C57.5475 135.722 56.4423 134.006 55.7068 132.124C54.9713 130.241 54.6205 128.231 54.6749 126.211C54.7293 124.191 55.188 122.202 56.0237 120.362C56.8595 118.522 58.0555 116.868 59.541 115.498C61.0266 114.128 62.7715 113.07 64.673 112.385C66.5744 111.701 68.5937 111.404 70.6116 111.513C74.3739 111.89 77.8722 113.617 80.4594 116.374C83.0466 119.132 84.5474 122.733 84.6842 126.512C84.7407 128.498 84.3968 130.476 83.6731 132.327C82.9493 134.178 81.8605 135.864 80.4714 137.286C79.0823 138.707 77.4214 139.835 75.5875 140.601C73.7537 141.367 71.7844 141.756 69.797 141.745ZM121.205 164.145C102.446 170.678 84.2076 172.677 70.8026 171.567C70.62 165.77 70.3344 146.217 70.3175 143.146C73.8524 143.107 77.2663 141.854 79.9877 139.597C81.4411 140.393 120.816 161.941 121.241 162.183C121.232 162.826 121.23 163.487 121.205 164.145ZM81.0997 138.605C82.3733 137.362 83.4391 135.922 84.2566 134.341C90.0263 137.669 113.012 150.422 121.067 154.223C121.067 154.405 121.236 156.562 121.257 160.58C103.411 150.816 82.7001 139.438 81.0997 138.605ZM189.517 150.18C189.897 150.378 190.607 150.856 190.615 151.373C190.64 151.953 189.299 152.132 188.876 152.218C186.679 152.675 179.461 154.087 177.457 153.09L177.44 153.1V153.073C178.412 150.481 186.444 148.522 189.517 150.18ZM125.515 162.904C124.563 162.385 123.612 161.866 122.659 161.338C122.679 159.196 122.63 157.054 122.511 154.916C124.249 155.775 126.041 156.52 127.876 157.148C127.092 157.882 126.476 158.776 126.069 159.769C125.661 160.762 125.472 161.832 125.515 162.904ZM128.219 166.424C127.61 165.663 127.192 164.768 127.001 163.812C126.809 162.856 126.85 161.869 127.118 160.932C127.387 159.995 127.876 159.136 128.545 158.427C129.213 157.718 130.042 157.18 130.962 156.857C131.881 156.534 132.865 156.436 133.83 156.572C134.795 156.707 135.714 157.072 136.509 157.635C137.305 158.198 137.953 158.944 138.401 159.81C138.849 160.675 139.083 161.635 139.084 162.61C139.065 163.866 138.661 165.086 137.927 166.105C137.193 167.124 136.164 167.894 134.978 168.31C133.793 168.726 132.509 168.768 131.299 168.431C130.089 168.094 129.011 167.393 128.212 166.424H128.219ZM140.174 164.66C140.461 163.705 140.546 162.701 140.422 161.711C140.298 160.722 139.969 159.769 139.455 158.914L167.793 159.097C167.671 161.027 168.089 162.954 169 164.66H140.174ZM187.463 176.321C184.393 177.056 179.571 177.416 177.344 175.172C174.925 172.738 173.57 167.797 173.555 164.393C173.539 160.989 174.705 161.28 174.498 161.28C176.591 161.802 180.1 168.91 181.002 170.872C181.33 171.591 182.55 171.08 182.282 170.337C181.322 167.786 180.793 165.094 180.717 162.37C180.82 160.575 181.628 160.268 182.464 160.656C183.829 161.581 184.862 162.918 185.413 164.471C185.973 165.613 186.444 166.796 186.823 168.01C186.876 168.184 186.995 168.332 187.155 168.42C187.315 168.508 187.504 168.53 187.68 168.482C187.856 168.433 188.006 168.318 188.099 168.16C188.191 168.003 188.218 167.815 188.175 167.638C187.695 165.948 186.723 162.745 187.553 161.089C187.838 160.509 191.311 161.037 193.321 167.81C193.601 168.714 193.821 169.636 193.978 170.57C194.843 174.019 190.019 175.716 187.456 176.328L187.463 176.321ZM196.469 169.02C196.058 169.216 195.631 169.375 195.192 169.497C194.401 165.302 192.082 159.886 187.871 159.514C186.436 159.389 185.92 160.92 185.871 162.362C185.29 161.225 184.423 160.258 183.355 159.558C183.021 159.336 182.639 159.197 182.24 159.153C181.841 159.109 181.438 159.161 181.063 159.305C180.689 159.449 180.354 159.68 180.088 159.98C179.822 160.28 179.631 160.639 179.532 161.028C179.214 162.313 179.191 163.652 179.463 164.947C178.977 164.14 178.454 163.355 177.896 162.595C177.119 161.547 175.951 159.904 174.481 159.891C171.963 159.877 171.946 164.427 172.385 167.109C168.273 162.715 167.335 156.293 174.031 153.558C174.694 153.288 175.361 153.051 176.034 152.852C175.748 154.177 177.325 155.157 181.841 154.735C184.898 154.491 187.922 153.925 190.86 153.045C192.807 153.584 194.713 154.262 196.564 155.073C196.557 169.184 196.637 168.985 196.462 169.027L196.469 169.02ZM192.244 151.885V151.816C195.842 151.73 203.601 151.539 203.878 151.539C203.666 153.227 203.561 154.927 203.566 156.629C201.524 155.142 193.118 152.149 192.239 151.892L192.244 151.885ZM203.948 161.708C202.47 160.418 199.685 158.159 197.963 158.737V155.412C200.032 156.023 201.953 157.052 203.608 158.436C203.661 159.534 203.773 160.628 203.942 161.714L203.948 161.708ZM197.955 169.184V168.528C198.223 168.697 198.487 168.866 198.741 169.046L197.955 169.184ZM200.589 168.723C199.795 168.013 198.913 167.41 197.963 166.928V164.2C200.211 164.862 202.159 166.285 203.473 168.226L200.589 168.723ZM204.983 167.954C203.368 165.414 200.862 163.57 197.956 162.784V160.014C198.475 159.979 198.996 160.05 199.487 160.223C199.977 160.396 200.428 160.666 200.811 161.018C202.122 161.91 203.337 162.935 204.436 164.077C204.768 165.373 205.262 166.622 205.906 167.795L204.983 167.954ZM207.518 167.432C207.641 167.443 207.765 167.419 207.874 167.362C207.984 167.306 208.075 167.22 208.138 167.114C208.2 167.007 208.231 166.886 208.227 166.762C208.223 166.639 208.184 166.52 208.115 166.418C207.542 165.587 206.922 164.79 206.256 164.031C205.94 162.815 205.686 161.584 205.494 160.342C205.653 160.535 205.808 160.731 205.959 160.934C206.058 161.089 206.212 161.2 206.39 161.247C206.568 161.293 206.756 161.271 206.919 161.184C207.078 161.089 207.194 160.935 207.241 160.755C207.288 160.575 207.262 160.384 207.169 160.224C206.58 159.437 205.925 158.702 205.212 158.027C205.011 155.806 205.032 153.57 205.274 151.353C212.972 148.787 220.816 146.684 228.765 145.054C227.312 154.527 226.501 162.772 225.936 171.733C221.468 171.596 210.539 170.727 207.532 167.438L207.518 167.432ZM230.572 186.132C229.265 185.085 228.072 183.935 226.854 182.801C226.854 182.023 226.959 179.15 226.984 178.493C232.714 183.736 239.301 187.956 246.459 190.97C246.762 193.177 247.135 195.428 247.161 195.597C241.187 193.301 235.596 190.111 230.579 186.138L230.572 186.132ZM271.323 226.675C271.237 227.756 270.621 228.508 269.479 228.042C267.96 227.091 266.782 225.682 266.114 224.02C265.546 222.973 265.049 221.889 264.627 220.775C264.316 219.945 262.993 220.291 263.275 221.157C264.774 225.755 266.256 233.017 264.382 232.833C261.754 232.656 258.769 225.076 257.945 222.524C257.669 221.667 256.319 222.03 256.593 222.896C257.213 224.865 258.283 228.956 257.882 230.785C257.742 231.373 257.684 231.696 256.479 230.906C252.058 228.003 250.811 221.733 250.659 216.416C250.595 214.37 250.705 213.822 251.43 201.47C253.427 201.521 267.743 201.919 269.707 201.977C269.361 206.829 269.031 211.661 268.693 216.496C268.629 217.361 268.631 217.062 269.021 217.949C269.976 220.111 271.534 224.278 271.329 226.681L271.323 226.675ZM273.398 199.444C273.13 199.867 272.839 200.274 272.524 200.664C271.542 200.63 250.196 200.04 249.463 200.015C247.503 190.261 246.409 180.353 246.194 170.406C245.571 150.903 248.038 131.423 253.503 112.691C253.547 112.513 253.52 112.326 253.427 112.168C253.335 112.011 253.185 111.895 253.008 111.847C252.832 111.798 252.644 111.821 252.484 111.909C252.324 111.997 252.205 112.144 252.151 112.319C244.959 137.32 242.946 163.526 246.236 189.332C239.095 186.336 232.591 182.002 227.077 176.564C228.199 153.553 233.012 104.094 252.974 92.5275C255.952 90.883 259.313 90.0575 262.714 90.135C266.115 90.2125 269.435 91.1902 272.335 92.9686C295.606 106.311 300.438 162.629 301.079 189.479C293.501 192.644 285.433 194.474 277.231 194.887C282.928 179.955 281.138 153.874 279.392 138.073C277.856 124.191 275.401 110.49 274.965 108.653C274.796 107.798 273.528 108.126 273.613 108.956C273.63 109.138 287.504 178.425 273.405 199.45L273.398 199.444ZM274.86 199.763C275.535 198.666 276.125 197.518 276.624 196.331C285.018 195.907 293.284 194.097 301.087 190.975C301.087 191.134 301.117 193.353 301.121 193.502C292.772 197.017 283.903 199.135 274.867 199.77L274.86 199.763Z" fill="#4E31AA"/>
<path d="M269.724 201.977C269.378 206.829 269.048 211.661 268.71 216.496C268.646 217.361 268.647 217.062 269.038 217.949C269.986 220.111 271.544 224.278 271.34 226.681C271.253 227.763 270.638 228.515 269.496 228.049C267.977 227.097 266.799 225.689 266.131 224.026C265.563 222.979 265.066 221.895 264.644 220.782C264.333 219.952 263.01 220.298 263.292 221.164C264.791 225.762 266.273 233.024 264.399 232.84C261.771 232.662 258.786 225.083 257.962 222.531C257.686 221.674 256.336 222.037 256.61 222.903C257.23 224.871 258.3 228.963 257.899 230.791C257.759 231.38 257.701 231.702 256.496 230.913C252.075 228.01 250.828 221.74 250.676 216.423C250.612 214.377 250.722 213.829 251.447 201.477L269.724 201.977Z" fill="#E0E1FF"/>
</svg>
