<svg width="414" height="414" viewBox="0 0 414 414" fill="none" xmlns="http://www.w3.org/2000/svg">
<path d="M88.4325 112.438C86.2569 111.695 84.0172 112.625 83.9033 114.922C83.8962 115.322 83.9687 115.72 84.1167 116.091C84.2647 116.463 84.4852 116.801 84.7654 117.087C85.0455 117.372 85.3797 117.599 85.7484 117.754C86.1172 117.909 86.5131 117.99 86.9131 117.99C87.5719 117.999 88.2151 117.79 88.7418 117.394C89.2684 116.998 89.6485 116.438 89.8224 115.802C89.9963 115.167 89.9542 114.492 89.7026 113.883C89.451 113.274 89.0042 112.766 88.4325 112.438ZM86.201 115.636C86.0415 115.48 85.928 115.283 85.873 115.066C85.818 114.849 85.8236 114.622 85.8892 114.408C85.9548 114.194 86.0778 114.003 86.2449 113.855C86.412 113.706 86.6166 113.606 86.8365 113.566C87.2298 113.55 87.6169 114.053 87.7328 114.297C88.389 115.659 86.8862 116.322 86.201 115.636Z" fill="#EEEFFF"/>
<path d="M97.8758 112.438C95.7003 111.695 93.4626 112.625 93.3487 114.922C93.3416 115.322 93.4141 115.72 93.5621 116.091C93.7102 116.463 93.9306 116.801 94.2108 117.087C94.4909 117.372 94.8251 117.599 95.1939 117.754C95.5626 117.909 95.9585 117.99 96.3585 117.99C97.0171 117.999 97.6601 117.789 98.1863 117.393C98.7126 116.997 99.0924 116.437 99.266 115.801C99.4397 115.166 99.3973 114.491 99.1457 113.882C98.8941 113.274 98.4474 112.766 97.8758 112.438ZM95.6464 115.636C95.4869 115.48 95.3734 115.283 95.3183 115.066C95.2632 114.85 95.2686 114.622 95.334 114.409C95.3993 114.195 95.5221 114.004 95.6889 113.855C95.8557 113.707 96.0602 113.607 96.2799 113.566C96.6732 113.55 97.0603 114.053 97.1782 114.297C97.8303 115.659 96.3295 116.322 95.6464 115.636Z" fill="#EEEFFF"/>
<path d="M107.321 112.438C105.146 111.695 102.906 112.625 102.792 114.922C102.785 115.322 102.858 115.72 103.006 116.091C103.154 116.463 103.375 116.801 103.655 117.087C103.936 117.372 104.27 117.599 104.639 117.754C105.008 117.909 105.404 117.99 105.804 117.99C106.463 117.999 107.105 117.789 107.632 117.393C108.158 116.997 108.538 116.437 108.711 115.801C108.885 115.166 108.843 114.491 108.591 113.882C108.339 113.274 107.893 112.766 107.321 112.438ZM105.092 115.636C104.932 115.48 104.819 115.283 104.764 115.066C104.709 114.85 104.714 114.622 104.779 114.409C104.845 114.195 104.968 114.004 105.134 113.855C105.301 113.707 105.506 113.607 105.725 113.566C106.119 113.55 106.506 114.053 106.624 114.297C107.274 115.659 105.777 116.322 105.092 115.636Z" fill="#EEEFFF"/>
<path d="M291.17 247.04C291.347 247.04 291.516 246.97 291.64 246.845C291.765 246.721 291.835 246.552 291.835 246.376C291.835 246.199 291.765 246.03 291.64 245.906C291.516 245.781 291.347 245.711 291.17 245.711H236.992V229.05C257.469 228.981 291.17 228.843 291.17 228.843C291.347 228.843 291.516 228.773 291.64 228.648C291.765 228.523 291.835 228.354 291.835 228.178C291.835 228.002 291.765 227.833 291.64 227.708C291.516 227.584 291.347 227.514 291.17 227.514H236.992V213.376C234.094 213.376 234.094 213.672 234.094 214.021V227.532H214.32C214.149 227.532 213.986 227.6 213.866 227.72C213.745 227.841 213.678 228.004 213.678 228.174C213.678 228.344 213.745 228.507 213.866 228.628C213.986 228.748 214.149 228.816 214.32 228.816C221.13 229.174 224.752 229.089 234.094 229.06V245.732H214.32C214.232 245.727 214.145 245.74 214.063 245.77C213.981 245.8 213.906 245.846 213.842 245.906C213.779 245.966 213.728 246.038 213.694 246.118C213.659 246.199 213.641 246.285 213.641 246.372C213.641 246.46 213.659 246.546 213.694 246.626C213.728 246.707 213.779 246.779 213.842 246.839C213.906 246.899 213.981 246.945 214.063 246.975C214.145 247.005 214.232 247.018 214.32 247.013C221.13 247.373 224.752 247.288 234.094 247.259V263.925H214.32C214.154 263.934 213.999 264.007 213.885 264.127C213.772 264.247 213.708 264.406 213.708 264.572C213.708 264.737 213.772 264.897 213.885 265.017C213.999 265.137 214.154 265.209 214.32 265.219C227.634 265.426 225.818 265.604 234.094 265.573V281.106H214.32C214.154 281.115 213.999 281.188 213.885 281.308C213.772 281.428 213.708 281.587 213.708 281.753C213.708 281.918 213.772 282.078 213.885 282.198C213.999 282.318 214.154 282.39 214.32 282.4C227.634 282.607 225.818 282.783 234.094 282.752V293.888C234.094 294.265 234.094 294.559 236.992 294.559V282.741C255.457 282.661 291.17 282.427 291.17 282.427C291.341 282.417 291.501 282.343 291.619 282.219C291.736 282.094 291.802 281.93 291.802 281.759C291.802 281.588 291.736 281.424 291.619 281.3C291.501 281.175 291.341 281.101 291.17 281.092H236.992V265.56C255.457 265.48 291.17 265.246 291.17 265.246C291.347 265.246 291.517 265.175 291.642 265.05C291.767 264.925 291.837 264.756 291.837 264.579C291.837 264.402 291.767 264.233 291.642 264.108C291.517 263.983 291.347 263.913 291.17 263.913H236.992V247.249C257.469 247.181 291.17 247.04 291.17 247.04Z" fill="#EEEFFF"/>
<path d="M336.499 122.989C337.412 125.107 338.7 127.042 340.302 128.7C340.352 128.776 340.416 128.841 340.492 128.891C340.568 128.941 340.653 128.976 340.743 128.992C340.832 129.008 340.924 129.005 341.013 128.985C341.101 128.964 341.185 128.925 341.258 128.871C341.331 128.817 341.392 128.749 341.438 128.671C341.484 128.592 341.513 128.505 341.524 128.415C341.536 128.325 341.528 128.233 341.503 128.146C341.477 128.059 341.434 127.977 341.376 127.907C340.285 125.953 339.027 124.096 337.617 122.358C336.957 121.664 336.245 122.221 336.499 122.989Z" fill="#EEEFFF"/>
<path d="M318.78 102.794C318.683 100.692 319.298 98.6185 320.525 96.9091C325.746 90.3224 335.278 103.007 341.391 98.6024C341.465 98.5556 341.529 98.4947 341.579 98.4232C341.63 98.3516 341.666 98.2708 341.685 98.1854C341.705 98.1 341.707 98.0116 341.692 97.9252C341.677 97.8389 341.645 97.7563 341.599 97.6823C341.552 97.6082 341.491 97.544 341.42 97.4935C341.348 97.443 341.267 97.407 341.182 97.3877C341.009 97.3487 340.828 97.3798 340.679 97.4742C340.04 97.843 339.305 98.0117 338.569 97.9586C333.777 97.735 324.671 88.4366 318.904 95.6195C318.128 96.6421 317.596 97.829 317.349 99.0892C317.102 100.349 317.147 101.649 317.48 102.889C317.493 103.062 317.573 103.222 317.704 103.335C317.835 103.448 318.005 103.504 318.178 103.492C318.35 103.479 318.51 103.398 318.623 103.268C318.736 103.137 318.793 102.967 318.78 102.794Z" fill="#EEEFFF"/>
<path d="M328.548 92.4027C329.809 92.3091 331.076 92.3956 332.312 92.6594C335.601 93.5826 342.479 99.0764 345.827 93.2493C345.875 93.1752 345.907 93.0923 345.923 93.0054C345.938 92.9185 345.936 92.8294 345.917 92.7433C345.898 92.6571 345.862 92.5757 345.811 92.5037C345.759 92.4317 345.695 92.3707 345.62 92.324C344.69 91.6886 344.641 93.566 342.421 93.9221C340.479 93.897 338.576 93.3693 336.899 92.3903C333.1 90.5604 331.595 89.8028 328.246 91.1669C328.165 91.1864 328.088 91.2217 328.02 91.2708C327.952 91.32 327.894 91.3821 327.85 91.4535C327.806 91.5249 327.777 91.6042 327.764 91.687C327.751 91.7698 327.754 91.8544 327.773 91.9359C327.793 92.0175 327.828 92.0944 327.877 92.1623C327.926 92.2302 327.988 92.2878 328.06 92.3317C328.131 92.3756 328.21 92.405 328.293 92.4183C328.376 92.4315 328.461 92.4283 328.542 92.4089L328.548 92.4027Z" fill="#EEEFFF"/>
<path d="M346.679 97.4266C346.524 97.3523 346.346 97.3417 346.183 97.397C346.021 97.4523 345.886 97.5692 345.808 97.7226C344.712 99.3643 343.114 100.608 341.254 101.269C337.64 102.618 333.79 101.134 330.331 99.4056C328.018 98.2505 325.278 96.3006 322.282 97.4453C322.118 97.49 321.978 97.5983 321.893 97.7464C321.808 97.8945 321.785 98.0703 321.83 98.235C321.875 98.3997 321.983 98.5398 322.131 98.6247C322.279 98.7095 322.455 98.732 322.62 98.6873C325.371 98.2091 328.927 101.753 334.419 103.291C335.333 104.418 336.076 105.673 336.623 107.017C336.7 107.189 336.821 107.338 336.975 107.447C337.129 107.556 337.309 107.622 337.497 107.638C338.325 107.638 340.931 108.514 341.343 109.575C342.041 110.971 339.908 113.357 338.279 113.618C338.108 113.641 337.952 113.729 337.844 113.863C337.735 113.998 337.682 114.169 337.696 114.341C337.71 114.513 337.789 114.674 337.918 114.789C338.046 114.904 338.214 114.966 338.387 114.962C341.989 115.127 344.632 111.056 343.121 108.437C343.239 106.46 343.234 104.477 343.105 102.5C344.793 101.54 346.143 100.081 346.969 98.3229C347.048 98.1653 347.062 97.9832 347.007 97.8156C346.953 97.648 346.835 97.5084 346.679 97.4266Z" fill="#EEEFFF"/>
<path d="M324.731 104.816C325.022 104.63 325.36 104.531 325.705 104.531C326.051 104.531 326.389 104.63 326.679 104.816C327.898 105.23 328.23 105.791 328.749 105.299C329.298 104.779 328.561 103.918 328.01 103.392C327.388 102.781 326.551 102.438 325.679 102.438C324.807 102.438 323.97 102.781 323.349 103.392C322.935 103.806 322.62 105.121 323.295 105.406C323.609 105.58 323.781 105.493 324.731 104.816Z" fill="#EEEFFF"/>
<path d="M336.431 115.732C335.858 117.612 334.982 119.387 333.837 120.985C333.248 122.043 332.505 123.006 331.631 123.844C330.95 121.511 329.538 119.459 327.602 117.99C325.274 116.193 321.57 114.939 319.045 116.369C319.045 116.303 319.033 116.235 319.028 116.162C319.018 115.914 318.917 115.678 318.743 115.499C318.57 115.321 318.337 115.213 318.089 115.196L316.275 115.088C316.995 112.15 317.898 109.261 318.977 106.435C319.042 106.28 319.046 106.105 318.985 105.947C318.925 105.789 318.807 105.66 318.654 105.587C318.501 105.515 318.327 105.504 318.166 105.557C318.006 105.61 317.872 105.723 317.793 105.872C315.937 108.942 314.658 112.325 314.017 115.854C313.989 116.001 313.993 116.153 314.029 116.299C314.064 116.445 314.131 116.581 314.224 116.699C314.317 116.817 314.434 116.913 314.568 116.981C314.701 117.05 314.848 117.089 314.998 117.096L317.054 117.218C317.114 119.825 317.896 122.364 319.312 124.554C320.319 125.716 321.594 126.617 323.026 127.178C324.458 127.74 326.005 127.945 327.534 127.777C328.413 129.393 329.415 130.938 330.531 132.399C330.626 132.547 330.775 132.651 330.945 132.69C331.116 132.729 331.295 132.699 331.444 132.606C332.413 131.975 330.945 131.07 329.267 127.338C330.109 127.152 330.913 126.826 331.647 126.374C333.334 125.319 334.699 123.822 335.597 122.047C336.851 120.228 337.607 118.111 337.787 115.908C337.81 115.728 337.761 115.546 337.65 115.402C337.54 115.259 337.377 115.165 337.197 115.142C337.017 115.118 336.835 115.167 336.692 115.278C336.548 115.389 336.454 115.552 336.431 115.732ZM324.027 125.392C320.742 124.295 319.701 121.873 319.215 118.081C323.117 116.955 326.762 119.234 329.174 122.55C329.669 123.216 330.108 123.922 330.486 124.662C329.566 125.334 328.486 125.755 327.354 125.883C326.221 126.012 325.075 125.842 324.027 125.392Z" fill="#EEEFFF"/>
<path d="M325.746 122.093C326.648 122.116 326.907 121.147 326.015 120.789C324.858 120.25 323.576 120.036 322.307 120.168C321.939 120.263 321.659 120.375 321.608 120.718C321.452 121.755 324.69 122.066 325.746 122.093Z" fill="#EEEFFF"/>
<path d="M294.805 144.256C295.033 143.772 295.314 143.316 295.544 142.832C298.183 137.318 302.304 132.647 307.447 129.342C307.598 129.251 307.709 129.107 307.759 128.938C307.809 128.769 307.793 128.587 307.716 128.429C307.627 128.275 307.483 128.162 307.313 128.112C307.143 128.062 306.961 128.079 306.803 128.16C303.312 129.754 300.258 132.169 297.902 135.198C295.968 137.519 294.438 140.149 293.375 142.977C292.754 145.128 292.599 145.908 293.24 146.121C293.882 146.334 294.077 145.711 294.805 144.256Z" fill="#EEEFFF"/>
<path d="M304.379 137.349C310.957 131.503 310.769 131.65 310.411 131.101C309.397 129.545 300.521 137.115 301.785 138.45C302.292 139.019 303.793 137.825 304.379 137.349Z" fill="#EEEFFF"/>
<path d="M306.534 140.021C307.362 139.257 309.128 137.537 309.409 137.28C310.326 136.245 310.748 135.908 310.376 135.359C309.469 134.25 305.64 137.756 304.853 138.839C304.536 139.282 303.957 140.396 304.491 140.828C304.971 141.259 306.107 140.447 306.534 140.021Z" fill="#EEEFFF"/>
<path d="M305.865 149.404C310.127 140.28 311.833 139.944 310.957 139.112C310.822 138.995 310.645 138.937 310.466 138.95C310.287 138.963 310.121 139.046 310.003 139.181C308.316 140.754 306.916 142.609 305.863 144.662C305.081 146.048 304.412 147.495 303.861 148.988C303.553 150.145 303.112 151.578 303.835 151.837C304.557 152.095 305.476 150.222 305.865 149.404Z" fill="#EEEFFF"/>
<path d="M369.46 188.954C368.592 189.952 367.868 191.067 367.309 192.266C365.152 196.82 364.457 203.059 368.183 206.48C369.49 207.682 371.137 208.451 372.898 208.683C373.604 208.752 374.313 208.775 375.022 208.751C375.202 208.753 375.376 208.686 375.508 208.563C375.641 208.441 375.721 208.273 375.734 208.093C375.732 207.914 375.661 207.743 375.535 207.615C375.41 207.487 375.24 207.413 375.061 207.408C368.864 206.754 365.483 202.301 369.124 193.059C369.507 192.1 370.075 190.593 370.534 189.658C370.627 189.515 370.66 189.341 370.626 189.175C370.591 189.008 370.491 188.862 370.349 188.769C370.278 188.722 370.199 188.69 370.116 188.675C370.034 188.659 369.948 188.66 369.866 188.677C369.699 188.712 369.553 188.811 369.46 188.954Z" fill="#EEEFFF"/>
<path d="M371.714 203.688C373.459 205.474 377.489 206.443 377.717 205.154C377.837 204.504 377.289 204.392 375.299 203.498C374.484 203.139 373.713 202.689 373.002 202.154C372.306 201.806 371.586 201.479 371.215 201.873C370.791 202.307 371.414 203.324 371.714 203.688Z" fill="#EEEFFF"/>
<path d="M374.504 198.273C375.337 199.707 376.48 200.937 377.849 201.873C378.431 202.287 380.244 203.26 380.644 202.423C380.95 201.858 380.491 201.628 379.031 200.314C377.975 199.393 377.025 198.357 376.198 197.225C376.063 197.018 375.055 195.923 374.504 196.176C373.867 196.524 374.401 198.064 374.504 198.273Z" fill="#EEEFFF"/>
<path d="M34.9416 155.159C36.8502 153.847 36.045 150.568 35.1155 150.605C34.4945 150.63 34.5277 151.141 34.095 152.971C33.9232 153.702 33.0724 153.563 32.439 153.669C32.232 153.704 30.9548 154.012 30.9196 154.61C30.87 155.546 33.4926 156.155 34.9416 155.159Z" fill="#EEEFFF"/>
<path d="M26.9243 147.02C27.8813 148.213 28.9128 149.344 30.0128 150.406C30.6027 150.978 31.8509 152.153 32.445 151.588C32.9004 151.156 32.5485 150.727 31.7598 149.547C30.7238 148.166 29.5877 146.864 28.3609 145.649C28.1539 145.395 26.8726 144.517 26.413 144.979C25.91 145.432 26.7422 146.794 26.9243 147.02Z" fill="#EEEFFF"/>
<path d="M21.942 143.287C22.0585 142.929 22.2459 142.598 22.4931 142.313C22.7402 142.029 23.0421 141.797 23.3806 141.631C23.718 141.424 23.9354 141.128 23.8236 140.785C23.4489 139.638 20.081 140.913 20.6524 143.176C20.7414 143.53 20.8945 143.838 21.2299 143.861C21.6046 143.892 21.7847 143.602 21.942 143.287Z" fill="#EEEFFF"/>
<path d="M28.5768 142.762C29.7112 140.623 29.9244 141.079 30.2018 140.934C30.3642 140.872 30.4999 140.755 30.5857 140.604C30.6714 140.453 30.7018 140.277 30.6717 140.106C30.3115 138.827 26.8753 140.303 27.2997 142.538C27.4756 143.476 28.1649 143.538 28.5768 142.762Z" fill="#EEEFFF"/>
<path d="M44.6168 157.113C43.1678 155.347 42.2404 154.476 41.0419 153.23C41.1138 151.021 40.3291 148.87 38.8519 147.227C39.3743 146.689 39.7306 146.012 39.8782 145.278C40.0258 144.543 39.9583 143.781 39.6839 143.083C39.4096 142.386 38.9399 141.782 38.3312 141.345C37.7225 140.907 37.0006 140.655 36.2519 140.617C36.4087 139.351 36.1359 138.068 35.4772 136.975C34.8185 135.883 33.8121 135.042 32.6191 134.589C32.4063 133.729 31.998 132.93 31.4261 132.253C30.8541 131.577 30.1339 131.041 29.3213 130.688C28.5087 130.335 27.6256 130.174 26.7407 130.218C25.8558 130.261 24.9929 130.509 24.219 130.94C23.418 130.388 22.4832 130.062 21.5128 129.997C20.5424 129.931 19.5721 130.128 18.704 130.566C17.8358 131.005 17.1017 131.669 16.5788 132.489C16.0559 133.309 15.7634 134.255 15.732 135.227C14.5191 135.387 13.3793 135.898 12.4529 136.697C11.5265 137.496 10.8538 138.549 10.5177 139.725C10.2789 140.824 10.3286 141.966 10.662 143.04C10.9954 144.114 11.601 145.084 12.42 145.854V145.881C11.8476 146.662 11.5095 147.59 11.4453 148.556C11.3812 149.522 11.5936 150.486 12.0578 151.336C12.8019 152.575 13.9549 153.515 15.318 153.996C15.6359 155.09 16.3046 156.05 17.2212 156.728C18.1379 157.406 19.2518 157.764 20.3916 157.746C20.5435 158.348 20.8479 158.899 21.2754 159.348C21.703 159.797 22.2392 160.128 22.8321 160.309C23.6703 160.465 24.5346 160.397 25.3388 160.114C26.143 159.832 26.8589 159.343 27.4151 158.697C28.2527 159.636 29.3128 160.349 30.498 160.772C31.6832 161.195 32.9556 161.313 34.1985 161.116C35.3122 162.075 36.6432 163.186 37.7879 164.273C37.9153 164.392 38.0833 164.458 38.2576 164.457C38.4318 164.457 38.5993 164.39 38.7259 164.27C38.8525 164.15 38.9288 163.987 38.9391 163.813C38.9494 163.639 38.893 163.467 38.7815 163.333C38.4606 162.969 37.2952 161.621 36.0905 160.396C36.8089 160.002 37.451 159.482 37.9866 158.862C38.3695 158.38 39.2058 157.123 38.6324 156.658C38.1646 156.279 37.8831 156.614 36.8729 157.279C34.9582 158.742 34.9458 158.897 33.9522 159.177C31.9463 159.742 29.6052 158.125 28.2245 156.523C28.1261 156.415 28.0068 156.329 27.8737 156.269C27.7407 156.209 27.5968 156.176 27.4509 156.174C27.305 156.171 27.1601 156.199 27.0251 156.254C26.8901 156.309 26.7678 156.392 26.6658 156.496C25.8378 157.378 24.5295 158.637 23.3538 158.312C22.9589 158.149 22.626 157.865 22.4028 157.501C22.1796 157.136 22.0777 156.711 22.1118 156.285C22.2344 155.968 22.414 155.676 22.6417 155.424C24.6434 153.031 22.9356 149.493 20.1411 148.276C20.6844 146.739 20.6027 145.05 19.9134 143.573C21.1158 142.91 22.0083 141.8 22.3974 140.483C23.0457 140.441 23.6787 140.269 24.2583 139.976C24.838 139.682 25.352 139.275 25.7695 138.777C26.2719 139.215 26.8777 139.518 27.5297 139.656C28.1817 139.795 28.8582 139.765 29.4955 139.57C30.3692 141.113 31.5433 142.465 32.9482 143.546C33.8073 144.219 34.6373 142.627 36.0926 142.546C37.053 142.42 37.9183 143.581 37.7713 144.536C37.666 145.282 37.2993 145.967 36.7363 146.469C36.6358 146.562 36.5549 146.674 36.4984 146.798C36.4418 146.922 36.4108 147.057 36.4071 147.194C36.4035 147.33 36.4272 147.466 36.477 147.593C36.5268 147.721 36.6016 147.837 36.697 147.935C37.4303 148.7 38.0337 149.581 38.4834 150.541C39.6074 153.126 38.5828 153.522 39.2907 154.267C41.4062 156.103 41.7395 156.227 43.5632 157.993C43.6798 158.132 43.8472 158.22 44.0285 158.236C44.2098 158.253 44.3901 158.196 44.5299 158.08C44.6696 157.963 44.7572 157.796 44.7735 157.614C44.7899 157.433 44.7335 157.253 44.6168 157.113Z" fill="#EEEFFF"/>
<path d="M26.467 149.611C26.7124 149.809 26.8736 150.092 26.9182 150.403C26.9628 150.715 26.8873 151.032 26.7071 151.29C25.7446 152.222 23.8588 150.325 24.8007 149.382C25.0535 149.195 25.3693 149.115 25.6806 149.157C25.9919 149.2 26.2741 149.363 26.467 149.611Z" fill="#EEEFFF"/>
<path d="M31.8324 144.322C33.1076 145.598 31.6606 146.999 30.4083 145.747C30.1592 145.555 29.9946 145.274 29.9493 144.963C29.9041 144.651 29.9819 144.335 30.1661 144.08C30.422 143.9 30.7375 143.824 31.0476 143.869C31.3576 143.914 31.6385 144.076 31.8324 144.322Z" fill="#EEEFFF"/>
<path d="M243.004 162.033C242.844 161.164 241.294 161.512 238.893 162.033C238.156 162.201 236.978 162.549 236.181 162.787C235.794 161.779 235.403 160.777 234.984 159.783C234.502 158.864 233.885 157.148 233.051 157.405C231.809 157.871 233.645 162.085 234.171 163.408C233.343 163.667 231.153 164.366 230.362 164.712C228.812 165.42 228.499 165.65 228.574 166.175C228.928 167.486 233.67 165.761 234.97 165.347C235.222 165.923 235.411 166.43 235.817 167.244C237.094 169.833 237.373 170.556 238.075 170.28C238.893 169.959 238.228 168.21 237.605 166.505C237.427 165.904 237.162 165.319 236.93 164.731C237.137 164.662 239.207 163.992 240.035 163.696C242.546 162.835 243.148 162.812 243.004 162.033Z" fill="#EEEFFF"/>
<path d="M230.47 104.959C230.859 104.959 234.634 104.767 236.34 104.609C238.352 104.402 239.905 104.291 239.859 103.469C239.803 102.434 236.199 102.591 235.156 102.641C233.72 102.666 228.021 102.701 228.128 104.119C228.131 104.86 229.749 104.959 230.47 104.959Z" fill="#EEEFFF"/>
<path d="M290.518 114.399C289.775 113.951 289.152 113.633 288.314 113.225C288.529 112.796 288.716 112.355 288.875 111.902C289.382 110.712 289.959 109.495 289.21 109.135C288.535 108.812 288.287 109.505 287.316 110.962C287.092 111.362 286.935 111.53 286.474 112.358C285.393 111.859 281.882 110.014 281.464 111.134C280.893 112.14 284.412 113.744 285.476 114.202C284.885 115.248 284.368 116.334 283.93 117.452C283.723 118.176 283.253 119.747 283.956 120.019C284.596 120.248 285.223 119.213 285.664 118.433C285.979 117.872 287.202 115.415 287.378 115.065C287.908 115.299 288.428 115.549 289.034 115.781C291.392 116.671 292.164 116.831 292.406 116.226C292.731 115.614 292.137 115.328 290.518 114.399Z" fill="#EEEFFF"/>
<path d="M277.076 122.929C275.644 117.545 274.531 112.081 273.743 106.566C273.693 106.308 273.747 106.04 273.893 105.822C274.038 105.603 274.264 105.45 274.521 105.396C279.614 104.167 285.093 102.393 292.284 100.519C292.37 100.49 292.462 100.479 292.552 100.486C292.643 100.493 292.731 100.519 292.812 100.561C292.892 100.604 292.963 100.662 293.021 100.733C293.078 100.804 293.12 100.885 293.145 100.973C293.169 101.061 293.176 101.153 293.164 101.243C293.152 101.333 293.122 101.42 293.075 101.498C293.028 101.576 292.966 101.644 292.893 101.698C292.819 101.751 292.735 101.789 292.646 101.809C286.161 103.879 283.124 105.303 275.933 107.156C276.778 113.197 278.093 119.163 279.866 124.999C279.937 125.198 279.943 125.414 279.883 125.616C279.824 125.819 279.702 125.998 279.536 126.127C279.369 126.257 279.166 126.33 278.955 126.338C278.744 126.345 278.537 126.286 278.361 126.169C275.919 124.556 273.564 122.816 271.307 120.954C271.169 120.851 271.079 120.697 271.055 120.527C271.031 120.357 271.076 120.184 271.179 120.047C271.283 119.909 271.437 119.819 271.607 119.795C271.777 119.771 271.95 119.816 272.087 119.919C273.112 120.58 276.171 122.372 277.076 122.929Z" fill="#EEEFFF"/>
<path d="M266.738 142.478C260.418 134.242 255.715 128.661 248.371 120.027C248.246 119.88 248.083 119.771 247.9 119.712C247.717 119.653 247.521 119.646 247.334 119.692C247.147 119.739 246.977 119.836 246.842 119.974C246.708 120.112 246.614 120.284 246.572 120.472C244.854 127.106 244.183 134.037 243.105 140.706C243.079 140.854 243.087 141.005 243.129 141.149C243.171 141.292 243.246 141.424 243.347 141.534C243.747 142.068 243.792 141.801 248.332 142.058C252.503 142.294 265.008 143.457 265.651 143.198L265.757 143.279C266.202 143.929 267.278 143.182 266.738 142.478ZM245.295 139.932C245.523 138.669 245.732 137.405 245.935 136.136C247.05 136.474 248.211 136.639 249.377 136.626C249.182 137.797 249.073 138.98 249.05 140.166C247.8 140.054 246.554 139.973 245.295 139.932ZM250.716 140.317C250.768 140.11 251.157 138.454 251.259 137.796C251.532 135.92 251.813 135.492 251.352 135.001C251.268 134.886 251.16 134.791 251.034 134.723C250.909 134.656 250.77 134.618 250.627 134.612C249.151 134.429 247.658 134.416 246.179 134.575C247.299 127.33 247.195 127.647 248.158 122.935C249.775 124.759 263.062 140.251 264.467 141.814C259.876 141.46 255.295 140.76 250.716 140.311V140.317Z" fill="#EEEFFF"/>
<path d="M69.4236 189.426C72.6798 186.352 74.8057 184.282 79.0305 183.423C80.2775 183.146 81.5545 183.028 82.831 183.073C82.921 183.091 83.0138 183.09 83.1035 183.071C83.1932 183.052 83.278 183.014 83.3527 182.961C83.4273 182.907 83.4902 182.839 83.5375 182.761C83.5847 182.682 83.6153 182.594 83.6274 182.503C83.6394 182.412 83.6327 182.32 83.6076 182.232C83.5825 182.143 83.5395 182.061 83.4814 181.99C83.4232 181.919 83.3511 181.861 83.2695 181.819C83.1879 181.777 83.0986 181.752 83.007 181.746C81.5911 181.407 80.1267 181.32 78.6807 181.489C75.1955 182.041 72.0196 183.812 69.7197 186.488C69.1765 187.16 68.7247 187.901 68.3762 188.691C68.2941 188.83 68.2674 188.995 68.3014 189.153C68.3355 189.311 68.4279 189.45 68.5601 189.543C68.6924 189.635 68.8547 189.675 69.0148 189.653C69.1748 189.632 69.3208 189.55 69.4236 189.426Z" fill="#EEEFFF"/>
<path d="M77.7409 187.867C78.2377 187.838 79.0864 187.542 80.8583 187.397C83.4334 187.205 83.7667 187.362 83.8805 186.739C84.0875 186.062 83.1581 185.754 82.121 185.497C80.4933 185.248 78.8294 185.395 77.271 185.927C75.2383 186.803 75.4867 188.093 77.7409 187.867Z" fill="#EEEFFF"/>
<path d="M79.5004 191.978C83.3837 191.007 84.5946 191.446 84.7002 190.459C84.752 189.771 83.8557 189.664 83.1022 189.519C81.5737 189.336 80.0238 189.55 78.602 190.14C78.395 190.219 77.2089 190.993 77.4863 191.659C77.7057 192.255 78.8856 192.096 79.5004 191.978Z" fill="#EEEFFF"/>
<path d="M82.5931 196.166C83.3379 195.762 84.127 195.447 84.9446 195.226C85.1184 195.199 85.275 195.106 85.3814 194.966C85.4878 194.826 85.5355 194.65 85.5146 194.476C85.4936 194.301 85.4055 194.142 85.269 194.031C85.1325 193.92 84.9582 193.867 84.7831 193.882C83.7737 193.872 82.7697 194.031 81.8127 194.352C77.5505 195.936 74.6608 200.635 75.9546 201.365C77.1448 202.009 78.3247 198.265 82.5931 196.166Z" fill="#EEEFFF"/>
<path d="M73.2781 164.482C70.1337 168.171 69.7984 175.78 75.9691 178.778C77.3512 179.365 78.7999 179.782 80.2829 180.02C80.4519 180.055 80.6281 180.024 80.7751 179.934C80.9222 179.844 81.029 179.7 81.0736 179.533C81.1181 179.367 81.097 179.189 81.0147 179.037C80.9323 178.885 80.7949 178.771 80.6307 178.718C75.849 177.223 72.7792 174.992 73.2159 170.065C73.4182 168.438 73.9044 166.86 74.6525 165.401C75.2963 164.236 75.7455 163.849 75.2301 163.387C74.638 162.909 73.9467 163.662 73.2781 164.482Z" fill="#EEEFFF"/>
<path d="M77.5401 174.217C78.7697 174.822 83.303 176.879 83.6404 175.573C84.0006 174.642 81.5249 173.688 79.0988 172.632C78.7906 172.496 78.4722 172.383 78.1466 172.296C77.8755 172.187 76.4596 171.963 76.1967 172.617C75.998 173.298 76.9895 173.849 77.5401 174.217Z" fill="#EEEFFF"/>
<path d="M79.3328 170.821C79.5398 170.912 81.7671 171.675 82.2743 171.775C82.5972 171.856 84.1663 172.203 84.425 171.533C84.5885 170.997 84.218 170.705 82.9325 169.962C81.9587 169.48 80.93 169.119 79.8689 168.885C79.633 168.838 78.3123 168.885 78.1902 169.49C78.0246 170.032 79.1217 170.742 79.3328 170.821Z" fill="#EEEFFF"/>
<path d="M77.8195 166.267C78.1549 166.451 81.2702 167.765 82.2266 168.094C83.009 168.355 84.665 168.953 84.9962 168.202C85.2653 167.527 84.5408 167.15 83.0069 166.293C82.3156 165.923 79.2809 164.609 78.5585 164.399C77.7305 164.232 76.592 164.037 76.3685 164.654C76.1449 165.271 77.5194 166.128 77.8195 166.267Z" fill="#EEEFFF"/>
<path d="M350.594 196.385C341.813 176.513 340.848 152.762 345.394 131.594C345.442 131.368 345.41 131.133 345.304 130.927C345.199 130.722 345.026 130.559 344.814 130.466C344.139 130.144 343.444 129.867 342.732 129.638C342.559 129.583 342.375 129.576 342.198 129.616C342.021 129.656 341.858 129.743 341.726 129.868C338.842 132.536 334.624 134.571 330.829 133.494C330.571 133.423 330.295 133.453 330.058 133.578C329.82 133.703 329.64 133.913 329.552 134.167C327.462 140.377 327.482 146.086 327.228 152.99C326.865 163.817 327.735 174.651 329.821 185.282C330.456 189.708 331.449 194.075 332.79 198.341C334.86 204.257 345.717 200.703 351.022 197.563C351.178 197.506 351.306 197.389 351.376 197.239C351.446 197.088 351.454 196.916 351.397 196.76C351.34 196.603 351.224 196.476 351.073 196.406C350.922 196.336 350.75 196.328 350.594 196.385ZM338.091 196.217C335.591 187.405 333.896 178.384 333.026 169.266C331.874 160.176 331.635 150.994 332.314 141.857C332.326 141.692 332.401 141.538 332.523 141.427C332.645 141.315 332.806 141.255 332.971 141.259C333.137 141.262 333.294 141.329 333.412 141.445C333.53 141.562 333.598 141.719 333.603 141.884C333.649 160.041 335.592 178.143 339.399 195.896C339.42 195.982 339.424 196.072 339.411 196.159C339.397 196.246 339.367 196.33 339.321 196.406C339.275 196.482 339.215 196.548 339.144 196.6C339.072 196.652 338.991 196.69 338.906 196.711C338.82 196.732 338.73 196.736 338.643 196.723C338.556 196.709 338.472 196.679 338.396 196.633C338.32 196.587 338.255 196.527 338.202 196.455C338.15 196.384 338.112 196.303 338.091 196.217ZM339.803 142.766C339.713 142.879 339.599 142.971 339.469 143.035C339.339 143.1 339.197 143.135 339.052 143.139C338.908 143.143 338.764 143.115 338.631 143.057C338.498 142.999 338.38 142.913 338.284 142.805C337.398 141.828 333.405 137.216 333.233 137.009C332.784 137.746 330.153 142.238 329.861 143.083C329.799 143.229 329.687 143.348 329.544 143.417C329.401 143.486 329.238 143.5 329.085 143.457C328.932 143.414 328.8 143.317 328.715 143.183C328.629 143.05 328.595 142.89 328.619 142.733C329.264 139.856 330.479 137.137 332.194 134.738C332.279 134.602 332.395 134.488 332.531 134.403C332.668 134.319 332.822 134.267 332.982 134.251C333.142 134.236 333.303 134.257 333.454 134.313C333.604 134.37 333.739 134.46 333.85 134.577C336.849 137.912 337.139 138.361 339.008 140.57L343.026 135.477C343.459 134.8 344.585 135.477 344.1 136.27C342.5 138.709 341.782 140.06 339.803 142.766Z" fill="#EEEFFF"/>
<path d="M41.5759 166.598C42.9712 166.028 44.2022 165.118 45.1572 163.952C46.1122 162.786 46.761 161.4 47.0449 159.92C47.1774 158.856 47.5375 157.022 46.5481 156.952C45.5917 156.885 46.0513 157.86 44.948 160.189C44.2127 162.177 42.7479 163.811 40.8514 164.757C39.0195 165.596 38.7814 165.728 38.8477 166.221C38.947 167.082 40.8266 166.865 41.5759 166.598Z" fill="#EEEFFF"/>
<path d="M45.6208 166.989C46.5271 166.413 47.2822 165.629 47.8225 164.701C48.3628 163.773 48.6725 162.729 48.7258 161.657C48.75 161.482 48.7058 161.305 48.6022 161.162C48.4987 161.019 48.344 160.922 48.1704 160.89C47.9968 160.859 47.8178 160.896 47.6709 160.994C47.524 161.092 47.4206 161.242 47.3823 161.414C46.8007 163.091 45.9221 164.649 44.7886 166.014C44.2773 166.89 44.9397 167.351 45.6208 166.989Z" fill="#EEEFFF"/>
<path d="M81.5208 206.863C76.7523 201.828 72.2726 196.526 68.1031 190.984C66.6685 192.692 64.9815 194.59 63.8595 196.203C61.1552 199.893 58.7425 203.788 56.6435 207.853C56.5479 208.039 56.3982 208.192 56.214 208.291C56.0299 208.39 55.82 208.431 55.612 208.409C55.4039 208.387 55.2076 208.302 55.0488 208.165C54.8901 208.029 54.7763 207.848 54.7226 207.646C53.3978 202.854 51.5907 197.037 51.1891 194.398C50.833 192.754 50.4252 191.415 51.2553 191.214C51.9757 191.042 52.0067 191.558 53.2446 195.354C54.41 199.035 55.5816 203.067 56.0122 204.584C59.1133 198.834 63.1093 193.613 67.8505 189.117C69.2534 185.71 71.8819 182.953 75.2176 181.388C75.3567 181.305 75.47 181.185 75.5451 181.042C75.6201 180.898 75.654 180.737 75.6428 180.575C75.6317 180.414 75.576 180.259 75.4819 180.127C75.3878 179.995 75.2591 179.892 75.11 179.829C68.2169 176.78 68.486 166.213 74.5718 162.174C74.7077 162.094 74.8202 161.98 74.8983 161.843C74.9764 161.706 75.0173 161.551 75.0168 161.394C75.2052 154.563 75.762 147.746 75.6378 140.609C75.6333 140.46 75.5954 140.313 75.5269 140.18C75.4583 140.048 75.3609 139.932 75.2418 139.842C75.1226 139.752 74.9848 139.689 74.8384 139.659C74.692 139.63 74.5408 139.633 74.3958 139.669C70.155 140.643 66.0679 142.194 62.2491 144.279C62.715 146.501 62.8966 148.774 62.7894 151.042C62.6839 154.293 62.3023 157.529 61.6488 160.715C61.6256 160.892 61.534 161.053 61.3937 161.163C61.2534 161.273 61.0754 161.324 60.898 161.305C60.7205 161.286 60.5576 161.198 60.4442 161.06C60.3307 160.922 60.2757 160.746 60.2909 160.568C60.4668 152.234 60.9305 153.457 60.6904 143.985C58.8791 140.76 54.7847 142.108 53.406 147.177C50.4149 144.621 47.817 148.212 47.6432 152.188C47.5438 155.5 50.1272 164.037 51.1767 166.834C48.0096 167.15 45.5007 167.639 42.3233 168.231C39.2434 168.647 36.236 169.488 33.3871 170.729C30.6153 172.154 28.2121 175.025 29.7335 177.757C29.1674 178.314 28.7303 178.988 28.4533 179.733C28.1762 180.477 28.0659 181.273 28.13 182.065C28.1942 182.856 28.4313 183.624 28.8246 184.314C29.2179 185.004 29.7578 185.599 30.4063 186.058C32.9669 185.211 38.0052 183.891 39.0195 183.619C40.8863 183.093 42.7908 182.711 44.7162 182.477C44.8891 182.432 45.0726 182.458 45.2264 182.549C45.3801 182.64 45.4914 182.788 45.5359 182.961C45.5804 183.134 45.5543 183.318 45.4635 183.471C45.3726 183.625 45.2245 183.736 45.0515 183.781C44.06 184.122 42.6358 184.696 41.2096 185.124C38.8457 185.847 33.6168 187.314 31.1763 187.708C32.4059 203.514 37.9328 215.762 43.6398 222.484C46.2712 226.064 49.9965 228.691 54.2527 229.967C64.9939 232.91 73.4292 222.651 79.0554 213.051C79.9911 211.446 81.3055 209.513 81.8106 208.29C81.9058 208.29 82.1314 208.012 82.0921 207.727C82.1321 207.632 82.1481 207.529 82.1386 207.427C82.1292 207.325 82.0947 207.227 82.0381 207.142C81.9816 207.056 81.9047 206.986 81.8144 206.937C81.7242 206.889 81.6233 206.863 81.5208 206.863ZM58.9412 168.094C59.8914 167.999 60.206 170.669 60.4192 172.193C62.4043 186.091 62.6341 187.124 61.6612 187.267C60.7773 187.399 60.7256 186.232 59.9162 182.485C59.1377 178.544 58.5944 174.559 58.2892 170.553C58.2954 169.156 58.2043 168.169 58.9412 168.094ZM54.7288 175.778C55.8342 175.716 56.1302 180.516 56.4075 182.348C56.5835 183.692 56.7843 185.039 56.9457 186.379C57.0265 186.956 57.0534 187.548 57.1196 188.126C57.219 190.305 57.4156 191.413 56.6228 191.512C55.83 191.612 55.8114 190.711 55.3332 188.542C54.677 185.311 54.2016 182.045 53.9091 178.761C53.8946 178.968 53.7973 175.832 54.7288 175.778Z" fill="#C7C8FE"/>
<path d="M318.472 158.322C317.461 158.241 316.474 158.179 315.462 158.148C315.29 158.139 315.123 158.088 314.976 157.999C314.829 157.911 314.705 157.787 314.616 157.64C314.528 157.493 314.476 157.326 314.466 157.155C314.457 156.983 314.489 156.812 314.561 156.656C316.588 152.047 318.987 147.613 321.736 143.395C321.825 143.252 321.967 143.149 322.132 143.109C322.296 143.068 322.469 143.094 322.615 143.18C322.761 143.266 322.867 143.405 322.911 143.568C322.955 143.732 322.934 143.906 322.852 144.053C321.703 146.221 322.369 145.295 317.116 156.132C318.815 156.242 319.324 156.293 321.024 156.469C321.232 156.488 321.429 156.568 321.59 156.701C321.751 156.833 321.868 157.011 321.927 157.211C321.985 157.412 321.981 157.625 321.916 157.823C321.851 158.021 321.728 158.195 321.562 158.322C320.212 159.445 318.965 160.687 317.836 162.031C320.272 166.585 322.771 171.947 324.742 175.869C324.821 176.028 324.837 176.21 324.787 176.38C324.737 176.549 324.625 176.694 324.472 176.784C324.314 176.866 324.129 176.883 323.958 176.83C323.787 176.776 323.644 176.658 323.56 176.501C320.041 170.607 317.646 165.902 315.712 162.379C315.61 162.201 315.566 161.996 315.585 161.792C315.604 161.588 315.686 161.394 315.82 161.239C316.651 160.22 317.536 159.246 318.472 158.322Z" fill="#EEEFFF"/>
<path d="M333.705 199.755C330.823 194.166 329.581 187 328.505 181.268C326.032 169.505 325.442 157.424 326.758 145.475C327.095 142.502 327.603 139.55 328.277 136.635C328.297 136.493 328.278 136.349 328.223 136.218C328.167 136.087 328.078 135.972 327.963 135.888C327.849 135.803 327.713 135.751 327.571 135.736C327.43 135.722 327.286 135.746 327.157 135.807C323.127 137.673 319.356 140.053 315.938 142.888C312.34 145.565 309.323 148.946 307.07 152.824C306.982 152.963 306.95 153.131 306.982 153.292C307.014 153.454 307.107 153.597 307.242 153.692C307.376 153.787 307.542 153.827 307.705 153.803C307.868 153.779 308.016 153.693 308.117 153.563C313.403 147.376 319.624 142.053 326.555 137.787C324.926 143.159 324.062 148.734 323.99 154.348C323.632 166.65 326.458 189.022 332.121 199.645C328.581 200.417 325.847 200.867 321.096 201.86C316.873 191.536 314.14 180.663 312.98 169.568C312.968 169.403 312.893 169.249 312.77 169.138C312.648 169.027 312.488 168.966 312.322 168.97C312.157 168.973 311.999 169.04 311.882 169.156C311.764 169.273 311.695 169.43 311.69 169.595C311.528 174.029 311.963 178.464 312.984 182.781C307.658 187.732 301.141 194.915 293.855 193.773C288.831 192.97 286.61 187.403 285.604 182.433C284.012 174.36 285.53 164.375 287.554 156.434C288.253 153.093 289.293 149.833 290.659 146.705C294.856 149.861 299.237 152.764 303.779 155.399C303.476 161.836 303.945 168.287 305.176 174.613C305.208 174.786 305.306 174.94 305.449 175.043C305.592 175.146 305.769 175.19 305.944 175.166C306.118 175.142 306.277 175.051 306.386 174.913C306.496 174.775 306.548 174.6 306.532 174.424C306.06 169.99 306.014 166.724 305.927 164.644C305.513 154.615 306.304 154.571 305.35 153.948C296.205 148.218 295.927 147.914 291.108 145.374C291.067 145.278 291.004 145.194 290.923 145.129C290.843 145.063 290.747 145.018 290.645 144.998C290.543 144.977 290.438 144.982 290.338 145.012C290.239 145.041 290.148 145.094 290.073 145.167C289.195 146.514 288.433 147.932 287.796 149.408C286.948 151.535 286.23 153.711 285.645 155.925C283.306 164.358 281.861 174.304 283.575 182.822C284.706 188.73 287.579 194.884 293.557 195.762C301.587 196.917 307.728 190.057 313.344 184.391C315.012 190.852 317.093 197.199 319.575 203.392C319.665 203.613 319.83 203.795 320.042 203.905C320.253 204.016 320.497 204.048 320.73 203.996C325.329 202.804 328.209 202.256 333.187 200.798C333.295 200.772 333.396 200.723 333.483 200.654C333.569 200.584 333.64 200.497 333.689 200.397C333.739 200.298 333.766 200.189 333.768 200.078C333.771 199.967 333.749 199.857 333.705 199.755Z" fill="#EEEFFF"/>
<path d="M352.978 196.42C356.779 196.181 360.542 195.523 364.198 194.458C364.283 194.426 364.374 194.412 364.465 194.416C364.556 194.42 364.645 194.443 364.727 194.483C364.809 194.522 364.882 194.579 364.941 194.647C365.001 194.716 365.046 194.797 365.073 194.884C365.101 194.97 365.11 195.062 365.101 195.153C365.092 195.243 365.065 195.331 365.02 195.411C364.976 195.49 364.916 195.56 364.844 195.616C364.772 195.672 364.69 195.712 364.601 195.735C360.688 196.919 356.655 197.663 352.577 197.952C352.416 197.97 352.254 197.937 352.114 197.857C351.973 197.777 351.862 197.655 351.796 197.507C348.431 189.351 346.276 180.747 345.402 171.967C343.22 153.317 345.762 136.957 346.034 129.926C346.053 129.715 346.134 129.514 346.265 129.347C346.396 129.18 346.572 129.055 346.773 128.986C359.76 125.189 372.441 130.718 383.826 138.069C387.268 140.209 390.53 142.627 393.579 145.297C405.265 156.039 406.62 162.224 398.564 176.441C395.405 182.005 390.644 189.655 384.695 198.219C384.583 198.383 384.425 198.51 384.241 198.584C384.056 198.657 383.854 198.675 383.66 198.633C380.751 197.937 378.032 196.605 375.699 194.733C373.366 192.86 371.478 190.493 370.17 187.803C370.11 187.679 370.08 187.544 370.08 187.406C370.08 187.269 370.11 187.134 370.17 187.01C372.332 182.886 374.709 178.879 377.291 175.004L382.95 165.826C383.042 165.688 383.183 165.592 383.345 165.555C383.506 165.519 383.675 165.545 383.817 165.629C383.96 165.713 384.065 165.849 384.11 166.008C384.156 166.167 384.139 166.337 384.064 166.484C376.715 179.409 373.662 184.021 372.058 187.391C373.246 189.594 374.864 191.537 376.816 193.104C378.769 194.671 381.016 195.83 383.424 196.513C387.937 189.889 398.069 174.791 400.605 167.277C401.417 165.291 401.737 163.138 401.535 161.001C401.334 158.865 400.619 156.809 399.45 155.01C396.441 150.719 392.751 146.948 388.527 143.846C386.645 142.408 384.616 141.091 382.668 139.829C372.111 132.983 360.105 127.549 348.058 130.76C347.524 141.524 342.678 170.734 352.978 196.42Z" fill="#EEEFFF"/>
<path d="M372.097 163.426C373.531 167.665 374.61 172.015 375.322 176.432C375.343 176.589 375.306 176.749 375.216 176.88C375.127 177.011 374.993 177.104 374.839 177.143C374.685 177.181 374.523 177.161 374.383 177.087C374.243 177.013 374.135 176.889 374.08 176.741C372.26 171.678 370.699 166.526 369.404 161.305C369.351 161.105 369.36 160.893 369.429 160.698C369.498 160.503 369.623 160.332 369.79 160.209C369.956 160.086 370.156 160.016 370.363 160.008C370.57 159.999 370.774 160.053 370.95 160.162C374.365 162.337 377.398 165.061 379.926 168.223C380.487 168.883 379.475 169.783 378.903 169.111C376.799 167.027 374.523 165.125 372.097 163.426Z" fill="#EEEFFF"/>
<path d="M325.845 107.512C326.194 107.435 326.559 107.469 326.888 107.608C327.217 107.747 327.495 107.985 327.683 108.289C327.872 108.593 327.961 108.948 327.939 109.305C327.916 109.662 327.784 110.003 327.559 110.282C327.335 110.56 327.029 110.762 326.685 110.859C326.341 110.956 325.975 110.944 325.638 110.825C325.301 110.705 325.01 110.484 324.804 110.192C324.598 109.899 324.488 109.55 324.489 109.193C324.451 108.791 324.571 108.39 324.824 108.076C325.078 107.762 325.444 107.559 325.845 107.512Z" fill="#EEEFFF"/>
<path d="M355.682 145.622C353.343 140.981 352.177 137.059 351.02 134.322C350.951 134.166 350.945 133.989 351.005 133.828C351.065 133.668 351.185 133.538 351.34 133.465C351.495 133.393 351.673 133.385 351.834 133.442C351.995 133.499 352.128 133.618 352.202 133.772C355.721 140.377 356.276 142.513 358.141 145.889C358.222 146.033 358.266 146.195 358.271 146.359C358.275 146.524 358.239 146.688 358.167 146.836C358.094 146.984 357.986 147.112 357.853 147.209C357.72 147.307 357.565 147.37 357.402 147.394C355.554 147.716 353.737 148.201 351.975 148.843C354.471 150.272 355.655 150.69 357.121 151.534C357.247 151.599 357.357 151.689 357.446 151.799C357.534 151.91 357.599 152.038 357.634 152.175C357.669 152.311 357.675 152.454 357.651 152.594C357.628 152.733 357.574 152.866 357.495 152.983C354.458 157.804 351.992 162.962 350.147 168.353C350.122 168.439 350.081 168.519 350.024 168.589C349.968 168.658 349.898 168.715 349.819 168.757C349.739 168.798 349.653 168.823 349.563 168.83C349.474 168.836 349.385 168.825 349.3 168.796C349.136 168.739 349.001 168.621 348.921 168.467C348.841 168.314 348.822 168.135 348.87 167.968C350.254 162.651 352.376 157.555 355.173 152.826C353.013 151.939 350.983 150.764 349.139 149.332C349.003 149.217 348.899 149.07 348.836 148.904C348.774 148.738 348.756 148.558 348.783 148.383C348.81 148.207 348.881 148.042 348.991 147.902C349.1 147.762 349.244 147.653 349.408 147.585C351.435 146.74 353.535 146.083 355.682 145.622Z" fill="#EEEFFF"/>
<path d="M181.953 157.767V157.734C181.23 157.697 180.511 157.866 179.879 158.22C179.247 158.574 178.728 159.1 178.382 159.736C178.036 160.372 177.876 161.093 177.922 161.816C177.968 162.539 178.217 163.234 178.641 163.822C170.624 170.653 163.029 179.107 159.707 181.914C156.461 179.276 153.035 176.868 149.454 174.708C149.659 174.011 149.67 173.272 149.485 172.569C149.3 171.867 148.926 171.229 148.405 170.723C148.013 170.399 147.561 170.157 147.074 170.011C146.587 169.866 146.076 169.82 145.571 169.877V169.85C144.795 169.815 144.027 170.015 143.367 170.423C142.707 170.832 142.185 171.43 141.87 172.14C141.555 172.849 141.462 173.638 141.602 174.401C141.742 175.165 142.11 175.868 142.656 176.42C135.631 183.609 132.648 186.563 125.351 194.915C123.718 193.512 118.756 189.382 116.332 187.503C116.618 187.054 116.808 186.551 116.889 186.025C116.971 185.499 116.943 184.962 116.807 184.448C116.671 183.933 116.429 183.453 116.098 183.036C115.767 182.62 115.353 182.276 114.883 182.028C114.26 181.718 113.557 181.605 112.869 181.705V181.665C112.127 181.629 111.39 181.809 110.748 182.182C110.106 182.556 109.585 183.107 109.25 183.77C108.914 184.433 108.778 185.179 108.858 185.918C108.937 186.657 109.229 187.357 109.698 187.933C108.377 189.001 108.443 188.989 104.852 192.34C103.257 193.638 101.842 195.143 100.646 196.816C100.581 196.871 100.529 196.94 100.491 197.016C100.453 197.092 100.432 197.176 100.427 197.261C100.422 197.346 100.434 197.431 100.463 197.511C100.491 197.591 100.536 197.665 100.593 197.728C100.651 197.791 100.72 197.841 100.798 197.877C100.875 197.912 100.959 197.932 101.044 197.935C101.129 197.937 101.214 197.923 101.294 197.892C101.373 197.861 101.445 197.815 101.507 197.755C103.267 196.685 104.87 195.374 106.268 193.86C107.746 192.481 109.766 190.564 111.118 189.047C111.764 189.356 112.481 189.489 113.195 189.431C113.909 189.373 114.595 189.127 115.183 188.718C117.874 191.469 121.393 194.307 124.734 197.159C124.837 197.251 124.958 197.321 125.089 197.365C125.22 197.409 125.358 197.427 125.496 197.417C125.634 197.407 125.768 197.369 125.891 197.307C126.014 197.244 126.123 197.157 126.212 197.052C128.822 194.06 139.106 182.665 143.935 177.289C144.747 177.643 145.653 177.723 146.514 177.516C147.376 177.309 148.146 176.827 148.709 176.143C152.131 178.72 158.154 183.296 159.111 184.048C159.288 184.186 159.507 184.261 159.732 184.261C159.957 184.261 160.175 184.186 160.353 184.048C164.248 181.038 170.736 173.673 179.8 164.898C180.416 165.284 181.123 165.498 181.85 165.517C182.576 165.536 183.294 165.359 183.928 165.006C184.563 164.652 185.091 164.135 185.457 163.507C185.824 162.88 186.015 162.166 186.01 161.439C186.031 160.918 185.938 160.398 185.736 159.916C185.534 159.435 185.228 159.004 184.841 158.653C184.454 158.303 183.995 158.042 183.496 157.889C182.997 157.736 182.47 157.694 181.953 157.767Z" fill="#EEEFFF"/>
<path d="M98.0394 212.984C103.535 212.984 190.061 213.347 190.061 213.347C190.147 213.348 190.232 213.366 190.311 213.401C190.39 213.435 190.461 213.486 190.52 213.548C190.579 213.611 190.625 213.685 190.654 213.766C190.684 213.847 190.697 213.933 190.693 214.019C190.693 214.382 190.426 214.872 190.061 214.872H97.0334C96.4538 214.872 95.9839 214.584 95.9839 214.019L96.3979 181.665C96.4072 181.501 96.4792 181.346 96.5991 181.232C96.719 181.119 96.8777 181.056 97.0427 181.056C97.2077 181.056 97.3664 181.119 97.4863 181.232C97.6062 181.346 97.6782 181.501 97.6875 181.665C97.6875 181.665 98.0394 210.552 98.0394 212.984Z" fill="#EEEFFF"/>
<path d="M92.9741 137.808C102.289 138.636 131.911 137.164 130.058 137.164C130.228 137.152 130.388 137.075 130.503 136.949C130.618 136.822 130.68 136.657 130.676 136.486C130.673 136.315 130.604 136.152 130.484 136.031C130.364 135.91 130.202 135.839 130.031 135.833C130.031 135.833 126.282 135.699 121.13 135.686C120.178 135.686 100.279 135.908 96.5303 136.196C94.3134 136.372 92.9555 136.533 92.9555 136.533C92.7864 136.535 92.6252 136.605 92.5074 136.726C92.3895 136.848 92.3247 137.011 92.3272 137.18C92.3297 137.349 92.3992 137.51 92.5205 137.628C92.6418 137.746 92.805 137.811 92.9741 137.808Z" fill="#EEEFFF"/>
<path d="M96.3875 226.152C95.4249 235.934 96.3481 277.384 96.3481 274.683C96.3481 274.859 96.4181 275.028 96.5428 275.153C96.6674 275.277 96.8364 275.347 97.0126 275.347C97.1888 275.347 97.3578 275.277 97.4825 275.153C97.6071 275.028 97.6771 274.859 97.6771 274.683C97.6771 274.683 97.8654 269.764 98 263.047C98.0393 260.857 97.9731 231.741 97.9317 230.813C97.7992 227.915 97.6771 226.152 97.6771 226.152C97.6704 225.983 97.6005 225.823 97.4812 225.704C97.3618 225.584 97.2019 225.515 97.0333 225.508C96.9483 225.507 96.8638 225.522 96.785 225.554C96.7061 225.586 96.6345 225.633 96.5743 225.693C96.514 225.753 96.4665 225.825 96.4344 225.904C96.4023 225.982 96.3863 226.067 96.3875 226.152Z" fill="#EEEFFF"/>
<path d="M141.147 230.205C141.149 230.12 141.134 230.035 141.102 229.956C141.071 229.877 141.023 229.805 140.963 229.744C140.903 229.684 140.831 229.636 140.752 229.605C140.673 229.573 140.589 229.557 140.503 229.559C128.137 229.352 131.638 229.172 102.076 229.155C101.798 229.156 101.531 229.267 101.335 229.463C101.139 229.66 101.028 229.927 101.028 230.205V236.264C101.032 236.394 101.063 236.521 101.119 236.639C101.175 236.756 101.254 236.861 101.353 236.945C101.452 237.03 101.567 237.093 101.691 237.131C101.816 237.169 101.947 237.18 102.076 237.164H140.503C140.719 237.131 140.916 237.023 141.059 236.858C141.202 236.693 141.281 236.482 141.282 236.264L141.147 230.205Z" fill="#EEEFFF"/>
<path d="M134.088 263.569C134.084 263.397 134.013 263.234 133.89 263.113C133.767 262.993 133.602 262.926 133.43 262.925C125.866 262.729 123.759 262.542 102.084 262.522C101.807 262.522 101.54 262.633 101.344 262.829C101.148 263.025 101.037 263.291 101.037 263.569V269.628C101.039 269.759 101.069 269.888 101.125 270.007C101.18 270.126 101.259 270.232 101.358 270.319C101.456 270.405 101.572 270.471 101.697 270.51C101.822 270.55 101.954 270.563 102.084 270.549H133.43C133.648 270.517 133.846 270.405 133.985 270.235C134.124 270.064 134.194 269.848 134.182 269.628L134.088 263.569Z" fill="#EEEFFF"/>
<path d="M183.609 246.382C183.609 246.019 183.315 245.535 182.965 245.535H102.065C101.5 245.535 101.004 245.804 101.004 246.382V252.441C101.004 253.02 101.5 253.322 102.065 253.322H182.963C183.313 253.322 183.661 252.844 183.661 252.441L183.609 246.382Z" fill="#EEEFFF"/>
<path d="M296.022 209.979C295.995 209.77 295.902 209.576 295.756 209.425C295.609 209.273 295.419 209.173 295.211 209.138H210.283C209.706 209.138 209.221 209.414 209.221 209.979V298.949C209.225 299.085 209.255 299.219 209.31 299.344C209.365 299.468 209.445 299.58 209.543 299.673C209.642 299.767 209.758 299.84 209.885 299.889C210.012 299.938 210.147 299.961 210.283 299.958H295.211C295.747 299.958 296.022 299.5 296.022 298.949V209.979ZM294.538 210.623C290.763 210.649 215.779 211.012 211.291 210.999V297.939H294.203C294.242 292.715 294.499 213.86 294.538 210.623Z" fill="#FEE992"/>
<path d="M283.07 193.152C283.07 193.152 207.683 192.802 200.44 192.789C199.472 192.786 198.513 192.973 197.618 193.341C196.722 193.708 195.908 194.249 195.222 194.931C194.536 195.614 193.991 196.425 193.619 197.319C193.246 198.212 193.054 199.17 193.052 200.138V312.839C193.051 313.809 193.241 314.769 193.612 315.665C193.983 316.561 194.527 317.375 195.214 318.06C195.9 318.745 196.715 319.287 197.612 319.656C198.509 320.025 199.47 320.212 200.44 320.208H305.025C306.973 320.193 308.836 319.411 310.212 318.031C311.587 316.652 312.365 314.787 312.375 312.839C311.841 191.146 312.448 197.712 311.754 195.638C311.528 194.878 311.109 194.191 310.537 193.643C309.965 193.094 309.26 192.704 308.492 192.51C308.324 192.471 308.148 192.497 308 192.584C307.851 192.671 307.741 192.811 307.693 192.976C307.645 193.142 307.662 193.319 307.74 193.472C307.819 193.625 307.953 193.742 308.115 193.8C311.444 194.818 310.682 198.482 310.682 201.887C310.682 201.887 310.413 303.609 310.374 312.839C310.378 313.541 310.243 314.237 309.975 314.886C309.707 315.535 309.313 316.124 308.815 316.619C308.317 317.114 307.725 317.504 307.074 317.768C306.423 318.031 305.727 318.162 305.025 318.153H200.44C199.033 318.145 197.685 317.583 196.689 316.588C195.693 315.594 195.129 314.247 195.12 312.839V200.138C195.116 199.438 195.25 198.743 195.516 198.095C195.782 197.447 196.173 196.858 196.668 196.362C197.163 195.866 197.751 195.473 198.398 195.206C199.046 194.939 199.74 194.803 200.44 194.806C207.685 194.791 283.07 194.441 283.07 194.441C283.24 194.437 283.402 194.368 283.522 194.248C283.642 194.128 283.711 193.967 283.716 193.798C283.714 193.627 283.645 193.464 283.525 193.343C283.404 193.223 283.241 193.154 283.07 193.152Z" fill="#EEEFFF"/>
<path d="M371.979 282.923C370.53 279.035 368.618 275.337 366.282 271.907C366.178 271.745 366.028 271.618 365.851 271.541C365.675 271.464 365.479 271.442 365.289 271.476C365.1 271.51 364.925 271.6 364.786 271.734C364.647 271.868 364.552 272.04 364.511 272.228C363.192 277.69 362.027 283.836 360.424 288.902C360.166 289.717 360.673 289.879 362.287 291.8C363.871 293.758 363.844 294.095 364.519 294.151C364.663 294.168 364.808 294.153 364.946 294.106C365.083 294.059 365.208 293.983 365.312 293.882C368.378 291.152 370.62 287.621 371.787 283.685C371.902 283.6 371.984 283.477 372.019 283.339C372.054 283.2 372.04 283.053 371.979 282.923Z" fill="#EEEFFF"/>
<path d="M371.753 211.175C369.367 210.059 367.343 208.294 365.912 206.082C364.482 203.87 363.702 201.3 363.664 198.666C363.665 198.553 363.641 198.441 363.593 198.339C363.545 198.236 363.475 198.146 363.387 198.075C363.299 198.004 363.196 197.954 363.086 197.928C362.976 197.902 362.861 197.902 362.751 197.927C358.803 198.83 354.759 198.134 350.834 199.755C345.52 201.984 339.312 205.414 334.274 202.239C333.86 201.949 333.963 201.98 327.273 203.676C327.125 203.714 326.989 203.788 326.877 203.891C326.764 203.994 326.679 204.124 326.627 204.268C321.931 216.41 319.875 230.054 318.674 243.028C317.809 253.006 316.644 259.893 328.147 268.315C332.459 271.487 337.445 273.998 341.703 276.941C341.839 277.039 341.996 277.101 342.162 277.122C342.328 277.144 342.496 277.124 342.652 277.064C342.808 277.004 342.947 276.906 343.055 276.779C343.164 276.652 343.239 276.5 343.274 276.337C342.074 287.898 341.037 298.912 339.548 309.697C339.529 309.89 339.562 310.085 339.645 310.26C339.728 310.435 339.857 310.585 340.018 310.692C344.183 313.15 347.3 314.539 351.345 316.644C351.47 316.713 351.608 316.753 351.75 316.761C351.893 316.769 352.035 316.745 352.166 316.691C352.298 316.637 352.416 316.554 352.511 316.448C352.606 316.341 352.676 316.215 352.716 316.079C359.901 293.913 370.872 237.876 371.76 212.355C371.884 212.314 371.991 212.234 372.068 212.128C372.144 212.021 372.184 211.894 372.184 211.763C372.183 211.632 372.141 211.505 372.064 211.399C371.986 211.294 371.878 211.215 371.753 211.175ZM339.875 207.834C340.024 206.716 340.233 205.23 341.057 205.309C342.405 205.437 341.264 209.832 343.208 214.901C344.206 217.762 344.934 218.058 344.255 218.584C343.32 219.265 341.755 216.435 341.38 215.655C340.327 213.183 339.813 210.514 339.873 207.828L339.875 207.834ZM343.312 276.043C343.27 273.559 343.405 271.031 343.608 268.518C344.369 257.711 345.187 257.009 344.347 256.239C342.219 254.289 338.47 252.008 337.549 249.373C336.443 246.496 337.489 242.919 338.259 239.94C339.932 233.506 342.185 227.237 344.99 221.211L348.766 221.418C348.364 237.386 345.16 257.508 343.312 276.043ZM365.237 216.108C364.852 216.851 363.788 216.315 362.631 215.785C361.314 215.14 360.151 214.221 359.217 213.091C358.283 211.96 357.601 210.644 357.216 209.229C357.063 208.511 357.046 206.698 357.849 206.636C358.371 206.594 358.456 206.899 359.151 208.706C360.026 211.177 361.737 213.264 363.989 214.605C364.891 215.257 365.496 215.464 365.237 216.108Z" fill="#C7C8FE"/>
<path d="M340.173 311.889C329.823 316.65 330.424 314.913 325.944 316.269C321.465 317.625 320.587 321.895 323.93 323.15C325.677 323.556 327.481 323.656 329.262 323.444C334.544 323.28 339.802 322.679 344.984 321.645C347.369 321.163 350.159 321.061 350.828 318.084C350.851 318 350.857 317.911 350.846 317.823C350.834 317.736 350.806 317.652 350.761 317.576C350.717 317.499 350.659 317.433 350.588 317.379C350.518 317.326 350.438 317.287 350.353 317.265C350.268 317.242 350.179 317.237 350.092 317.25C350.005 317.262 349.921 317.291 349.845 317.336C349.769 317.381 349.703 317.44 349.651 317.511C349.598 317.581 349.56 317.662 349.538 317.747C348.936 319.801 346.789 319.643 344.688 319.937C339.566 320.718 334.402 321.199 329.223 321.376C328.081 321.392 324.164 321.895 323.996 320.529C323.998 320.275 324.064 320.026 324.189 319.805C324.313 319.584 324.492 319.399 324.708 319.266C327.321 317.081 330.504 318.438 336.224 315.638C337.783 314.859 339.273 313.918 340.778 313.019C340.927 312.94 341.038 312.805 341.089 312.644C341.139 312.483 341.124 312.308 341.047 312.158C340.964 312.01 340.827 311.899 340.664 311.849C340.501 311.799 340.326 311.813 340.173 311.889Z" fill="#EEEFFF"/>
<path d="M366.705 293.692C366.971 294.66 367.124 295.656 367.16 296.66C366.097 300.488 364.32 304.081 361.921 307.248C360.567 308.954 356.464 309.208 356.787 311.924C356.922 313.541 358.518 314.058 360.134 314.127C362.414 314.181 364.693 314.028 366.945 313.669C372.099 312.945 373.689 306.751 376.566 302.868C378.177 300.591 379.82 298.455 379.28 295.693C378.588 292.174 375.409 289.86 372.803 287.711C372.171 287.142 371.24 288.163 371.929 288.719C374.066 290.661 377.104 293.155 377.518 296.002C377.827 298.101 376.251 300.024 374.951 301.686C372.381 305.151 370.551 311.082 366.671 311.601C364.136 312.072 361.544 312.149 358.986 311.829C358.826 311.734 358.812 311.694 358.919 311.587C359.99 310.517 362.177 310.307 363.542 308.523C365.453 306.027 366.946 303.237 367.961 300.262C368.408 299.128 368.676 297.93 368.754 296.714C368.662 295.576 368.394 294.458 367.961 293.402C367.69 292.553 366.462 292.905 366.705 293.692Z" fill="#EEEFFF"/>
<path d="M80.8522 121.631L200.169 119.646C200.341 119.634 200.502 119.556 200.618 119.428C200.734 119.301 200.797 119.134 200.793 118.962C200.79 118.789 200.72 118.625 200.599 118.502C200.478 118.379 200.314 118.308 200.142 118.303L80.8191 120.358C80.6611 120.377 80.516 120.455 80.412 120.575C80.3081 120.696 80.2528 120.851 80.2569 121.01C80.2611 121.169 80.3243 121.321 80.4344 121.436C80.5445 121.55 80.6934 121.62 80.8522 121.631Z" fill="#EEEFFF"/>
<path d="M77.4408 161.439C77.4408 161.439 77.7761 122.436 77.8175 117.572C77.8145 115.52 78.6188 113.55 80.0566 112.087C81.4944 110.623 83.4502 109.785 85.5014 109.751L195.211 107.992C196.252 107.973 197.285 108.161 198.252 108.546C199.218 108.931 200.098 109.505 200.84 110.235C201.582 110.964 202.171 111.834 202.573 112.794C202.974 113.754 203.18 114.784 203.179 115.825C203.22 122.863 203.529 185.704 203.529 185.704C203.529 185.877 203.597 186.043 203.72 186.165C203.842 186.287 204.008 186.356 204.181 186.356C204.354 186.356 204.519 186.287 204.642 186.165C204.764 186.043 204.833 185.877 204.833 185.704C204.833 185.704 205.141 122.865 205.183 115.825C205.184 114.517 204.924 113.222 204.42 112.015C203.915 110.809 203.175 109.714 202.244 108.797C201.312 107.879 200.207 107.155 198.993 106.669C197.779 106.183 196.48 105.943 195.172 105.963L85.462 107.696C82.874 107.74 80.4074 108.801 78.5948 110.649C76.7822 112.497 75.7692 114.983 75.7744 117.572C75.7744 122.436 76.1512 161.439 76.1512 161.439C76.1512 161.61 76.2191 161.774 76.34 161.895C76.461 162.016 76.625 162.084 76.796 162.084C76.967 162.084 77.131 162.016 77.2519 161.895C77.3729 161.774 77.4408 161.61 77.4408 161.439Z" fill="#EEEFFF"/>
<path d="M72.1126 228.172C72.1126 228.172 71.7234 282.05 71.7234 291.119C71.7202 292.284 71.9467 293.438 72.3901 294.515C72.8335 295.592 73.4851 296.571 74.3075 297.396C75.1299 298.222 76.1069 298.876 77.1827 299.323C78.2585 299.77 79.4119 300 80.5768 300.001C90.0098 299.986 183.98 299.624 183.98 299.624C184.151 299.615 184.313 299.54 184.431 299.415C184.549 299.29 184.615 299.124 184.615 298.953C184.615 298.781 184.549 298.615 184.431 298.49C184.313 298.365 184.151 298.29 183.98 298.281C183.98 298.281 90.0015 297.919 80.5768 297.904C78.7766 297.899 77.0512 297.183 75.776 295.912C74.5007 294.642 73.7785 292.919 73.7665 291.119C73.7665 282.05 73.4022 228.172 73.4022 228.172C73.3929 228.007 73.3209 227.852 73.201 227.739C73.0811 227.626 72.9223 227.563 72.7574 227.563C72.5924 227.563 72.4337 227.626 72.3138 227.739C72.1939 227.852 72.1219 228.007 72.1126 228.172Z" fill="#EEEFFF"/>
</svg>
