<svg width="100" height="96" viewBox="0 0 100 96" fill="none" xmlns="http://www.w3.org/2000/svg">
<path fill-rule="evenodd" clip-rule="evenodd" d="M79.6163 37.6205L49.8042 7.80838L19.9921 37.6205L49.8042 67.4327L79.6163 37.6205ZM49.8042 0.355347L12.539 37.6205L49.8042 74.8857L87.0694 37.6205L49.8042 0.355347Z" fill="white"/>
<path d="M99.9999 7.7334H62.9775L68.1159 13.1352H81.4887H94.8616V62.2789H68.1159V56.4818H62.9775V67.4172H99.9999V7.7334Z" fill="white"/>
<path d="M6.48499e-05 67.4172L37.0225 67.4172L31.8841 62.0154L18.5113 62.0154L5.13841 62.0154L5.13841 12.8718L31.8841 12.8718L31.8841 18.6689L37.0225 18.6689L37.0225 7.73344L7.00676e-05 7.73344L6.48499e-05 67.4172Z" fill="white"/>
<path d="M55.5961 44.6253V39.8834H46.1123V44.6253H55.5961ZM50.8542 35.1415V30.3996H46.1123V35.1415H50.8542ZM41.3704 49.3673V25.6519H55.5961V35.1415H60.3381V49.3673H41.3704Z" fill="white"/>
<path d="M6.42368 95.374H1.40479V83.3322H6.06261C6.92919 83.3322 7.95824 83.4586 8.69844 84.271C9.11367 84.7223 9.43864 85.4625 9.43864 86.5277C9.43864 87.0512 9.34837 87.5026 9.09562 88.0081C8.84287 88.4775 8.57206 88.7483 8.12072 88.9469C8.7526 89.0191 9.38447 89.3079 9.7636 89.669C10.251 90.1384 10.576 90.9147 10.576 91.8716C10.576 93.0089 10.1427 93.7852 9.69139 94.2366C9.04146 94.9046 7.90408 95.374 6.42368 95.374ZM4.52806 85.7333V88.0803H5.10577C5.43074 88.0803 5.97234 88.0442 6.29731 87.7012C6.4959 87.5026 6.58617 87.1776 6.58617 86.9068C6.58617 86.5999 6.47785 86.293 6.29731 86.0944C6.09872 85.8958 5.71959 85.7333 5.10577 85.7333H4.52806ZM4.52806 90.4092V92.9367H5.23215C6.09872 92.9367 6.82086 92.8465 7.16388 92.4493C7.30831 92.2868 7.41663 92.016 7.41663 91.673C7.41663 91.2938 7.29026 90.9869 7.10972 90.8064C6.7306 90.4273 5.95429 90.4092 5.17799 90.4092H4.52806Z" fill="white"/>
<path d="M12.5649 83.3322H15.6881V92.7201H19.4433V95.374H12.5649V83.3322Z" fill="white"/>
<path d="M33.121 89.3621C33.121 90.9508 32.5072 92.6298 31.2254 93.8575C29.9977 95.0309 28.2646 95.6448 26.4773 95.6448C24.69 95.6448 22.9568 95.0309 21.7292 93.8575C20.4474 92.6298 19.8336 90.9508 19.8336 89.3621C19.8336 87.7553 20.4474 86.0583 21.7292 84.8487C22.9568 83.6752 24.69 83.0614 26.4773 83.0614C28.2646 83.0614 29.9977 83.6752 31.2254 84.8487C32.5072 86.0583 33.121 87.7553 33.121 89.3621ZM26.4773 86.0944C25.6107 86.0944 24.69 86.4013 24.04 87.0512C23.3901 87.6831 23.0832 88.5677 23.0832 89.4163C23.0832 90.4814 23.5887 91.2216 24.04 91.6549C24.6178 92.2146 25.4302 92.6118 26.4773 92.6118C27.5424 92.6118 28.3368 92.2326 28.8965 91.673C29.4561 91.1133 29.8714 90.2828 29.8714 89.3621C29.8714 88.4233 29.4561 87.5929 28.8965 87.0512C28.2285 86.4194 27.3077 86.0944 26.4773 86.0944Z" fill="white"/>
<path d="M43.7619 91.348V95.049C42.5162 95.5003 41.8302 95.6448 41.0539 95.6448C38.9596 95.6448 37.389 94.8143 36.396 93.8394C35.2226 92.6659 34.5726 91.023 34.5726 89.4524C34.5726 87.7373 35.3128 86.1125 36.396 85.0112C37.4612 83.928 39.068 83.1336 40.9455 83.1336C41.5233 83.1336 42.462 83.2239 43.7619 83.7474V87.4845C42.7509 86.2388 41.5594 86.1666 41.0358 86.1666C40.1331 86.1666 39.4471 86.4374 38.8694 86.961C38.1292 87.647 37.8223 88.5858 37.8223 89.4343C37.8223 90.2648 38.1653 91.1855 38.7972 91.7813C39.3207 92.2687 40.1512 92.6118 41.0358 92.6118C41.5052 92.6118 42.6606 92.5576 43.7619 91.348Z" fill="white"/>
<path d="M48.8687 83.3322V88.2969L52.696 83.3322H56.5595L51.7753 89.0371L56.9928 95.374H52.9488L48.8687 90.1565V95.374H45.7454V83.3322H48.8687Z" fill="white"/>
<path d="M56.9457 94.2907L58.2817 91.7632C58.9496 92.3951 59.9606 92.9909 61.0438 92.9909C61.6757 92.9909 62.0549 92.7923 62.2534 92.5756C62.434 92.3951 62.5604 92.1243 62.5604 91.8174C62.5604 91.5827 62.4701 91.3119 62.2173 91.0953C61.9104 90.8244 61.441 90.6981 60.6647 90.4634L59.8523 90.2106C59.3468 90.0481 58.6066 89.7773 58.1192 89.2357C57.5053 88.5677 57.4331 87.7192 57.4331 87.1054C57.4331 85.625 58.0108 84.7223 58.5344 84.1988C59.1482 83.585 60.1592 83.0614 61.6216 83.0614C62.8131 83.0614 64.2032 83.4405 65.3406 84.0363L64.0949 86.4735C63.1561 85.7333 62.452 85.6611 62.0368 85.6611C61.7299 85.6611 61.3147 85.7333 61.0077 86.0222C60.8272 86.2027 60.7008 86.4013 60.7008 86.6721C60.7008 86.8888 60.7369 87.0512 60.8633 87.2137C60.9536 87.3221 61.1702 87.5387 61.9104 87.7553L62.8673 88.0442C63.6255 88.2789 64.4199 88.5497 65.0517 89.2357C65.6656 89.8857 65.8281 90.5536 65.8281 91.3841C65.8281 92.4854 65.5572 93.5505 64.6907 94.4171C63.6616 95.4462 62.4159 95.6448 61.1341 95.6448C60.3759 95.6448 59.6537 95.5725 58.7691 95.2476C58.5705 95.1754 57.8123 94.8865 56.9457 94.2907Z" fill="white"/>
<path d="M74.9142 85.9861H72.3506V95.374H69.2273V85.9861H66.6637V83.3322H74.9142V85.9861Z" fill="white"/>
<path d="M83.8405 95.374L83.1003 93.352H78.7313L77.9189 95.374H74.6151L79.2368 83.3322H82.6489L87.1804 95.374H83.8405ZM79.5979 90.9689H82.2698L80.9158 87.0693L79.5979 90.9689Z" fill="white"/>
<path d="M91.6931 83.3322V88.2969L95.5204 83.3322H99.3839L94.5997 89.0371L99.8172 95.374H95.7732L91.6931 90.1565V95.374H88.5698V83.3322H91.6931Z" fill="white"/>
</svg>
